<?xml version="1.0" standalone="no"?>
<!DOCTYPE svg PUBLIC "-//W3C//DTD SVG 1.1//EN" "http://www.w3.org/Graphics/SVG/1.1/DTD/svg11.dtd" >
<svg>
<metadata>
Created by FontForge 20090622 at Wed Mar  5 04:48:56 2014
 By ffonts
1.2, Copyright &#194;&#169; Castcraft Software, Inc. 1990-1993.
</metadata>
<defs>
<font id="MillOpti-Medium" horiz-adv-x="542" >
  <font-face 
    font-family="MillOpti"
    font-weight="500"
    font-stretch="normal"
    units-per-em="1000"
    panose-1="0 0 0 0 0 0 0 0 0 0"
    ascent="739"
    descent="-261"
    x-height="483"
    cap-height="714"
    bbox="-77.4466 -252 1038 994"
    underline-thickness="58"
    underline-position="-47"
    stemh="37"
    stemv="114"
    unicode-range="U+0020-U+FB02"
  />
<missing-glyph horiz-adv-x="500" 
 />
    <glyph glyph-name=".notdef" horiz-adv-x="500" 
 />
    <glyph glyph-name="space" unicode=" " horiz-adv-x="335" 
 />
    <glyph glyph-name="exclam" unicode="!" horiz-adv-x="193" 
d="M158 632l-35 -396l-27 -32l-26 32l-35 396c-4 45 2 96 61 96c60 0 66 -51 62 -96zM158 61c0 -39 -17 -75 -62 -75s-61 36 -61 75c0 38 16 74 61 74s62 -36 62 -74z" />
    <glyph glyph-name="quotedbl" unicode="&#x22;" horiz-adv-x="259" 
d="M222 651l-29 -160h-19l-29 160c-10 54 7 77 38 77c32 0 49 -23 39 -77zM114 651l-29 -160h-19l-29 160c-10 54 7 77 38 77c32 0 49 -23 39 -77z" />
    <glyph glyph-name="numbersign" unicode="#" horiz-adv-x="706" 
d="M672 449l-21 -58h-139l-46 -129h139l-21 -59h-139l-72 -203h-76l74 203h-124l-72 -203h-76l74 203h-139l19 59h141l45 129h-140l21 58h140l72 201h74l-71 -201h123l72 201h74l-71 -201h139zM437 391h-123l-46 -129h124z" />
    <glyph glyph-name="dollar" unicode="$" horiz-adv-x="558" 
d="M525 200c0 -143 -108 -205 -229 -212v-108h-44v107c-94 3 -170 20 -207 33c-8 3 -11 7 -11 21c0 5 2 41 2 78c0 28 -2 76 -2 98h65l2 -30c8 -124 44 -160 151 -160v276l-62 20c-102 33 -142 98 -142 173c0 138 110 184 204 193v84h44v-82c43 0 133 -14 183 -31
c12 -6 14 -10 14 -21c0 -13 -2 -45 -2 -70c0 -21 2 -62 2 -75h-63v13c0 103 -44 143 -132 143h-2v-246l72 -23c77 -25 157 -73 157 -181zM252 418v228c-75 -15 -99 -67 -99 -114c0 -70 43 -95 90 -111zM417 155c0 66 -34 105 -118 133l-3 1v-259c80 14 121 67 121 125z" />
    <glyph glyph-name="percent" unicode="%" horiz-adv-x="894" 
d="M388 534c0 -149 -86 -192 -176 -192c-125 0 -178 72 -178 181c0 148 86 191 176 191c125 0 178 -71 178 -180zM664 781l-389 -853h-48l389 853h48zM861 192c0 -149 -87 -192 -177 -192c-125 0 -178 71 -178 180c0 149 87 192 177 192c124 0 178 -71 178 -180zM298 520
c0 99 -22 162 -86 162c-67 0 -87 -66 -87 -146c0 -98 22 -161 87 -161c67 0 86 66 86 145zM771 178c0 98 -22 161 -87 161c-67 0 -87 -66 -87 -145c0 -99 22 -162 87 -162c67 0 87 66 87 146z" />
    <glyph glyph-name="ampersand" unicode="&#x26;" horiz-adv-x="695" 
d="M662 0c-28 0 -55 3 -90 3c-37 0 -70 -3 -93 -3c-20 26 -43 53 -66 81c-55 -56 -124 -95 -203 -95c-115 0 -176 74 -176 161c0 81 72 139 148 189c-46 55 -75 113 -75 170c0 75 52 152 164 152c85 0 152 -40 152 -124c0 -85 -63 -130 -129 -172l155 -171
c32 49 50 94 50 115c0 18 -19 28 -80 28v38c27 0 74 -3 127 -3c32 0 67 3 114 3v-38c-75 0 -88 -10 -121 -70c-18 -32 -42 -71 -63 -104l55 -59c44 -47 62 -63 131 -63v-38zM352 532c0 50 -25 88 -78 88c-48 0 -77 -41 -77 -87c0 -49 31 -95 71 -141c50 36 84 77 84 140z
M386 110l-178 197c-40 -31 -70 -67 -70 -121c0 -74 50 -144 130 -144c43 0 83 29 118 68z" />
    <glyph glyph-name="quoteright" unicode="&#x2019;" horiz-adv-x="208" 
d="M175 635c0 -78 -37 -142 -124 -189l-17 27c47 30 75 50 83 115c-37 -9 -78 13 -78 64c0 35 22 76 65 76c27 0 71 -22 71 -93z" />
    <glyph glyph-name="parenleft" unicode="(" horiz-adv-x="290" 
d="M257 -207c-195 14 -223 180 -223 332v257c0 152 28 317 223 332v-28c-117 -38 -126 -124 -126 -237v-391c0 -113 9 -199 126 -237v-28z" />
    <glyph glyph-name="parenright" unicode=")" horiz-adv-x="290" 
d="M257 125c0 -152 -29 -318 -223 -332v28c116 38 125 124 125 237v391c0 113 -9 199 -125 237v28c194 -15 223 -180 223 -332v-257z" />
    <glyph glyph-name="asterisk" unicode="*" horiz-adv-x="445" 
d="M412 543l-159 -23l115 -113l-74 -52l-71 143l-72 -143l-72 53l114 112l-159 25l28 84l142 -73l-26 158h90l-26 -158l142 73z" />
    <glyph glyph-name="plus" unicode="+" horiz-adv-x="666" 
d="M632 261h-256v-261h-86v261h-256v87h256v260h86v-260h256v-87z" />
    <glyph glyph-name="comma" unicode="," horiz-adv-x="203" 
d="M170 48c0 -77 -37 -141 -124 -188l-18 27c47 29 76 49 84 115c-38 -9 -78 13 -78 64c0 35 21 75 64 75c28 0 72 -22 72 -93z" />
    <glyph glyph-name="hyphen" unicode="-" horiz-adv-x="323" 
d="M289 258h-255v93h255v-93z" />
    <glyph glyph-name="period" unicode="." horiz-adv-x="191" 
d="M157 61c0 -39 -17 -75 -62 -75s-61 36 -61 75c0 38 16 74 61 74s62 -36 62 -74z" />
    <glyph glyph-name="slash" unicode="/" horiz-adv-x="375" 
d="M341 714l-251 -751h-69l251 751h69z" />
    <glyph glyph-name="zero" unicode="0" 
d="M509 325c0 -94 -13 -175 -39 -234c-28 -64 -84 -99 -199 -99s-170 35 -199 99c-26 59 -38 140 -38 234c0 93 12 174 38 233c29 64 84 100 199 100s171 -36 199 -100c26 -59 39 -140 39 -233zM384 325c0 189 -8 296 -113 296s-113 -107 -113 -296c0 -190 8 -297 113 -297
s113 107 113 297z" />
    <glyph glyph-name="one" unicode="1" 
d="M462 0c-47 0 -124 3 -182 3c-59 0 -137 -3 -184 -3v38h12c89 0 117 17 117 63v473c-51 -39 -120 -82 -168 -106c-9 -4 -12 -2 -12 5v57c79 25 154 68 198 119h93c-2 -39 -3 -69 -3 -100v-448c0 -46 28 -63 117 -63h12v-38z" />
    <glyph glyph-name="two" unicode="2" 
d="M495 0c-93 0 -144 2 -237 2c-78 0 -123 -2 -198 -2v89l120 117c133 129 188 209 188 302c0 57 -23 114 -93 114c-69 0 -99 -46 -99 -90c0 -57 -5 -72 -37 -72h-35c-21 0 -29 13 -29 46c0 92 65 152 204 152c149 0 210 -56 210 -154c0 -99 -64 -151 -216 -284l-139 -121
h230c79 0 93 9 97 97h34c0 -33 -2 -57 -2 -92c0 -41 2 -68 2 -104z" />
    <glyph glyph-name="three" unicode="3" 
d="M485 184c0 -98 -42 -192 -236 -192c-158 0 -194 82 -194 151c0 19 9 40 28 40h41c26 0 31 -6 31 -40c0 -75 27 -115 100 -115c77 0 108 52 108 165c0 69 -17 134 -125 134c-26 0 -42 -1 -57 -1v45c5 0 32 -2 44 -2c112 0 125 54 125 134c0 79 -27 119 -97 119
c-69 0 -85 -47 -87 -99c-2 -32 -8 -47 -29 -47h-38c-18 0 -30 21 -30 40c0 98 91 142 216 142c124 0 183 -60 183 -160c0 -99 -64 -130 -121 -145c98 -18 138 -70 138 -169z" />
    <glyph glyph-name="four" unicode="4" 
d="M529 0c-47 0 -112 3 -171 3s-124 -3 -172 -3v38c89 0 118 17 118 63v82h-286v65c61 82 206 294 274 401h123c-2 -39 -3 -69 -3 -100v-289h102l-6 -77h-96v-82c0 -46 28 -63 117 -63v-38zM304 260v320l-219 -320h219z" />
    <glyph glyph-name="five" unicode="5" 
d="M482 217c0 -173 -100 -225 -245 -225c-141 0 -180 71 -189 151c-3 22 7 37 25 37h54c14 0 23 -6 23 -29c0 -91 30 -122 101 -122c75 0 108 55 108 170s-25 180 -115 180c-57 0 -92 -24 -112 -73h-48c4 128 5 285 0 326c-2 15 0 17 9 17c40 0 111 -2 182 -2
c72 0 111 2 183 2l-35 -94h-284l-6 -180c28 24 86 52 164 52c89 0 185 -37 185 -210z" />
    <glyph glyph-name="six" unicode="6" 
d="M508 224c0 -149 -74 -232 -231 -232c-144 0 -232 72 -232 293v55c0 256 89 318 246 318s182 -74 182 -123c0 -23 -10 -33 -27 -33h-42c-20 0 -31 7 -31 40c0 48 -24 79 -87 79c-81 0 -117 -52 -117 -202c0 -22 1 -35 1 -45c38 30 89 50 145 50c142 0 193 -86 193 -200z
M391 204c0 95 -17 179 -111 179c-86 0 -115 -73 -115 -163s12 -189 112 -189c97 0 114 78 114 173z" />
    <glyph glyph-name="seven" unicode="7" 
d="M494 594c-41 -77 -256 -504 -280 -594c-22 0 -39 2 -65 2s-55 -2 -67 -2l339 553h-203c-97 0 -110 -19 -113 -104h-37s2 69 2 114c0 34 -1 53 -2 86c86 0 134 -2 220 -2c81 0 126 2 206 2v-55z" />
    <glyph glyph-name="eight" unicode="8" 
d="M506 191c0 -108 -48 -199 -257 -199c-143 0 -208 70 -208 188c0 109 49 153 131 179c-64 21 -109 56 -109 135c0 118 84 164 222 164s195 -72 195 -154c0 -83 -45 -127 -114 -144c93 -24 140 -62 140 -169zM366 498c0 67 -24 124 -97 124c-52 0 -92 -35 -92 -131
c0 -70 19 -118 91 -118c78 0 98 58 98 125zM383 171c0 88 -11 163 -114 163c-60 0 -107 -30 -107 -148c0 -117 31 -159 108 -159c78 0 113 46 113 144z" />
    <glyph glyph-name="nine" unicode="9" 
d="M496 309c0 -256 -89 -317 -246 -317s-182 73 -182 122c0 23 11 34 27 34h42c20 0 32 -8 32 -41c0 -47 24 -79 86 -79c81 0 118 53 118 202c0 22 -1 35 -1 45c-39 -30 -89 -50 -146 -50c-141 0 -192 86 -192 200c0 149 74 233 230 233c144 0 232 -73 232 -294v-55z
M376 429c0 90 -12 189 -112 189c-96 0 -113 -78 -113 -173s17 -179 111 -179c86 0 114 73 114 163z" />
    <glyph glyph-name="colon" unicode=":" horiz-adv-x="191" 
d="M157 401c0 -39 -17 -74 -62 -74s-61 35 -61 74s16 74 61 74s62 -35 62 -74zM157 61c0 -39 -17 -75 -62 -75s-61 36 -61 75c0 38 16 74 61 74s62 -36 62 -74z" />
    <glyph glyph-name="semicolon" unicode=";" horiz-adv-x="203" 
d="M162 401c0 -39 -16 -74 -61 -74c-46 0 -62 35 -62 74s16 74 62 74c45 0 61 -35 61 -74zM170 48c0 -77 -37 -141 -124 -188l-18 27c47 29 76 49 84 115c-38 -9 -78 13 -78 64c0 35 21 75 64 75c28 0 72 -22 72 -93z" />
    <glyph glyph-name="less" unicode="&#x3c;" horiz-adv-x="503" 
d="M469 88l-435 163v106l435 162v-90l-334 -125l334 -125v-91z" />
    <glyph glyph-name="equal" unicode="=" horiz-adv-x="690" 
d="M657 369h-623v97h623v-97zM657 140h-623v100h623v-100z" />
    <glyph glyph-name="greater" unicode="&#x3e;" horiz-adv-x="503" 
d="M469 251l-435 -163v91l334 125l-334 125v90l435 -162v-106z" />
    <glyph glyph-name="question" unicode="?" horiz-adv-x="443" 
d="M409 580c0 -53 -27 -128 -147 -141l-31 -202l-27 -33l-25 33l-19 225c127 -14 138 69 138 124c0 56 -19 106 -85 106c-59 0 -81 -38 -81 -89c0 -43 -15 -56 -36 -56h-30c-22 0 -32 16 -32 38s5 143 183 143c89 0 192 -27 192 -148zM268 61c0 -39 -17 -75 -62 -75
s-61 36 -61 75c0 38 16 74 61 74s62 -36 62 -74z" />
    <glyph glyph-name="at" unicode="@" horiz-adv-x="840" 
d="M806 437c0 -151 -89 -275 -212 -275c-58 0 -91 30 -99 83c-40 -64 -85 -84 -137 -84c-79 0 -138 62 -137 150c2 123 100 245 201 245c44 0 91 -6 117 -68l16 53h106l-56 -196c-8 -28 -44 -125 16 -125c54 0 138 74 138 216c0 182 -142 248 -287 248
c-173 0 -355 -120 -355 -356c0 -198 144 -314 301 -314c99 0 199 23 297 82l20 -35c-101 -66 -219 -97 -328 -97c-252 0 -373 195 -373 374c0 220 185 391 438 391c167 0 334 -81 334 -292zM511 426c4 35 -8 73 -53 73c-87 0 -123 -189 -123 -224c0 -28 15 -59 50 -59
c88 0 122 171 126 210z" />
    <glyph glyph-name="A" unicode="A" horiz-adv-x="781" 
d="M779 0c-47 0 -95 3 -154 3s-111 -3 -158 -3v38c90 0 104 22 82 78l-69 180h-236l-64 -164c-33 -84 13 -94 82 -94v-38c-47 0 -74 3 -132 3c-59 0 -81 -3 -128 -3v38c69 0 89 19 118 90l239 586h86l234 -608c18 -48 45 -68 100 -68v-38zM464 338l-102 265l-102 -265h204z
" />
    <glyph glyph-name="B" unicode="B" horiz-adv-x="661" 
d="M627 203c0 -100 -33 -203 -274 -203c-59 0 -107 3 -166 3c-58 0 -106 -3 -153 -3v38c69 0 96 4 96 63v513c0 58 -27 62 -96 62v38c47 0 95 -3 153 -3c59 0 150 3 235 3c144 0 183 -69 183 -166c0 -98 -37 -139 -160 -172c141 -7 182 -72 182 -173zM481 534
c0 84 -11 140 -163 140c-24 0 -56 -1 -73 -2v-278h50c181 0 186 64 186 140zM501 204c0 75 -12 152 -186 152c-21 0 -49 -2 -70 -4v-307c17 -2 50 -2 81 -2c125 0 175 43 175 161z" />
    <glyph glyph-name="C" unicode="C" horiz-adv-x="695" 
d="M662 39c0 -10 -4 -15 -16 -20c-26 -11 -105 -33 -225 -33c-129 0 -213 14 -286 71c-80 61 -101 174 -101 300s37 240 106 297c72 60 171 74 273 74c78 0 169 -16 234 -32c14 -4 15 -7 15 -19c0 -5 -2 -35 -2 -69c0 -31 2 -66 2 -89h-66c-14 123 -50 168 -176 168
c-203 0 -256 -156 -256 -338c0 -259 124 -322 256 -322c103 0 174 36 175 181h67c0 -23 -2 -61 -2 -94c0 -31 2 -61 2 -75z" />
    <glyph glyph-name="D" unicode="D" horiz-adv-x="755" 
d="M721 366c0 -178 -40 -366 -317 -366c-85 0 -158 3 -217 3c-58 0 -106 -3 -153 -3v38c69 0 96 4 96 63v513c0 58 -27 62 -96 62v38c47 0 95 -3 153 -3c59 0 168 3 274 3c219 0 260 -169 260 -348zM592 374c0 250 -98 301 -235 301c-47 0 -88 -6 -112 -10v-613
c20 -1 73 -3 100 -3c231 0 247 141 247 325z" />
    <glyph glyph-name="E" unicode="E" horiz-adv-x="626" 
d="M603 0c-47 0 -357 3 -416 3c-58 0 -106 -3 -153 -3v38c69 0 96 4 96 63v513c0 58 -27 62 -96 62v38c47 0 95 -3 153 -3c59 0 360 3 407 3c0 -25 -2 -67 -2 -83c0 -19 2 -72 2 -92h-56l-6 26c-23 98 -35 105 -118 105h-169v-277h75c74 0 90 24 92 106h50
c0 -47 -3 -91 -3 -123c0 -34 3 -77 3 -124h-50c-9 80 -28 103 -78 103h-89v-309c25 -1 63 -3 114 -3c145 0 151 3 172 113l9 47h63c0 -26 -2 -61 -2 -99c0 -41 2 -84 2 -104z" />
    <glyph glyph-name="F" unicode="F" horiz-adv-x="617" 
d="M594 539h-56l-6 26c-23 98 -35 105 -118 105h-169v-277h75c74 0 90 24 92 106h50c0 -47 -3 -91 -3 -123c0 -34 3 -77 3 -124h-50c-9 80 -28 103 -78 103h-89v-254c0 -59 27 -63 96 -63v-38c-47 0 -95 3 -154 3c-58 0 -106 -3 -153 -3v38c69 0 96 4 96 63v513
c0 58 -27 62 -96 62v38c47 0 95 -3 153 -3c59 0 360 3 407 3c0 -25 -2 -67 -2 -83c0 -19 2 -72 2 -92z" />
    <glyph glyph-name="G" unicode="G" horiz-adv-x="774" 
d="M740 260c-55 -2 -77 -11 -77 -63v-70c0 -25 4 -65 6 -77c2 -11 0 -18 -12 -20c-48 -8 -160 -44 -289 -44c-70 0 -163 10 -234 68c-72 60 -100 177 -100 303c0 115 13 190 61 253c58 77 163 118 320 118c43 0 139 -11 211 -24c19 -3 27 -12 27 -30c0 -12 -2 -46 -2 -73
c0 -31 2 -63 2 -86h-68c0 114 -43 170 -168 170c-155 0 -256 -69 -256 -328c0 -230 78 -331 233 -331c89 0 154 22 154 75v96c0 58 -13 63 -127 63v37c47 0 126 -3 184 -3c52 0 94 2 135 3v-37z" />
    <glyph glyph-name="H" unicode="H" horiz-adv-x="827" 
d="M794 0c-47 0 -96 3 -154 3c-59 0 -107 -3 -154 -3v38c69 0 96 4 96 63v253h-337v-253c0 -59 27 -63 96 -63v-38c-47 0 -95 3 -154 3c-58 0 -106 -3 -153 -3v38c69 0 96 4 96 63v513c0 58 -27 62 -96 62v38c47 0 95 -3 153 -3c59 0 107 3 154 3v-38c-69 0 -96 -4 -96 -62
v-213h337v213c0 58 -27 62 -96 62v38c47 0 95 -3 154 -3c58 0 107 3 154 3v-38c-69 0 -97 -4 -97 -62v-513c0 -59 28 -63 97 -63v-38z" />
    <glyph glyph-name="I" unicode="I" horiz-adv-x="375" 
d="M341 0c-47 0 -95 3 -154 3c-58 0 -106 -3 -153 -3v38c69 0 96 4 96 63v513c0 58 -27 62 -96 62v38c47 0 95 -3 153 -3c59 0 107 3 154 3v-38c-69 0 -96 -4 -96 -62v-513c0 -59 27 -63 96 -63v-38z" />
    <glyph glyph-name="J" unicode="J" horiz-adv-x="375" 
d="M341 676c-69 0 -96 -4 -96 -62v-508c0 -186 -92 -296 -242 -313v28c87 27 127 94 127 216v577c0 58 -27 62 -96 62v38c47 0 95 -3 153 -3c59 0 107 3 154 3v-38z" />
    <glyph glyph-name="K" unicode="K" horiz-adv-x="756" 
d="M743 0c-31 0 -64 3 -99 3c-27 0 -61 -3 -92 -3c-15 21 -55 71 -80 99l-227 257v-255c0 -59 27 -63 96 -63v-38c-47 0 -95 3 -154 3c-58 0 -106 -3 -153 -3v38c69 0 96 4 96 63v513c0 58 -27 62 -96 62v38c47 0 95 -3 153 -3c59 0 107 3 154 3v-38c-69 0 -96 -4 -96 -62
v-235l207 199c88 85 88 102 68 110v26c19 0 61 -3 88 -3c31 0 83 3 113 3v-38c-86 0 -98 -2 -223 -121l-146 -140l294 -333c29 -32 41 -44 97 -44v-38z" />
    <glyph glyph-name="L" unicode="L" horiz-adv-x="610" 
d="M598 0c-47 0 -352 3 -411 3c-58 0 -106 -3 -153 -3v38c69 0 96 4 96 63v513c0 58 -27 62 -96 62v38c47 0 95 -3 153 -3c59 0 107 3 154 3v-38c-69 0 -96 -4 -96 -62v-566c21 -1 88 -4 118 -4c142 0 153 10 166 136l3 29h66c0 -19 -2 -80 -2 -104c0 -29 2 -81 2 -105z" />
    <glyph glyph-name="M" unicode="M" horiz-adv-x="1006" 
d="M973 0c-47 0 -96 3 -154 3c-59 0 -107 -3 -154 -3v38c69 0 96 4 96 63v482l-277 -595c-4 -8 -12 -8 -16 0l-300 590l11 -477c1 -59 27 -63 96 -63v-38c-47 0 -60 3 -119 3s-75 -3 -122 -3v38c62 0 91 4 91 63v513c0 58 -29 62 -91 62v38c47 0 91 -3 123 -3
c29 0 55 3 83 3c3 -12 15 -47 28 -73l242 -473l229 469c7 15 27 65 31 77c26 0 55 -3 75 -3c59 0 81 3 128 3v-38c-69 0 -97 -4 -97 -62v-513c0 -59 28 -63 97 -63v-38z" />
    <glyph glyph-name="N" unicode="N" horiz-adv-x="826" 
d="M793 676c-63 0 -91 -4 -91 -62v-614c-8 0 -20 2 -37 2c-15 0 -37 -2 -45 -3c-4 8 -21 35 -39 58l-413 529l11 -485c1 -59 27 -63 96 -63v-38c-47 0 -65 3 -123 3c-59 0 -71 -3 -118 -3v38c62 0 91 4 91 63v513c0 58 -29 62 -91 62v38c31 0 77 -3 109 -3c21 0 64 3 78 3
c3 -6 25 -40 41 -60l397 -507l-12 467c-1 58 -27 62 -96 62v38c31 0 65 -3 123 -3c59 0 85 3 119 3v-38z" />
    <glyph glyph-name="O" unicode="O" horiz-adv-x="779" 
d="M746 357c0 -126 -29 -243 -101 -303c-71 -58 -177 -68 -255 -68c-79 0 -185 10 -256 68c-72 60 -100 177 -100 303s28 243 100 303c71 58 177 68 256 68c78 0 189 -2 255 -68c67 -67 101 -177 101 -303zM620 357c0 259 -75 330 -230 330s-231 -71 -231 -330
s76 -330 231 -330s230 71 230 330z" />
    <glyph glyph-name="P" unicode="P" horiz-adv-x="638" 
d="M604 527c0 -139 -41 -218 -302 -218h-57v-208c0 -59 27 -63 96 -63v-38c-47 0 -95 3 -154 3c-58 0 -106 -3 -153 -3v38c69 0 96 4 96 63v513c0 58 -27 62 -96 62v38c47 0 95 -3 153 -3c59 0 145 3 236 3c128 0 181 -49 181 -187zM480 527c0 118 -49 146 -154 146
c-21 0 -63 -2 -81 -5v-314c16 -1 39 -2 66 -2c112 0 169 30 169 175z" />
    <glyph glyph-name="Q" unicode="Q" horiz-adv-x="779" 
d="M783 -106c-41 -19 -89 -44 -130 -70c-114 31 -228 157 -304 157c-29 0 -59 -15 -107 -68l-26 21c21 23 41 44 59 61c-50 9 -101 26 -141 59c-72 59 -100 177 -100 303s28 243 100 303c71 58 177 68 256 68c78 0 189 -2 255 -68c67 -67 101 -177 101 -303
s-29 -243 -101 -303c-36 -29 -79 -46 -124 -55c71 -43 146 -93 188 -93c18 0 38 6 61 14zM620 357c0 259 -75 330 -230 330s-231 -71 -231 -330c0 -219 55 -304 165 -325c25 16 47 25 66 25c18 0 42 -10 70 -23c108 21 160 107 160 323z" />
    <glyph glyph-name="R" unicode="R" horiz-adv-x="716" 
d="M714 0c-31 0 -64 3 -94 3c-26 0 -66 -3 -93 -3c-8 19 -32 68 -56 105l-132 200c-24 36 -31 42 -84 53l-10 2v-259c0 -59 27 -63 96 -63v-38c-47 0 -95 3 -154 3c-58 0 -106 -3 -153 -3v38c69 0 96 4 96 63v513c0 58 -27 62 -96 62v38c47 0 95 -3 153 -3c59 0 153 3 252 3
c151 0 164 -89 164 -157c0 -122 -58 -166 -175 -183l169 -257c33 -50 51 -72 117 -79v-38zM482 534c0 100 -25 139 -177 139c-16 0 -48 -2 -60 -3v-276c21 -1 35 -2 59 -2c124 0 178 47 178 142z" />
    <glyph glyph-name="S" unicode="S" horiz-adv-x="569" 
d="M535 210c0 -161 -129 -224 -265 -224c-109 0 -198 20 -240 35c-9 3 -12 7 -12 22c0 5 2 43 2 83c0 28 -2 64 -2 87h69l1 -16c8 -132 48 -169 162 -169s171 64 171 135c0 69 -35 112 -124 140l-115 36c-107 34 -148 104 -148 184c0 166 153 205 258 205
c44 0 142 -15 194 -34c13 -5 16 -9 16 -22c0 -12 -3 -47 -3 -73c0 -22 3 -65 3 -79h-66v14c0 109 -46 151 -140 151c-117 0 -153 -66 -153 -125c0 -74 45 -101 95 -117l132 -42c81 -26 165 -76 165 -191z" />
    <glyph glyph-name="T" unicode="T" horiz-adv-x="647" 
d="M640 530h-60c-15 135 -28 139 -167 139h-32v-568c0 -59 27 -63 96 -63v-38c-47 0 -95 3 -153 3c-59 0 -107 -3 -154 -3v38c69 0 96 4 96 63v568h-31c-140 0 -153 -4 -168 -139h-60c0 26 2 58 2 96c0 31 -2 64 -2 88c47 0 258 -3 317 -3c58 0 269 3 316 3
c0 -24 -2 -57 -2 -88c0 -38 2 -70 2 -96z" />
    <glyph glyph-name="U" unicode="U" horiz-adv-x="845" 
d="M812 676c-70 0 -96 -4 -97 -62l-5 -354c-3 -232 -115 -274 -297 -274c-111 0 -283 22 -283 206v422c0 58 -27 62 -96 62v38c47 0 95 -3 153 -3c59 0 107 3 154 3v-38c-69 0 -96 -4 -96 -62v-389c0 -155 66 -198 196 -198c171 0 214 91 214 192v395c0 58 -27 62 -96 62v38
c47 0 91 -3 131 -3c37 0 74 3 122 3v-38z" />
    <glyph glyph-name="V" unicode="V" horiz-adv-x="718" 
d="M716 676c-51 0 -67 -17 -92 -83l-175 -470c-18 -48 -32 -91 -41 -123c-16 0 -30 2 -50 2s-38 -2 -50 -2c-6 28 -21 73 -37 118l-176 495c-20 55 -24 63 -93 63v38c47 0 95 -3 154 -3s102 3 149 3v-38c-102 0 -104 -26 -63 -137l156 -422l151 425c43 122 19 134 -61 134
v38c47 0 80 -3 121 -3c31 0 60 3 107 3v-38z" />
    <glyph glyph-name="W" unicode="W" horiz-adv-x="1022" 
d="M1020 676c-41 -1 -69 -17 -85 -74l-144 -506c-11 -37 -21 -79 -25 -96c-16 0 -29 2 -48 2c-20 0 -30 -2 -49 -2c-2 21 -13 69 -25 113l-130 479l-136 -477c-13 -44 -25 -93 -28 -115c-16 0 -32 2 -52 2c-19 0 -31 -2 -50 -2c-2 24 -14 71 -26 116l-133 490
c-16 58 -31 68 -87 70v38c47 0 95 -3 154 -3s87 3 134 3v-38c-80 0 -99 -10 -74 -103l119 -441l133 484c10 37 21 79 24 98c19 0 33 -2 54 -2c23 0 38 2 56 2c2 -19 10 -54 24 -104l131 -483l108 426c29 114 17 123 -67 123v38c47 0 72 -3 131 -3c58 0 44 3 91 3v-38z" />
    <glyph glyph-name="X" unicode="X" horiz-adv-x="718" 
d="M716 0c-47 0 -95 3 -154 3c-58 0 -104 -3 -152 -3v38c85 3 92 20 45 90l-121 179l-85 -116c-88 -120 -89 -153 10 -153v-38c-47 0 -72 3 -130 3c-59 0 -80 -3 -127 -3v38c61 0 96 28 132 75l172 225l-190 281c-29 43 -63 57 -106 57v38c48 0 87 -3 146 -3s120 3 168 3
v-38c-70 0 -96 -18 -61 -70l115 -170l64 88c87 119 89 152 -10 152v38c48 0 72 -3 130 -3c59 0 80 3 127 3v-38c-61 0 -96 -28 -132 -75l-151 -197l198 -292c34 -51 57 -68 112 -74v-38z" />
    <glyph glyph-name="Y" unicode="Y" horiz-adv-x="710" 
d="M708 676c-69 0 -84 -29 -114 -79l-174 -284v-212c0 -59 27 -63 96 -63v-38c-47 0 -95 3 -154 3c-58 0 -107 -3 -154 -3v38c69 0 97 4 97 63v216l-193 290c-33 49 -50 67 -110 69v38c47 0 95 -3 154 -3s120 3 168 3v-38c-77 0 -102 -18 -54 -97l130 -213l120 209
c54 93 25 101 -45 101v38c48 0 74 -3 132 -3c34 0 65 3 101 3v-38z" />
    <glyph glyph-name="Z" unicode="Z" horiz-adv-x="647" 
d="M624 0c-116 0 -190 2 -313 2c-118 0 -184 -2 -303 -2v35l456 637h-199c-116 0 -124 -24 -142 -134l-2 -12h-58c0 32 2 62 2 102c0 34 -2 59 -2 86c74 0 158 -2 258 -2c115 0 194 2 293 2v-30l-456 -637h250c137 0 143 40 151 154l1 14h64c0 -39 -2 -65 -2 -106
c0 -43 2 -75 2 -109z" />
    <glyph glyph-name="bracketleft" unicode="[" horiz-adv-x="269" 
d="M236 -199c-22 0 -60 2 -95 2c-26 0 -80 -2 -96 -2c-13 0 -15 1 -14 15c3 25 3 66 3 92v699c0 27 0 67 -3 92c-1 14 1 15 14 15c16 0 70 -2 96 -2c35 0 73 2 95 2v-39h-108v-835h108v-39z" />
    <glyph glyph-name="backslash" unicode="\" horiz-adv-x="380" 
d="M347 0h-70l-243 714h69z" />
    <glyph glyph-name="bracketright" unicode="]" horiz-adv-x="269" 
d="M238 -184c1 -14 -1 -15 -14 -15c-16 0 -70 2 -96 2c-35 0 -73 -2 -94 -2v39h107v835h-107v39c21 0 59 -2 94 -2c26 0 80 2 96 2c13 0 15 -1 14 -15c-2 -25 -2 -65 -2 -92v-699c0 -26 0 -67 2 -92z" />
    <glyph glyph-name="asciicircum" unicode="^" horiz-adv-x="400" 
d="M366 556h-47l-119 103l-119 -103h-47l127 178h78z" />
    <glyph glyph-name="underscore" unicode="_" horiz-adv-x="630" 
d="M628 -136h-624v42h624v-42z" />
    <glyph glyph-name="quoteleft" unicode="&#x2018;" horiz-adv-x="208" 
d="M175 701c-47 -30 -76 -50 -84 -116c38 10 79 -12 79 -64c0 -34 -22 -75 -65 -75c-28 0 -71 22 -71 93c0 78 36 142 123 189z" />
    <glyph glyph-name="a" unicode="a" horiz-adv-x="531" 
d="M518 0c-28 0 -52 3 -111 3c-36 0 -52 -3 -80 -3v41c-40 -27 -90 -49 -143 -49c-107 0 -150 65 -150 140s33 149 182 149h111v56c0 68 -13 118 -87 118c-75 0 -83 -34 -85 -86c-1 -29 -5 -36 -42 -36h-17c-23 0 -34 9 -30 39c15 100 88 118 182 118s181 -16 181 -125v-269
c0 -58 5 -62 89 -62v-34zM327 153v90h-60c-117 0 -124 -55 -124 -104s22 -95 84 -95c57 0 100 25 100 109z" />
    <glyph glyph-name="b" unicode="b" horiz-adv-x="607" 
d="M574 247c0 -136 -54 -255 -208 -255c-46 0 -89 11 -138 38l-91 -38c-16 -7 -20 -4 -20 11c0 18 6 40 6 123v544c0 59 -5 63 -89 63v33h25c67 0 148 3 155 4c12 1 14 -1 13 -15c-2 -25 -2 -66 -2 -92v-225c54 37 101 52 153 52c157 0 196 -107 196 -243zM461 237
c0 147 -30 211 -119 211c-54 0 -117 -20 -117 -195v-46c0 -135 51 -176 114 -176c101 0 122 83 122 206z" />
    <glyph glyph-name="c" unicode="c" horiz-adv-x="488" 
d="M454 35c-57 -31 -139 -43 -182 -43s-84 4 -121 16c-115 38 -117 179 -117 233c0 53 2 194 117 232c37 12 78 17 121 17c87 0 138 -16 172 -36c7 -4 8 -7 8 -20c0 -7 -2 -25 -2 -44c0 -16 2 -40 2 -50h-57c2 92 -45 117 -111 117c-118 0 -136 -102 -136 -216
s18 -211 135 -211c96 0 110 55 114 129h57c0 -28 -2 -38 -2 -56c0 -27 2 -50 2 -68z" />
    <glyph glyph-name="d" unicode="d" horiz-adv-x="617" 
d="M583 0c-18 0 -48 3 -107 3c-33 0 -60 -3 -84 -3v64c-29 -30 -87 -72 -161 -72c-68 0 -197 33 -197 239c0 134 32 259 210 259c63 0 104 -14 148 -52v232c0 59 -5 63 -89 63v33h25c67 0 148 3 155 4c12 1 14 -1 13 -15c-2 -25 -2 -66 -2 -92v-567c0 -58 4 -62 89 -62v-34z
M392 198v62c0 116 -22 191 -127 191c-65 0 -115 -46 -115 -206c0 -142 33 -205 113 -205c75 0 129 41 129 158z" />
    <glyph glyph-name="e" unicode="e" horiz-adv-x="492" 
d="M459 273c0 -22 0 -19 -1 -30h-311v-2c0 -114 9 -209 115 -209c76 0 104 45 113 113c1 10 4 12 12 12h43c21 0 24 -6 22 -16c-13 -68 -52 -149 -208 -149c-22 0 -56 4 -93 16c-115 38 -117 179 -117 233c0 50 3 160 79 216c32 23 78 33 134 33c175 0 212 -85 212 -217z
M350 280c6 85 -10 174 -100 174c-88 0 -101 -77 -103 -174h203z" />
    <glyph glyph-name="f" unicode="f" horiz-adv-x="342" 
d="M403 681c0 -31 -10 -47 -33 -47h-22c-21 0 -34 10 -34 42c0 39 -15 62 -48 62c-43 0 -59 -33 -59 -98v-157h125v-40h-125v-347c0 -58 5 -62 89 -62h19v-34c-72 0 -100 3 -159 3s-93 -3 -140 -3v34c85 0 89 4 89 62v347h-82v40h82v105c0 99 37 185 180 185
c70 0 118 -28 118 -92z" />
    <glyph glyph-name="g" unicode="g" horiz-adv-x="490" 
d="M477 437h-90c35 -33 47 -77 47 -109c0 -63 -43 -163 -200 -163c-44 0 -79 8 -107 20c-7 -15 -12 -34 -12 -46c0 -32 33 -44 70 -44h140c75 0 149 -20 149 -118c0 -141 -135 -196 -242 -196c-187 0 -219 77 -219 130c0 46 28 82 78 101c-8 17 -15 59 -15 84
c0 39 9 76 21 106c-48 36 -63 88 -63 126c0 63 42 162 200 162c41 0 75 -7 102 -19l141 16v-50zM331 328c0 109 -54 124 -97 124c-44 0 -98 -15 -98 -124s54 -125 98 -125c43 0 97 16 97 125zM395 -69c0 34 -13 74 -118 74h-152c-26 -24 -42 -54 -42 -82
c0 -35 24 -105 148 -105c89 0 164 37 164 113z" />
    <glyph glyph-name="h" unicode="h" horiz-adv-x="662" 
d="M628 0c-47 0 -81 3 -140 3s-93 -3 -140 -3v34c84 0 89 4 89 62v218c0 59 -16 121 -94 121c-63 0 -118 -33 -118 -105v-234c0 -58 4 -62 89 -62v-34c-47 0 -82 3 -140 3c-59 0 -93 -3 -140 -3v34c84 0 89 4 89 62v574c0 59 -5 63 -89 63v33h25c67 0 148 3 155 4
c12 1 14 -1 13 -15c-2 -25 -2 -66 -2 -92v-233c45 39 104 60 166 60c130 0 148 -75 148 -141v-253c0 -58 4 -62 89 -62v-34z" />
    <glyph glyph-name="i" unicode="i" horiz-adv-x="348" 
d="M232 659c0 -43 -28 -72 -62 -72c-35 0 -63 29 -63 72s28 71 63 71c34 0 62 -28 62 -71zM314 0c-47 0 -82 3 -140 3c-59 0 -93 -3 -140 -3v34c84 0 89 4 89 62v291c0 59 -5 63 -89 63v34h25c67 0 148 2 155 3c12 1 14 -1 13 -15c-2 -25 -2 -66 -2 -92v-284
c0 -58 4 -62 89 -62v-34z" />
    <glyph glyph-name="j" unicode="j" horiz-adv-x="348" 
d="M232 659c0 -43 -28 -72 -62 -72c-35 0 -63 29 -63 72s28 71 63 71c34 0 62 -28 62 -71zM227 472c-2 -25 -2 -66 -2 -92v-337c0 -103 -29 -246 -208 -262v24c100 40 106 110 106 192v390c0 59 -5 63 -89 63v34h25c67 0 148 2 155 3c12 1 14 -1 13 -15z" />
    <glyph glyph-name="k" unicode="k" horiz-adv-x="612" 
d="M599 0c-24 0 -51 3 -75 3c-53 0 -69 -3 -95 -3c-34 48 -68 90 -109 138l-95 111v-153c0 -58 4 -62 89 -62v-34c-47 0 -82 3 -140 3c-59 0 -93 -3 -140 -3v34c84 0 89 4 89 62v574c0 59 -5 63 -89 63v33h25c67 0 148 3 155 4c12 1 14 -1 13 -15c-2 -25 -2 -66 -2 -92v-389
l90 87c39 38 61 99 55 120l3 2c24 0 51 -3 80 -3c26 0 62 3 107 3v-34c-80 0 -98 -1 -154 -56l-92 -90l180 -205c48 -55 54 -56 105 -64v-34z" />
    <glyph glyph-name="l" unicode="l" horiz-adv-x="348" 
d="M314 0c-47 0 -82 3 -140 3c-59 0 -93 -3 -140 -3v34c84 0 89 4 89 62v574c0 59 -5 63 -89 63v33h25c67 0 148 3 155 4c12 1 14 -1 13 -15c-2 -25 -2 -66 -2 -92v-567c0 -58 4 -62 89 -62v-34z" />
    <glyph glyph-name="m" unicode="m" horiz-adv-x="949" 
d="M915 0c-47 0 -81 3 -140 3s-85 -3 -132 -3v34c74 1 81 4 81 62v243c0 59 -28 92 -89 92c-63 0 -109 -37 -109 -107v-228c0 -58 6 -61 80 -62v-34c-47 0 -73 3 -132 3c-58 0 -84 -3 -132 -3v34c75 1 81 4 81 62v218c0 59 -10 118 -88 118c-64 0 -110 -32 -110 -108v-228
c0 -58 6 -61 81 -62v-34c-47 0 -74 3 -132 3c-59 0 -93 -3 -140 -3v34c84 0 89 4 89 62v291c0 59 -5 63 -89 63v34h25c67 0 148 2 155 3c12 1 14 -1 13 -15c-1 -11 -1 -33 -2 -49c46 45 104 67 166 67c78 0 112 -32 125 -73c46 49 106 73 166 73c68 0 144 -29 144 -120v-274
c0 -58 4 -62 89 -62v-34z" />
    <glyph glyph-name="n" unicode="n" horiz-adv-x="662" 
d="M628 0c-47 0 -81 3 -140 3s-93 -3 -140 -3v34c84 0 89 4 89 62v218c0 59 -16 121 -94 121c-63 0 -118 -33 -118 -105v-234c0 -58 6 -61 81 -62v-34c-47 0 -74 3 -132 3c-59 0 -93 -3 -140 -3v34c84 0 89 4 89 62v291c0 59 -5 63 -89 63v34h25c67 0 148 2 155 3
c12 1 14 -1 13 -15c-1 -11 -1 -26 -2 -42c45 39 104 60 166 60c130 0 148 -75 148 -141v-253c0 -58 4 -62 89 -62v-34z" />
    <glyph glyph-name="o" unicode="o" horiz-adv-x="545" 
d="M511 241c0 -54 -2 -195 -117 -233c-38 -12 -79 -16 -122 -16s-84 4 -121 16c-115 38 -117 179 -117 233c0 53 2 194 117 232c37 12 78 17 121 17s84 -5 122 -17c115 -38 117 -179 117 -232zM397 241c0 114 -12 213 -125 213s-124 -99 -124 -213s11 -214 124 -214
s125 100 125 214z" />
    <glyph glyph-name="p" unicode="p" horiz-adv-x="613" 
d="M579 254c0 -204 -92 -262 -210 -262c-58 0 -101 14 -144 52v-162c0 -59 4 -63 89 -63v-34c-47 0 -82 3 -140 3c-59 0 -93 -3 -140 -3v34c84 0 89 4 89 63v505c0 59 -5 63 -89 63v34h25c67 0 148 2 155 3c12 1 14 -1 13 -15c-1 -12 -1 -27 -2 -44c52 45 103 62 157 62
c95 0 197 -39 197 -236zM465 244c0 121 -31 199 -129 199c-92 0 -111 -75 -111 -148v-107c0 -94 37 -151 123 -151c93 0 117 86 117 207z" />
    <glyph glyph-name="q" unicode="q" horiz-adv-x="603" 
d="M570 -213c-47 0 -82 4 -141 4c-58 0 -93 -4 -140 -4v34c85 0 89 4 89 63v159c-43 -33 -97 -51 -152 -51c-114 0 -192 76 -192 233s49 265 211 265c52 0 88 -13 132 -38l83 34c16 6 21 5 21 -11v-591c0 -59 4 -63 89 -63v-34zM378 202v103c0 118 -59 143 -119 143
c-101 0 -111 -107 -111 -238c0 -107 27 -178 112 -178c76 0 118 39 118 170z" />
    <glyph glyph-name="r" unicode="r" horiz-adv-x="406" 
d="M425 394c0 -37 -15 -49 -41 -49h-16c-21 0 -34 8 -34 40c0 36 -25 47 -44 47c-30 0 -65 -30 -65 -102v-234c0 -58 4 -62 89 -62h10v-34c-48 0 -92 3 -150 3c-59 0 -93 -3 -140 -3v34c84 0 89 4 89 62v291c0 59 -5 63 -89 63v34h25c67 0 144 2 150 3c13 1 15 -1 14 -15
c-1 -11 -1 -26 -2 -42c43 47 70 60 103 60c64 0 101 -32 101 -96z" />
    <glyph glyph-name="s" unicode="s" horiz-adv-x="435" 
d="M401 146c0 -130 -136 -160 -197 -160c-47 0 -132 16 -170 28c0 26 2 43 2 71c0 24 -2 39 -2 64h59v-4c0 -60 9 -119 97 -119c87 0 113 46 113 89c0 61 -60 73 -128 84c-67 10 -133 48 -133 142c0 93 72 149 188 149c40 0 89 -7 133 -18c10 -3 13 -6 13 -15
c0 -16 -2 -37 -2 -53c0 -27 2 -45 2 -64h-58c0 75 -22 111 -87 111s-94 -32 -94 -80c0 -52 51 -76 108 -84c71 -11 156 -42 156 -141z" />
    <glyph glyph-name="t" unicode="t" horiz-adv-x="323" 
d="M320 22c-25 -12 -77 -30 -130 -30c-87 0 -108 52 -108 126v325h-78v40h78v130c0 7 0 14 7 16c14 5 65 24 82 33c14 7 16 4 15 -13c-2 -25 -2 -66 -2 -92v-74h110v-40h-110v-307c0 -67 34 -97 75 -97c15 0 39 6 53 12z" />
    <glyph glyph-name="u" unicode="u" horiz-adv-x="658" 
d="M624 0c-47 0 -64 3 -97 3c-44 0 -76 -3 -95 -3v58c-26 -23 -91 -66 -166 -66c-117 0 -143 73 -143 142v252c0 59 -5 63 -89 63v34h25c67 0 148 2 155 3c12 1 14 -1 13 -15c-2 -25 -2 -66 -2 -92v-195c0 -109 36 -134 94 -134c69 0 113 40 113 108v228c0 59 -4 63 -89 63
v34h26c67 0 148 2 155 3c12 1 14 -1 13 -15c-2 -25 -2 -66 -2 -92v-283c0 -58 4 -62 89 -62v-34z" />
    <glyph glyph-name="v" unicode="v" horiz-adv-x="552" 
d="M550 449c-46 -4 -65 -17 -87 -73l-145 -376c-10 0 -25 2 -42 2c-16 0 -30 -2 -44 -2l-143 384c-21 56 -39 59 -87 65v34c47 0 82 -3 140 -3c59 0 75 3 122 3v-34c-68 0 -83 -15 -61 -73l108 -290l95 279c29 85 -2 84 -54 84v34c47 0 18 -3 76 -3c59 0 75 3 122 3v-34z
" />
    <glyph glyph-name="w" unicode="w" horiz-adv-x="837" 
d="M835 449c-53 -4 -67 -6 -86 -63l-132 -386c-12 0 -24 2 -40 2c-17 0 -36 -2 -43 -2l-117 377l-124 -377c-12 0 -25 2 -42 2c-15 0 -28 -2 -41 -2l-123 380c-19 57 -38 69 -85 69v34c47 0 71 -3 126 -3c50 0 82 3 130 3v-34c-72 0 -75 -27 -57 -86l82 -264l126 384
c10 0 26 -2 42 -2c17 0 32 2 44 2l119 -384l78 280c16 57 3 70 -58 70v34c27 0 77 -3 105 -3c38 0 70 3 96 3v-34z" />
    <glyph glyph-name="x" unicode="x" horiz-adv-x="558" 
d="M556 0c-30 0 -70 3 -105 3s-81 -3 -109 -3v34c19 0 29 6 11 30l-93 127l-97 -128c-16 -21 -8 -29 11 -29v-34c-27 0 -55 3 -90 3c-26 0 -52 -3 -82 -3v34c65 5 82 9 122 57l111 133l-129 174c-30 40 -54 52 -94 51v34c47 0 60 -3 119 -3c29 0 61 3 101 3v-34
c-22 0 -22 -10 -10 -26l81 -109l79 106c14 19 10 29 -14 29v34c27 0 56 -3 92 -3c26 0 51 3 81 3v-34c-72 0 -80 -9 -121 -57l-93 -111l137 -185c37 -49 48 -56 92 -62v-34z" />
    <glyph glyph-name="y" unicode="y" horiz-adv-x="547" 
d="M545 449c-46 -3 -67 -13 -88 -70l-133 -358c-74 -199 -150 -235 -216 -235c-58 0 -83 27 -83 54c0 23 15 51 43 51c42 0 44 -44 85 -44c17 0 74 14 112 134l6 19h-37l-143 384c-20 54 -55 65 -89 65v34c47 0 69 -3 128 -3c58 0 84 3 131 3v-34c-63 0 -84 -14 -60 -75
l111 -284l91 282c24 74 -2 77 -56 77v34c47 0 21 -3 79 -3c59 0 71 3 119 3v-34z" />
    <glyph glyph-name="z" unicode="z" horiz-adv-x="494" 
d="M471 0c-84 0 -132 2 -216 2c-93 0 -146 -2 -239 -2v37l310 406h-125c-68 0 -89 -16 -97 -65l-7 -43h-52c0 29 2 47 2 77c0 28 -2 42 -2 71c85 0 132 -2 217 -2c81 0 151 2 209 2v-32l-312 -409h108c121 0 137 25 148 113h56c0 -27 -2 -47 -2 -76c0 -31 0 -49 2 -79z" />
    <glyph glyph-name="braceleft" unicode="{" horiz-adv-x="477" 
d="M443 -252c-178 0 -244 83 -244 172v119c0 123 -56 151 -165 164v57c109 12 165 39 165 164v117c0 89 66 173 244 173v-37c-113 -18 -155 -56 -155 -136v-116c0 -144 -78 -171 -208 -194c130 -23 208 -50 208 -193v-118c0 -79 42 -117 155 -136v-36z" />
    <glyph glyph-name="bar" unicode="|" horiz-adv-x="109" 
d="M75 -163h-41v877h41v-877z" />
    <glyph glyph-name="braceright" unicode="}" horiz-adv-x="477" 
d="M444 203c-111 -13 -165 -41 -165 -164v-119c0 -89 -67 -172 -245 -172v36c113 19 154 57 154 136v118c0 143 79 170 209 193c-130 23 -209 50 -209 194v116c0 80 -41 118 -154 136v37c178 0 245 -84 245 -173v-117c0 -125 54 -152 165 -164v-57z" />
    <glyph glyph-name="asciitilde" unicode="~" horiz-adv-x="429" 
d="M396 680c-17 -83 -66 -124 -119 -124c-52 0 -105 51 -150 51c-33 0 -44 -22 -57 -49h-36c15 88 67 123 119 123s96 -51 150 -51c32 0 45 19 56 50h37z" />
    <glyph glyph-name="exclamdown" unicode="&#xa1;" horiz-adv-x="193" 
d="M158 416c0 -39 -17 -75 -62 -75s-61 36 -61 75c0 38 16 74 61 74s62 -36 62 -74zM158 -156c4 -45 -2 -95 -62 -95c-59 0 -65 50 -61 95l35 397l26 31l27 -31z" />
    <glyph glyph-name="cent" unicode="&#xa2;" horiz-adv-x="488" 
d="M454 129c-57 -31 -139 -43 -182 -43c-17 0 -33 1 -50 2l-36 -118h-37l37 123c-12 2 -24 5 -35 10c-115 37 -117 179 -117 232s2 195 117 233c37 12 78 16 121 16c23 0 43 -1 61 -3l28 93h38l-30 -98c32 -6 56 -17 75 -27c7 -4 8 -8 8 -21c0 -7 -2 -24 -2 -44
c0 -16 2 -40 2 -49h-57c1 52 -14 82 -39 99l-120 -403c13 -4 29 -6 47 -6c96 0 110 54 114 128h57c0 -28 -2 -37 -2 -56c0 -26 2 -49 2 -68zM323 548c-12 2 -26 3 -39 3c-118 0 -136 -102 -136 -216c0 -80 9 -152 54 -186z" />
    <glyph glyph-name="sterling" unicode="&#xa3;" horiz-adv-x="609" 
d="M576 13c-29 -15 -58 -21 -89 -21c-128 0 -222 57 -334 54c-40 -40 -71 -55 -88 -55c-19 0 -31 11 -31 28c0 23 23 46 48 52c13 3 31 6 53 10c26 55 43 116 43 204v31h-115v46h115c5 162 56 331 242 331c89 0 153 -42 153 -129c0 -33 -9 -43 -33 -43h-33
c-20 0 -27 13 -27 30v26c0 55 -35 78 -75 78c-93 0 -112 -147 -112 -256v-37h176v-46h-177c-3 -95 -28 -143 -101 -228c31 3 64 5 93 5c68 0 137 -6 184 -6c56 0 64 10 73 85h35c0 -23 -2 -54 -2 -80c0 -27 2 -58 2 -79z" />
    <glyph glyph-name="fraction" unicode="&#x2044;" horiz-adv-x="710" 
d="M578 844c0 -37 -31 -67 -68 -67s-68 30 -68 67s31 68 68 68s68 -31 68 -68zM352 844c0 -37 -32 -67 -68 -67c-37 0 -68 30 -68 67s31 68 68 68c36 0 68 -31 68 -68zM708 676c-69 0 -84 -29 -114 -79l-174 -284v-212c0 -59 27 -63 96 -63v-38c-47 0 -95 3 -154 3
c-58 0 -107 -3 -154 -3v38c69 0 97 4 97 63v216l-193 290c-33 49 -50 67 -110 69v38c47 0 95 -3 154 -3s120 3 168 3v-38c-77 0 -102 -18 -54 -97l130 -213l120 209c54 93 25 101 -45 101v38c48 0 74 -3 132 -3c34 0 65 3 101 3v-38z" />
    <glyph glyph-name="florin" unicode="&#x192;" horiz-adv-x="665" 
d="M631 629c0 -33 -14 -45 -32 -45h-29c-61 0 -1 106 -69 106c-31 0 -52 -26 -62 -93l-30 -199h114v-43h-120l-46 -313c-25 -170 -97 -218 -197 -218c-99 0 -126 45 -126 102c0 33 18 40 40 40h23c21 0 30 -9 30 -45c0 -47 11 -60 38 -60c23 0 50 19 64 111l57 383h-109v43
h115l21 140c16 105 66 190 199 190c103 0 119 -61 119 -99z" />
    <glyph glyph-name="section" unicode="&#xa7;" horiz-adv-x="521" 
d="M488 255c0 -61 -34 -94 -84 -129c25 -31 42 -71 42 -119c0 -94 -72 -162 -188 -162c-144 0 -175 61 -188 132c-5 31 7 41 26 41h36c14 0 22 -4 24 -26c5 -58 24 -116 103 -116c78 0 105 62 105 106s-18 80 -69 109l-168 95c-54 31 -93 59 -93 126c0 54 13 92 92 136
c-31 32 -50 73 -50 123c0 72 51 157 187 157c111 0 179 -35 179 -120c0 -28 -7 -39 -23 -39h-40c-16 0 -23 6 -23 24c0 70 -37 104 -93 104c-57 0 -101 -38 -101 -101c0 -60 30 -89 90 -122l142 -79c54 -30 94 -58 94 -140zM424 220c0 37 -20 62 -78 94l-171 96l-22 15
c-35 -20 -50 -45 -50 -67c0 -24 9 -56 84 -98l170 -96c7 -4 15 -9 22 -14c34 27 45 45 45 70z" />
    <glyph glyph-name="currency" unicode="&#xa4;" horiz-adv-x="323" 
d="M289 363c-42 0 -88 2 -141 2c-45 0 -85 -2 -114 -2v49l53 49c62 58 127 126 127 183c0 28 -13 65 -53 65s-59 -28 -59 -62c0 -27 -3 -29 -17 -29h-25c-12 0 -16 1 -16 28c0 47 38 82 113 82c101 0 129 -40 129 -87c0 -48 -34 -78 -101 -135l-103 -88h102c74 0 77 9 80 30
l3 22h22c-1 -25 -1 -82 0 -107z" />
    <glyph glyph-name="quotesingle" unicode="'" horiz-adv-x="151" 
d="M114 651l-29 -160h-19l-29 160c-10 54 7 77 38 77c32 0 49 -23 39 -77z" />
    <glyph glyph-name="quotedblleft" unicode="&#x201c;" horiz-adv-x="416" 
d="M382 701c-47 -30 -75 -50 -84 -116c38 10 79 -12 79 -64c0 -34 -22 -75 -65 -75c-27 0 -71 22 -71 93c0 78 36 142 123 189zM175 701c-47 -30 -76 -50 -84 -116c38 10 79 -12 79 -64c0 -34 -22 -75 -65 -75c-28 0 -71 22 -71 93c0 78 36 142 123 189z" />
    <glyph glyph-name="guillemotleft" unicode="&#xab;" horiz-adv-x="468" 
d="M435 37h-43l-172 189v36l172 189h43l-133 -207zM248 37h-43l-171 189v36l171 189h43l-133 -207z" />
    <glyph glyph-name="guilsinglleft" unicode="&#x2039;" horiz-adv-x="282" 
d="M248 37h-43l-171 189v36l171 189h43l-133 -207z" />
    <glyph glyph-name="guilsinglright" unicode="&#x203a;" horiz-adv-x="282" 
d="M248 226l-172 -189h-42l132 207l-132 207h42l172 -189v-36z" />
    <glyph glyph-name="fi" unicode="&#xfb01;" horiz-adv-x="651" 
d="M536 659c0 -43 -28 -72 -63 -72c-34 0 -63 29 -63 72s29 71 63 71c35 0 63 -28 63 -71zM618 0c-47 0 -82 3 -141 3c-58 0 -93 -3 -140 -3v34c85 0 89 4 89 62v285c0 59 -4 62 -89 62h-112v-347c0 -58 4 -62 89 -62v-34c-47 0 -82 3 -140 3c-59 0 -93 -3 -140 -3v34
c84 0 89 4 89 62v347h-82v40h82v90c0 138 59 200 174 200c57 0 105 -27 105 -91c0 -31 -15 -42 -27 -42h-22c-19 0 -28 10 -28 39c0 38 -14 59 -41 59c-43 0 -59 -33 -59 -98v-157h137c67 0 149 3 155 4c13 1 15 -1 14 -15c-2 -25 -2 -66 -2 -92v-284c0 -58 4 -62 89 -62
v-34z" />
    <glyph glyph-name="fl" unicode="&#xfb02;" horiz-adv-x="661" 
d="M627 0c-47 0 -81 3 -140 3s-93 -3 -140 -3v34c84 0 89 4 89 62v550c0 46 -4 59 -46 62v-1c0 -46 -20 -62 -43 -62c-24 0 -30 25 -30 53c0 26 -12 40 -35 40c-32 0 -57 -33 -57 -98v-157h125v-40h-125v-347c0 -58 4 -62 89 -62v-34c-47 0 -82 3 -140 3
c-59 0 -93 -3 -140 -3v34c84 0 89 4 89 62v347h-82v40h82v103c0 125 59 187 174 187c24 0 53 -11 71 -27l159 24c8 1 14 -1 13 -15c-2 -25 -2 -66 -2 -92v-567c0 -58 4 -62 89 -62v-34z" />
    <glyph glyph-name="endash" unicode="&#x2013;" horiz-adv-x="826" 
d="M793 194h-759v85h759v-85z" />
    <glyph glyph-name="dagger" unicode="&#x2020;" horiz-adv-x="559" 
d="M526 409l-9 -13c-29 12 -75 17 -140 17h-48c1 -179 7 -364 20 -398l-14 -16l-55 32l-56 -32l-14 16c13 34 19 219 20 398h-48c-65 0 -111 -5 -140 -17l-8 13l25 41l-25 41l8 14c29 -13 75 -17 140 -17h48v40c0 80 -2 123 -16 177l12 10l54 -27l53 27l13 -10
c-15 -54 -17 -97 -17 -177v-40h48c65 0 111 4 140 17l9 -14l-25 -41z" />
    <glyph glyph-name="daggerdbl" unicode="&#x2021;" horiz-adv-x="559" 
d="M526 177l-9 -14c-29 13 -75 17 -140 17h-48c0 -75 2 -118 17 -170l-13 -10l-53 27l-54 -27l-12 10c14 52 16 95 16 170h-48c-65 0 -111 -4 -140 -17l-8 14l25 41l-25 41l8 13c29 -12 75 -17 140 -17h48v216h-48c-65 0 -111 -4 -140 -17l-8 14l25 41l-25 41l8 13
c29 -12 75 -16 140 -16h48c0 77 -2 119 -16 171l12 11l54 -27l53 27l13 -11c-15 -52 -17 -94 -17 -171h48c65 0 111 4 140 16l9 -13l-25 -41l25 -41l-9 -14c-29 13 -75 17 -140 17h-48v-216h48c65 0 111 5 140 17l9 -13l-25 -41z" />
    <glyph glyph-name="periodcentered" unicode="&#xb7;" horiz-adv-x="341" 
d="M308 -113c1 -52 -41 -90 -131 -90c-48 0 -103 10 -143 30l23 32c31 -17 66 -25 92 -25c35 0 55 14 55 43c0 31 -22 38 -40 38c-11 0 -23 -2 -35 -4l-12 6l44 104h38l-27 -68c15 3 31 5 47 5c63 0 88 -33 89 -71z" />
    <glyph glyph-name="bullet" unicode="&#x2022;" horiz-adv-x="199" 
d="M165 334c0 -37 -29 -66 -66 -66c-36 0 -65 29 -65 66s29 66 65 66c37 0 66 -29 66 -66z" />
    <glyph glyph-name="quotesinglbase" unicode="&#x201a;" horiz-adv-x="203" 
d="M170 48c0 -77 -37 -141 -124 -188l-18 27c47 29 76 49 84 115c-38 -9 -78 13 -78 64c0 35 21 75 64 75c28 0 72 -22 72 -93z" />
    <glyph glyph-name="quotedblbase" unicode="&#x201e;" horiz-adv-x="410" 
d="M377 48c0 -77 -37 -141 -124 -188l-17 27c47 29 75 49 83 115c-37 -9 -78 13 -78 64c0 35 22 75 65 75c27 0 71 -22 71 -93zM170 48c0 -77 -37 -141 -124 -188l-18 27c47 29 76 49 84 115c-38 -9 -78 13 -78 64c0 35 21 75 64 75c28 0 72 -22 72 -93z" />
    <glyph glyph-name="quotedblright" unicode="&#x201d;" horiz-adv-x="416" 
d="M382 635c0 -78 -36 -142 -123 -189l-18 27c47 30 75 50 84 115c-38 -9 -79 13 -79 64c0 35 22 76 65 76c27 0 71 -22 71 -93zM175 635c0 -78 -37 -142 -124 -189l-17 27c47 30 75 50 83 115c-37 -9 -78 13 -78 64c0 35 22 76 65 76c27 0 71 -22 71 -93z" />
    <glyph glyph-name="guillemotright" unicode="&#xbb;" horiz-adv-x="468" 
d="M435 226l-172 -189h-43l133 207l-133 207h43l172 -189v-36zM248 226l-172 -189h-42l132 207l-132 207h42l172 -189v-36z" />
    <glyph glyph-name="perthousand" unicode="&#x2030;" horiz-adv-x="1071" 
d="M339 548c0 -94 -54 -167 -153 -167c-98 0 -152 73 -152 167c0 93 54 166 152 166c99 0 153 -73 153 -166zM591 740l-416 -762h-50l415 762h51zM1038 166c0 -93 -55 -166 -153 -166c-99 0 -153 73 -153 166c0 94 54 167 153 167c98 0 153 -73 153 -167zM686 166
c0 -93 -55 -166 -153 -166s-153 73 -153 166c0 94 55 167 153 167s153 -73 153 -167zM254 548c0 77 -11 138 -68 138c-56 0 -68 -61 -68 -138c0 -78 12 -139 68 -139c57 0 68 61 68 139zM953 166c0 78 -12 139 -68 139c-57 0 -68 -61 -68 -139c0 -77 11 -138 68 -138
c56 0 68 61 68 138zM601 166c0 78 -11 139 -68 139s-68 -61 -68 -139c0 -77 11 -138 68 -138s68 61 68 138z" />
    <glyph glyph-name="questiondown" unicode="&#xbf;" horiz-adv-x="443" 
d="M298 416c0 -39 -16 -75 -61 -75s-62 36 -62 75c0 38 17 74 62 74s61 -36 61 -74zM409 -109c0 -22 -5 -142 -183 -142c-89 0 -192 27 -192 147c0 54 27 128 147 142l31 202l27 32l25 -32l19 -225c-127 13 -138 -69 -138 -125c0 -55 19 -106 85 -106c59 0 81 38 81 89
c0 43 15 57 36 57h30c22 0 32 -17 32 -39z" />
    <glyph glyph-name="grave" unicode="`" horiz-adv-x="311" 
d="M277 556h-52l-153 94c-33 20 -54 47 -24 78c37 37 85 -14 123 -55z" />
    <glyph glyph-name="acute" unicode="&#xb4;" horiz-adv-x="311" 
d="M263 727c16 -19 20 -49 -34 -82l-146 -89h-49l113 126c59 66 93 72 116 45z" />
    <glyph glyph-name="circumflex" unicode="&#x2c6;" horiz-adv-x="400" 
d="M366 777h-47l-119 103l-119 -103h-47l127 178h78z" />
    <glyph glyph-name="tilde" unicode="&#x2dc;" horiz-adv-x="429" 
d="M396 901c-17 -83 -66 -124 -119 -124c-52 0 -105 51 -150 51c-33 0 -44 -22 -57 -49h-36c15 88 67 123 119 123s96 -51 150 -51c32 0 45 19 56 50h37z" />
    <glyph glyph-name="macron" unicode="&#xaf;" horiz-adv-x="361" 
d="M328 622v-66h-294v0v66h294z" />
    <glyph glyph-name="breve" unicode="&#x2d8;" horiz-adv-x="371" 
d="M337 723c-11 -146 -100 -167 -152 -167c-51 0 -140 21 -151 167h38c15 -77 62 -95 113 -95c52 0 99 18 113 95h39z" />
    <glyph glyph-name="dieresis" unicode="&#xa8;" horiz-adv-x="429" 
d="M396 623c0 -37 -32 -67 -68 -67c-37 0 -68 30 -68 67s31 68 68 68c36 0 68 -31 68 -68zM170 623c0 -38 -31 -67 -68 -67c-38 0 -68 29 -68 67s30 68 68 68c37 0 68 -30 68 -68z" />
    <glyph glyph-name="ring" unicode="&#x2da;" horiz-adv-x="285" 
d="M251 664c0 -60 -49 -108 -109 -108c-59 0 -108 48 -108 108s49 109 108 109c60 0 109 -49 109 -109zM203 664c0 33 -27 61 -61 61c-33 0 -60 -28 -60 -61c0 -34 27 -61 60 -61c34 0 61 27 61 61z" />
    <glyph glyph-name="emdash" unicode="&#x2014;" horiz-adv-x="1006" 
d="M973 194h-939v85h939v-85z" />
    <glyph glyph-name="AE" unicode="&#xc6;" horiz-adv-x="1005" 
d="M972 0c-47 0 -357 3 -416 3s-107 -3 -154 -3v38c69 0 96 4 96 63v166h-237l-12 -19c-56 -88 -80 -138 -80 -169c0 -33 31 -41 85 -41v-38c-47 0 -77 3 -136 3c-58 0 -69 -3 -116 -3v38c37 3 65 13 94 60l353 571c-24 6 -54 7 -86 7v38c47 0 134 -3 193 -3s359 3 406 3
c0 -25 -2 -67 -2 -83c0 -19 2 -72 2 -92h-55l-6 26c-23 98 -35 105 -119 105h-168v-277h75c73 0 90 24 91 106h50c0 -47 -3 -91 -3 -123c0 -34 3 -77 3 -124h-50c-8 80 -27 103 -77 103h-89v-309c25 -1 62 -3 114 -3c144 0 148 3 171 113l10 47h63c0 -26 -2 -61 -2 -99
c0 -41 2 -84 2 -104zM498 311v347l-211 -347h211z" />
    <glyph glyph-name="Oslash" unicode="&#xd8;" horiz-adv-x="779" 
d="M752 707l-78 -82c49 -67 72 -162 72 -268c0 -126 -29 -243 -101 -303c-71 -58 -177 -68 -255 -68c-79 0 -185 10 -256 68l-72 -75l-30 30l72 76c-51 65 -70 165 -70 272c0 126 28 243 100 303c71 58 177 68 256 68c78 0 189 -2 255 -68l2 -2l76 79zM581 588
c-36 74 -99 99 -191 99c-155 0 -231 -71 -231 -330c0 -81 7 -142 22 -191zM620 357c0 80 -7 140 -21 189l-400 -422c37 -73 99 -97 191 -97c155 0 230 71 230 330z" />
    <glyph glyph-name="OE" unicode="&#x152;" horiz-adv-x="1015" 
d="M981 0c-47 0 -215 3 -273 3c-59 0 -132 -3 -179 -3c3 18 4 38 5 66c-47 -53 -111 -80 -189 -80c-79 0 -150 14 -217 69c-73 60 -94 176 -94 302s21 242 94 302c67 55 138 69 217 69c77 0 142 -26 188 -79c0 25 -2 52 -4 65c16 0 123 -3 181 -3c59 0 215 3 262 3
c0 -25 -2 -67 -2 -83c0 -19 2 -72 2 -92h-56l-6 26c-23 98 -35 105 -118 105h-143v-277h65c73 0 90 24 91 106h50c0 -47 -3 -91 -3 -123c0 -34 3 -77 3 -124h-50c-8 80 -27 103 -77 103h-79v-309c25 -1 59 -3 88 -3c145 0 151 3 172 113l9 47h63c0 -26 -2 -61 -2 -99
c0 -41 2 -84 2 -104zM529 242v230c0 137 -64 213 -184 213c-155 0 -186 -153 -186 -328s31 -328 186 -328c120 0 184 76 184 213z" />
    <glyph glyph-name="ordmasculine" unicode="&#xba;" horiz-adv-x="346" 
d="M312 542c0 -149 -48 -184 -139 -184s-139 35 -139 184c0 151 48 186 139 186s139 -35 139 -186zM242 542c0 124 -2 165 -69 165s-69 -41 -69 -165c0 -122 2 -164 69 -164s69 42 69 164z" />
    <glyph glyph-name="ae" unicode="&#xe6;" horiz-adv-x="777" 
d="M743 273c0 -22 0 -19 -1 -30h-311v-2c0 -114 10 -209 116 -209c76 0 104 45 113 113c1 10 4 12 12 12h43c21 0 24 -6 22 -16c-13 -68 -52 -149 -208 -149c-22 0 -56 4 -93 16c-42 14 -67 40 -85 72c-64 -82 -120 -88 -167 -88c-107 0 -150 65 -150 140s33 149 182 149
h111v56c0 68 -13 118 -87 118c-75 0 -83 -34 -85 -86c-1 -29 -5 -36 -42 -36h-17c-23 0 -34 9 -30 39c15 100 88 118 182 118c58 0 112 -17 146 -47c42 29 96 47 138 47c175 0 211 -85 211 -217zM635 281c6 85 -10 173 -100 173c-83 0 -100 -64 -104 -173h204zM327 191v52
h-60c-117 0 -124 -55 -124 -104s22 -95 84 -95c57 0 100 38 100 147z" />
    <glyph glyph-name="dotlessi" unicode="&#x131;" horiz-adv-x="348" 
d="M314 0c-47 0 -82 3 -140 3c-59 0 -93 -3 -140 -3v34c84 0 89 4 89 62v291c0 59 -5 63 -89 63v34h25c67 0 148 2 155 3c12 1 14 -1 13 -15c-2 -25 -2 -66 -2 -92v-284c0 -58 4 -62 89 -62v-34z" />
    <glyph glyph-name="oslash" unicode="&#xf8;" horiz-adv-x="545" 
d="M511 241c0 -54 -2 -195 -117 -233c-38 -12 -79 -16 -122 -16s-84 3 -121 16c-12 4 -22 9 -32 15l-48 -61l-36 24l51 65c-51 58 -52 149 -52 190c0 53 2 194 117 232c37 12 78 17 121 17s84 -4 122 -17c6 -2 12 -4 18 -7l51 65l36 -24l-51 -65c62 -57 63 -158 63 -201z
M366 409c-17 29 -47 45 -94 45c-113 0 -124 -99 -124 -213c0 -37 1 -71 6 -103zM397 241c0 45 -2 87 -11 121l-216 -275c17 -37 48 -60 102 -60c113 0 125 100 125 214z" />
    <glyph glyph-name="oe" unicode="&#x153;" horiz-adv-x="840" 
d="M806 273c0 -22 0 -19 -1 -30h-311v-2c0 -114 10 -209 115 -209c77 0 105 45 114 113c1 10 4 12 12 12h43c21 0 24 -6 22 -16c-14 -68 -52 -149 -208 -149c-65 0 -117 28 -154 61c-35 -39 -88 -61 -166 -61c-43 0 -84 4 -121 16c-115 38 -117 179 -117 233
c0 53 2 194 117 232c37 12 78 17 121 17c77 0 130 -22 165 -61c44 34 108 61 158 61c175 0 211 -85 211 -217zM697 280c7 85 -9 174 -99 174c-88 0 -102 -77 -104 -174h203zM386 241c0 155 -43 213 -114 213c-113 0 -124 -99 -124 -213s11 -214 124 -214
c71 0 114 59 114 214z" />
    <glyph glyph-name="germandbls" unicode="&#xdf;" horiz-adv-x="609" 
d="M576 251c0 -154 -34 -259 -182 -259c-37 0 -75 10 -104 30v-22c-36 1 -68 3 -116 3c-59 0 -93 -3 -140 -3v34c84 0 89 4 89 62v508c0 95 40 166 203 166s189 -81 189 -147c0 -71 -26 -121 -111 -148c135 -12 172 -70 172 -224zM462 181v98c0 118 -25 157 -158 164v37
c64 0 106 18 106 129c0 42 -9 126 -92 126c-50 0 -93 -34 -93 -136v-503c0 -48 3 -59 52 -62l49 80h17c0 -51 15 -87 49 -87c33 0 70 25 70 154z" />
    <glyph glyph-name="logicalnot" unicode="&#xac;" horiz-adv-x="313" 
d="M280 358c-25 0 -66 2 -106 2c-42 0 -77 -2 -103 -2v18c58 1 74 7 74 73v222c-21 -14 -68 -41 -100 -57c-7 -4 -11 0 -11 8v23c58 21 84 40 118 70h54v-266c0 -66 16 -72 74 -73v-18z" />
    <glyph glyph-name="trademark" unicode="&#x2122;" horiz-adv-x="701" 
d="M274 644h-23c-5 51 -10 52 -64 52h-11v-215c0 -22 10 -24 37 -24v-15c-18 0 -37 2 -59 2s-41 -2 -59 -2v15c26 0 37 2 37 24v215h-12c-53 0 -58 -1 -63 -52h-23c0 9 1 22 1 37c0 11 -1 24 -1 33c17 0 98 -2 120 -2s103 2 120 2c0 -9 -1 -22 -1 -33c0 -15 1 -28 1 -37z
M667 443c-18 0 -37 1 -59 1s-40 -1 -58 -1v15c26 0 36 1 36 23v184l-105 -226c-1 -3 -5 -3 -6 0l-114 224l4 -182c0 -22 11 -23 37 -23v-15c-18 0 -23 1 -46 1c-22 0 -28 -1 -46 -1v15c24 0 35 1 35 23v195c0 22 -11 23 -35 23v15c18 0 35 -1 47 -1c11 0 21 1 31 1
c2 -4 6 -18 11 -27l92 -180l87 178c3 6 10 25 12 29c10 0 20 -1 28 -1c23 0 31 1 49 1v-15c-26 0 -37 -1 -37 -23v-195c0 -22 11 -23 37 -23v-15z" />
    <glyph glyph-name="divide" unicode="&#xf7;" horiz-adv-x="564" 
d="M531 750l-451 -785h-66l451 785h66z" />
    <glyph glyph-name="degree" unicode="&#xb0;" horiz-adv-x="285" 
d="M251 619c0 -60 -49 -108 -109 -108c-59 0 -108 48 -108 108s49 109 108 109c60 0 109 -49 109 -109zM203 619c0 33 -27 61 -61 61c-33 0 -60 -28 -60 -61c0 -34 27 -61 60 -61c34 0 61 27 61 61z" />
    <glyph glyph-name="registered" unicode="&#xae;" horiz-adv-x="427" 
d="M394 535c0 -100 -78 -183 -178 -183s-182 83 -182 183c0 97 83 179 182 179s178 -82 178 -179zM375 535c0 88 -71 159 -159 159s-163 -71 -163 -159c0 -90 75 -163 163 -163c89 0 159 73 159 163zM330 477c-2 -22 -9 -53 -45 -53c-47 0 -38 55 -42 75
c-3 15 -18 28 -34 28h-27v-57c0 -27 4 -29 37 -29v-13h-106v13c25 0 35 1 35 21v142c0 17 -7 20 -35 20v13h78c67 0 112 -12 112 -50s-48 -51 -72 -54c65 -18 44 -93 67 -93c14 0 18 21 19 37h13zM260 590c-1 19 -18 35 -51 35c-21 0 -27 -4 -27 -26v-58h34
c38 0 45 31 44 49z" />
    <glyph glyph-name="copyright" unicode="&#xa9;" horiz-adv-x="427" 
d="M394 549c0 -102 -78 -184 -178 -184s-182 82 -182 184c0 97 83 179 182 179s178 -82 178 -179zM375 549c0 88 -71 159 -159 159s-163 -71 -163 -159c0 -90 75 -164 163 -164c89 0 159 74 159 164zM303 495c-29 -45 -55 -59 -95 -59c-54 0 -100 52 -100 115
c0 64 53 112 104 111c30 0 46 -15 60 -21c8 -3 12 8 15 19h10v-88h-9c-7 32 -29 77 -72 77c-40 0 -64 -40 -64 -101c0 -52 23 -98 71 -98c28 0 51 20 70 49z" />
    <glyph glyph-name="Aacute" unicode="&#xc1;" horiz-adv-x="781" 
d="M621 948c16 -19 20 -49 -34 -82l-146 -89h-49l113 126c59 66 93 72 116 45zM779 0c-47 0 -95 3 -154 3s-111 -3 -158 -3v38c90 0 104 22 82 78l-69 180h-236l-64 -164c-33 -84 13 -94 82 -94v-38c-47 0 -74 3 -132 3c-59 0 -81 -3 -128 -3v38c69 0 89 19 118 90l239 586
h86l234 -608c18 -48 45 -68 100 -68v-38zM464 338l-102 265l-102 -265h204z" />
    <glyph glyph-name="Acircumflex" unicode="&#xc2;" horiz-adv-x="781" 
d="M572 777h-47l-120 103l-119 -103h-47l127 178h78zM779 0c-47 0 -95 3 -154 3s-111 -3 -158 -3v38c90 0 104 22 82 78l-69 180h-236l-64 -164c-33 -84 13 -94 82 -94v-38c-47 0 -74 3 -132 3c-59 0 -81 -3 -128 -3v38c69 0 89 19 118 90l239 586h86l234 -608
c18 -48 45 -68 100 -68v-38zM464 338l-102 265l-102 -265h204z" />
    <glyph glyph-name="Adieresis" unicode="&#xc4;" horiz-adv-x="781" 
d="M581 844c0 -37 -31 -67 -68 -67s-68 30 -68 67s31 68 68 68s68 -31 68 -68zM355 844c0 -37 -31 -67 -68 -67s-68 30 -68 67s31 68 68 68s68 -31 68 -68zM779 0c-47 0 -95 3 -154 3s-111 -3 -158 -3v38c90 0 104 22 82 78l-69 180h-236l-64 -164c-33 -84 13 -94 82 -94
v-38c-47 0 -74 3 -132 3c-59 0 -81 -3 -128 -3v38c69 0 89 19 118 90l239 586h86l234 -608c18 -48 45 -68 100 -68v-38zM464 338l-102 265l-102 -265h204z" />
    <glyph glyph-name="Agrave" unicode="&#xc0;" horiz-adv-x="781" 
d="M425 777h-52l-153 94c-34 21 -55 47 -24 78c36 37 85 -14 122 -55zM779 0c-47 0 -95 3 -154 3s-111 -3 -158 -3v38c90 0 104 22 82 78l-69 180h-236l-64 -164c-33 -84 13 -94 82 -94v-38c-47 0 -74 3 -132 3c-59 0 -81 -3 -128 -3v38c69 0 89 19 118 90l239 586h86
l234 -608c18 -48 45 -68 100 -68v-38zM464 338l-102 265l-102 -265h204z" />
    <glyph glyph-name="Aring" unicode="&#xc5;" horiz-adv-x="781" 
d="M517 885c0 -60 -49 -108 -109 -108c-59 0 -109 48 -109 108s50 109 109 109c60 0 109 -49 109 -109zM779 0c-47 0 -95 3 -154 3s-111 -3 -158 -3v38c90 0 104 22 82 78l-69 180h-236l-64 -164c-33 -84 13 -94 82 -94v-38c-47 0 -74 3 -132 3c-59 0 -81 -3 -128 -3v38
c69 0 89 19 118 90l239 586h86l234 -608c18 -48 45 -68 100 -68v-38zM469 885c0 33 -27 61 -61 61c-33 0 -60 -28 -60 -61c0 -34 27 -61 60 -61c34 0 61 27 61 61zM464 338l-102 265l-102 -265h204z" />
    <glyph glyph-name="Atilde" unicode="&#xc3;" horiz-adv-x="781" 
d="M579 901c-17 -83 -66 -124 -118 -124c-53 0 -106 51 -151 51c-33 0 -44 -22 -57 -49h-36c15 88 67 123 119 123s96 -51 150 -51c32 0 45 19 56 50h37zM779 0c-47 0 -95 3 -154 3s-111 -3 -158 -3v38c90 0 104 22 82 78l-69 180h-236l-64 -164c-33 -84 13 -94 82 -94v-38
c-47 0 -74 3 -132 3c-59 0 -81 -3 -128 -3v38c69 0 89 19 118 90l239 586h86l234 -608c18 -48 45 -68 100 -68v-38zM464 338l-102 265l-102 -265h204z" />
    <glyph glyph-name="Ccedilla" unicode="&#xc7;" horiz-adv-x="695" 
d="M662 39c0 -10 -4 -15 -16 -20c-26 -11 -105 -33 -225 -33l-12 -28c16 3 32 5 48 5c62 0 88 -33 89 -71c2 -52 -41 -90 -131 -90c-49 0 -103 11 -144 30l23 32c32 -17 66 -25 92 -25c36 0 56 14 56 44s-22 37 -40 37c-11 0 -23 -2 -36 -4l-11 7l27 63
c-107 4 -181 20 -247 71c-80 61 -101 174 -101 300s37 240 106 297c72 60 171 74 273 74c78 0 169 -16 234 -32c14 -4 15 -7 15 -19c0 -5 -2 -35 -2 -69c0 -31 2 -66 2 -89h-66c-14 123 -50 168 -176 168c-203 0 -256 -156 -256 -338c0 -259 124 -322 256 -322
c103 0 174 36 175 181h67c0 -23 -2 -61 -2 -94c0 -31 2 -61 2 -75z" />
    <glyph glyph-name="Eacute" unicode="&#xc9;" horiz-adv-x="626" 
d="M532 948c16 -19 20 -49 -34 -82l-146 -89h-49l113 126c59 66 93 72 116 45zM603 0c-47 0 -357 3 -416 3c-58 0 -106 -3 -153 -3v38c69 0 96 4 96 63v513c0 58 -27 62 -96 62v38c47 0 95 -3 153 -3c59 0 360 3 407 3c0 -25 -2 -67 -2 -83c0 -19 2 -72 2 -92h-56l-6 26
c-23 98 -35 105 -118 105h-169v-277h75c74 0 90 24 92 106h50c0 -47 -3 -91 -3 -123c0 -34 3 -77 3 -124h-50c-9 80 -28 103 -78 103h-89v-309c25 -1 63 -3 114 -3c145 0 151 3 172 113l9 47h63c0 -26 -2 -61 -2 -99c0 -41 2 -84 2 -104z" />
    <glyph glyph-name="Ecircumflex" unicode="&#xca;" horiz-adv-x="626" 
d="M520 777h-47l-119 103l-119 -103h-48l128 178h78zM603 0c-47 0 -357 3 -416 3c-58 0 -106 -3 -153 -3v38c69 0 96 4 96 63v513c0 58 -27 62 -96 62v38c47 0 95 -3 153 -3c59 0 360 3 407 3c0 -25 -2 -67 -2 -83c0 -19 2 -72 2 -92h-56l-6 26c-23 98 -35 105 -118 105
h-169v-277h75c74 0 90 24 92 106h50c0 -47 -3 -91 -3 -123c0 -34 3 -77 3 -124h-50c-9 80 -28 103 -78 103h-89v-309c25 -1 63 -3 114 -3c145 0 151 3 172 113l9 47h63c0 -26 -2 -61 -2 -99c0 -41 2 -84 2 -104z" />
    <glyph glyph-name="Edieresis" unicode="&#xcb;" horiz-adv-x="626" 
d="M515 844c0 -37 -31 -67 -68 -67s-68 30 -68 67s31 68 68 68s68 -31 68 -68zM289 844c0 -37 -31 -67 -68 -67s-68 30 -68 67s31 68 68 68s68 -31 68 -68zM603 0c-47 0 -357 3 -416 3c-58 0 -106 -3 -153 -3v38c69 0 96 4 96 63v513c0 58 -27 62 -96 62v38
c47 0 95 -3 153 -3c59 0 360 3 407 3c0 -25 -2 -67 -2 -83c0 -19 2 -72 2 -92h-56l-6 26c-23 98 -35 105 -118 105h-169v-277h75c74 0 90 24 92 106h50c0 -47 -3 -91 -3 -123c0 -34 3 -77 3 -124h-50c-9 80 -28 103 -78 103h-89v-309c25 -1 63 -3 114 -3
c145 0 151 3 172 113l9 47h63c0 -26 -2 -61 -2 -99c0 -41 2 -84 2 -104z" />
    <glyph glyph-name="Egrave" unicode="&#xc8;" horiz-adv-x="626" 
d="M382 777h-52l-153 94c-34 21 -54 47 -24 78c37 37 85 -14 122 -55zM603 0c-47 0 -357 3 -416 3c-58 0 -106 -3 -153 -3v38c69 0 96 4 96 63v513c0 58 -27 62 -96 62v38c47 0 95 -3 153 -3c59 0 360 3 407 3c0 -25 -2 -67 -2 -83c0 -19 2 -72 2 -92h-56l-6 26
c-23 98 -35 105 -118 105h-169v-277h75c74 0 90 24 92 106h50c0 -47 -3 -91 -3 -123c0 -34 3 -77 3 -124h-50c-9 80 -28 103 -78 103h-89v-309c25 -1 63 -3 114 -3c145 0 151 3 172 113l9 47h63c0 -26 -2 -61 -2 -99c0 -41 2 -84 2 -104z" />
    <glyph glyph-name="Iacute" unicode="&#xcd;" horiz-adv-x="375" 
d="M396 948c16 -19 20 -49 -34 -82l-146 -89h-50l114 126c59 66 93 72 116 45zM341 0c-47 0 -95 3 -154 3c-58 0 -106 -3 -153 -3v38c69 0 96 4 96 63v513c0 58 -27 62 -96 62v38c47 0 95 -3 153 -3c59 0 107 3 154 3v-38c-69 0 -96 -4 -96 -62v-513c0 -59 27 -63 96 -63
v-38z" />
    <glyph glyph-name="Icircumflex" unicode="&#xce;" horiz-adv-x="375" 
d="M355 777h-47l-120 103l-119 -103h-47l128 178h77zM341 0c-47 0 -95 3 -154 3c-58 0 -106 -3 -153 -3v38c69 0 96 4 96 63v513c0 58 -27 62 -96 62v38c47 0 95 -3 153 -3c59 0 107 3 154 3v-38c-69 0 -96 -4 -96 -62v-513c0 -59 27 -63 96 -63v-38z" />
    <glyph glyph-name="Idieresis" unicode="&#xcf;" horiz-adv-x="375" 
d="M369 844c0 -37 -32 -67 -68 -67c-37 0 -69 30 -69 67s32 68 69 68c36 0 68 -31 68 -68zM142 844c0 -37 -31 -67 -68 -67c-36 0 -68 30 -68 67s32 68 68 68c37 0 68 -31 68 -68zM341 0c-47 0 -95 3 -154 3c-58 0 -106 -3 -153 -3v38c69 0 96 4 96 63v513
c0 58 -27 62 -96 62v38c47 0 95 -3 153 -3c59 0 107 3 154 3v-38c-69 0 -96 -4 -96 -62v-513c0 -59 27 -63 96 -63v-38z" />
    <glyph glyph-name="Igrave" unicode="&#xcc;" horiz-adv-x="375" 
d="M216 777h-53l-153 94c-33 20 -54 47 -24 78c37 37 85 -14 123 -55zM341 0c-47 0 -95 3 -154 3c-58 0 -106 -3 -153 -3v38c69 0 96 4 96 63v513c0 58 -27 62 -96 62v38c47 0 95 -3 153 -3c59 0 107 3 154 3v-38c-69 0 -96 -4 -96 -62v-513c0 -59 27 -63 96 -63v-38z" />
    <glyph glyph-name="Ntilde" unicode="&#xd1;" horiz-adv-x="826" 
d="M593 901c-17 -83 -66 -124 -119 -124c-52 0 -105 51 -150 51c-33 0 -44 -22 -57 -49h-37c16 88 67 123 120 123c52 0 96 -51 149 -51c33 0 46 19 57 50h37zM793 676c-63 0 -91 -4 -91 -62v-614c-8 0 -20 2 -37 2c-15 0 -37 -2 -45 -3c-4 8 -21 35 -39 58l-413 529
l11 -485c1 -59 27 -63 96 -63v-38c-47 0 -65 3 -123 3c-59 0 -71 -3 -118 -3v38c62 0 91 4 91 63v513c0 58 -29 62 -91 62v38c31 0 77 -3 109 -3c21 0 64 3 78 3c3 -6 25 -40 41 -60l397 -507l-12 467c-1 58 -27 62 -96 62v38c31 0 65 -3 123 -3c59 0 85 3 119 3v-38z" />
    <glyph glyph-name="Oacute" unicode="&#xd3;" horiz-adv-x="779" 
d="M595 948c15 -19 20 -49 -34 -82l-146 -89h-50l114 126c59 66 93 72 116 45zM746 357c0 -126 -29 -243 -101 -303c-71 -58 -177 -68 -255 -68c-79 0 -185 10 -256 68c-72 60 -100 177 -100 303s28 243 100 303c71 58 177 68 256 68c78 0 189 -2 255 -68
c67 -67 101 -177 101 -303zM620 357c0 259 -75 330 -230 330s-231 -71 -231 -330s76 -330 231 -330s230 71 230 330z" />
    <glyph glyph-name="Ocircumflex" unicode="&#xd4;" horiz-adv-x="779" 
d="M561 777h-47l-119 103l-120 -103h-47l128 178h78zM746 357c0 -126 -29 -243 -101 -303c-71 -58 -177 -68 -255 -68c-79 0 -185 10 -256 68c-72 60 -100 177 -100 303s28 243 100 303c71 58 177 68 256 68c78 0 189 -2 255 -68c67 -67 101 -177 101 -303zM620 357
c0 259 -75 330 -230 330s-231 -71 -231 -330s76 -330 231 -330s230 71 230 330z" />
    <glyph glyph-name="Odieresis" unicode="&#xd6;" horiz-adv-x="779" 
d="M569 844c0 -37 -32 -67 -68 -67c-37 0 -69 30 -69 67s32 68 69 68c36 0 68 -31 68 -68zM342 844c0 -37 -31 -67 -68 -67c-36 0 -68 30 -68 67s32 68 68 68c37 0 68 -31 68 -68zM746 357c0 -126 -29 -243 -101 -303c-71 -58 -177 -68 -255 -68c-79 0 -185 10 -256 68
c-72 60 -100 177 -100 303s28 243 100 303c71 58 177 68 256 68c78 0 189 -2 255 -68c67 -67 101 -177 101 -303zM620 357c0 259 -75 330 -230 330s-231 -71 -231 -330s76 -330 231 -330s230 71 230 330z" />
    <glyph glyph-name="Ograve" unicode="&#xd2;" horiz-adv-x="779" 
d="M431 777h-52l-153 94c-33 20 -54 47 -24 78c37 37 85 -14 123 -55zM746 357c0 -126 -29 -243 -101 -303c-71 -58 -177 -68 -255 -68c-79 0 -185 10 -256 68c-72 60 -100 177 -100 303s28 243 100 303c71 58 177 68 256 68c78 0 189 -2 255 -68c67 -67 101 -177 101 -303z
M620 357c0 259 -75 330 -230 330s-231 -71 -231 -330s76 -330 231 -330s230 71 230 330z" />
    <glyph glyph-name="Otilde" unicode="&#xd5;" horiz-adv-x="779" 
d="M561 901c-16 -83 -66 -124 -118 -124s-106 51 -151 51c-32 0 -44 -22 -56 -49h-37c16 88 67 123 119 123c53 0 97 -51 150 -51c33 0 45 19 57 50h36zM746 357c0 -126 -29 -243 -101 -303c-71 -58 -177 -68 -255 -68c-79 0 -185 10 -256 68c-72 60 -100 177 -100 303
s28 243 100 303c71 58 177 68 256 68c78 0 189 -2 255 -68c67 -67 101 -177 101 -303zM620 357c0 259 -75 330 -230 330s-231 -71 -231 -330s76 -330 231 -330s230 71 230 330z" />
    <glyph glyph-name="Uacute" unicode="&#xda;" horiz-adv-x="845" 
d="M658 948c15 -19 20 -49 -34 -82l-147 -89h-49l113 126c60 66 94 72 117 45zM812 676c-70 0 -96 -4 -97 -62l-5 -354c-3 -232 -115 -274 -297 -274c-111 0 -283 22 -283 206v422c0 58 -27 62 -96 62v38c47 0 95 -3 153 -3c59 0 107 3 154 3v-38c-69 0 -96 -4 -96 -62v-389
c0 -155 66 -198 196 -198c171 0 214 91 214 192v395c0 58 -27 62 -96 62v38c47 0 91 -3 131 -3c37 0 74 3 122 3v-38z" />
    <glyph glyph-name="Ucircumflex" unicode="&#xdb;" horiz-adv-x="845" 
d="M625 777h-47l-119 103l-120 -103h-47l128 178h77zM812 676c-70 0 -96 -4 -97 -62l-5 -354c-3 -232 -115 -274 -297 -274c-111 0 -283 22 -283 206v422c0 58 -27 62 -96 62v38c47 0 95 -3 153 -3c59 0 107 3 154 3v-38c-69 0 -96 -4 -96 -62v-389c0 -155 66 -198 196 -198
c171 0 214 91 214 192v395c0 58 -27 62 -96 62v38c47 0 91 -3 131 -3c37 0 74 3 122 3v-38z" />
    <glyph glyph-name="Udieresis" unicode="&#xdc;" horiz-adv-x="845" 
d="M634 844c0 -37 -32 -67 -69 -67c-36 0 -68 30 -68 67s32 68 68 68c37 0 69 -31 69 -68zM407 844c0 -37 -31 -67 -68 -67c-36 0 -68 30 -68 67s32 68 68 68c37 0 68 -31 68 -68zM812 676c-70 0 -96 -4 -97 -62l-5 -354c-3 -232 -115 -274 -297 -274
c-111 0 -283 22 -283 206v422c0 58 -27 62 -96 62v38c47 0 95 -3 153 -3c59 0 107 3 154 3v-38c-69 0 -96 -4 -96 -62v-389c0 -155 66 -198 196 -198c171 0 214 91 214 192v395c0 58 -27 62 -96 62v38c47 0 91 -3 131 -3c37 0 74 3 122 3v-38z" />
    <glyph glyph-name="Ugrave" unicode="&#xd9;" horiz-adv-x="845" 
d="M488 777h-52l-153 94c-34 21 -55 47 -24 78c36 37 84 -14 122 -55zM812 676c-70 0 -96 -4 -97 -62l-5 -354c-3 -232 -115 -274 -297 -274c-111 0 -283 22 -283 206v422c0 58 -27 62 -96 62v38c47 0 95 -3 153 -3c59 0 107 3 154 3v-38c-69 0 -96 -4 -96 -62v-389
c0 -155 66 -198 196 -198c171 0 214 91 214 192v395c0 58 -27 62 -96 62v38c47 0 91 -3 131 -3c37 0 74 3 122 3v-38z" />
    <glyph glyph-name="Ydieresis" unicode="&#x178;" horiz-adv-x="710" 
d="M595 948c15 -19 20 -49 -34 -82l-146 -89h-50l114 126c59 66 93 72 116 45zM708 676c-69 0 -84 -29 -114 -79l-174 -284v-212c0 -59 27 -63 96 -63v-38c-47 0 -95 3 -154 3c-58 0 -107 -3 -154 -3v38c69 0 97 4 97 63v216l-193 290c-33 49 -50 67 -110 69v38
c47 0 95 -3 154 -3s120 3 168 3v-38c-77 0 -102 -18 -54 -97l130 -213l120 209c54 93 25 101 -45 101v38c48 0 74 -3 132 -3c34 0 65 3 101 3v-38z" />
    <glyph glyph-name="aacute" unicode="&#xe1;" horiz-adv-x="531" 
d="M445 727c16 -19 21 -49 -33 -82l-147 -89h-49l113 126c59 66 93 72 116 45zM518 0c-28 0 -52 3 -111 3c-36 0 -52 -3 -80 -3v41c-40 -27 -90 -49 -143 -49c-107 0 -150 65 -150 140s33 149 182 149h111v56c0 68 -13 118 -87 118c-75 0 -83 -34 -85 -86
c-1 -29 -5 -36 -42 -36h-17c-23 0 -34 9 -30 39c15 100 88 118 182 118s181 -16 181 -125v-269c0 -58 5 -62 89 -62v-34zM327 153v90h-60c-117 0 -124 -55 -124 -104s22 -95 84 -95c57 0 100 25 100 109z" />
    <glyph glyph-name="acircumflex" unicode="&#xe2;" horiz-adv-x="531" 
d="M412 556h-48l-119 103l-119 -103h-47l127 178h78zM518 0c-28 0 -52 3 -111 3c-36 0 -52 -3 -80 -3v41c-40 -27 -90 -49 -143 -49c-107 0 -150 65 -150 140s33 149 182 149h111v56c0 68 -13 118 -87 118c-75 0 -83 -34 -85 -86c-1 -29 -5 -36 -42 -36h-17
c-23 0 -34 9 -30 39c15 100 88 118 182 118s181 -16 181 -125v-269c0 -58 5 -62 89 -62v-34zM327 153v90h-60c-117 0 -124 -55 -124 -104s22 -95 84 -95c57 0 100 25 100 109z" />
    <glyph glyph-name="adieresis" unicode="&#xe4;" horiz-adv-x="531" 
d="M430 623c0 -37 -31 -67 -68 -67c-36 0 -68 30 -68 67s32 68 68 68c37 0 68 -31 68 -68zM204 623c0 -37 -31 -67 -68 -67s-68 30 -68 67s31 68 68 68s68 -31 68 -68zM518 0c-28 0 -52 3 -111 3c-36 0 -52 -3 -80 -3v41c-40 -27 -90 -49 -143 -49c-107 0 -150 65 -150 140
s33 149 182 149h111v56c0 68 -13 118 -87 118c-75 0 -83 -34 -85 -86c-1 -29 -5 -36 -42 -36h-17c-23 0 -34 9 -30 39c15 100 88 118 182 118s181 -16 181 -125v-269c0 -58 5 -62 89 -62v-34zM327 153v90h-60c-117 0 -124 -55 -124 -104s22 -95 84 -95c57 0 100 25 100 109z
" />
    <glyph glyph-name="agrave" unicode="&#xe0;" horiz-adv-x="531" 
d="M290 556h-52l-153 94c-34 21 -55 47 -24 78c36 37 85 -14 122 -55zM518 0c-28 0 -52 3 -111 3c-36 0 -52 -3 -80 -3v41c-40 -27 -90 -49 -143 -49c-107 0 -150 65 -150 140s33 149 182 149h111v56c0 68 -13 118 -87 118c-75 0 -83 -34 -85 -86c-1 -29 -5 -36 -42 -36h-17
c-23 0 -34 9 -30 39c15 100 88 118 182 118s181 -16 181 -125v-269c0 -58 5 -62 89 -62v-34zM327 153v90h-60c-117 0 -124 -55 -124 -104s22 -95 84 -95c57 0 100 25 100 109z" />
    <glyph glyph-name="aring" unicode="&#xe5;" horiz-adv-x="531" 
d="M359 664c0 -60 -49 -108 -109 -108c-59 0 -109 48 -109 108s50 109 109 109c60 0 109 -49 109 -109zM518 0c-28 0 -52 3 -111 3c-36 0 -52 -3 -80 -3v41c-40 -27 -90 -49 -143 -49c-107 0 -150 65 -150 140s33 149 182 149h111v56c0 68 -13 118 -87 118
c-75 0 -83 -34 -85 -86c-1 -29 -5 -36 -42 -36h-17c-23 0 -34 9 -30 39c15 100 88 118 182 118s181 -16 181 -125v-269c0 -58 5 -62 89 -62v-34zM311 664c0 33 -27 61 -61 61c-33 0 -60 -28 -60 -61c0 -34 27 -61 60 -61c34 0 61 27 61 61zM327 153v90h-60
c-117 0 -124 -55 -124 -104s22 -95 84 -95c57 0 100 25 100 109z" />
    <glyph glyph-name="atilde" unicode="&#xe3;" horiz-adv-x="531" 
d="M431 680c-16 -83 -66 -124 -118 -124s-106 51 -151 51c-32 0 -44 -22 -56 -49h-37c16 88 67 123 119 123c53 0 97 -51 150 -51c33 0 45 19 57 50h36zM518 0c-28 0 -52 3 -111 3c-36 0 -52 -3 -80 -3v41c-40 -27 -90 -49 -143 -49c-107 0 -150 65 -150 140s33 149 182 149
h111v56c0 68 -13 118 -87 118c-75 0 -83 -34 -85 -86c-1 -29 -5 -36 -42 -36h-17c-23 0 -34 9 -30 39c15 100 88 118 182 118s181 -16 181 -125v-269c0 -58 5 -62 89 -62v-34zM327 153v90h-60c-117 0 -124 -55 -124 -104s22 -95 84 -95c57 0 100 25 100 109z" />
    <glyph glyph-name="ccedilla" unicode="&#xe7;" horiz-adv-x="488" 
d="M454 35c-54 -29 -129 -42 -173 -43l-10 -23c14 2 28 4 42 4c57 0 80 -31 81 -64c1 -47 -37 -81 -119 -81c-43 0 -92 10 -128 27l21 29c28 -16 59 -23 82 -23c33 0 51 13 51 40s-20 33 -36 33c-11 0 -21 -2 -33 -3l-10 5l24 57c-33 1 -65 5 -95 15
c-115 38 -117 179 -117 233c0 53 2 194 117 232c37 12 78 17 121 17c87 0 138 -16 172 -36c7 -4 8 -7 8 -20c0 -7 -2 -25 -2 -44c0 -16 2 -40 2 -50h-57c2 92 -45 117 -111 117c-118 0 -136 -102 -136 -216s18 -211 135 -211c96 0 110 55 114 129h57c0 -28 -2 -38 -2 -56
c0 -27 2 -50 2 -68z" />
    <glyph glyph-name="eacute" unicode="&#xe9;" horiz-adv-x="492" 
d="M448 727c16 -19 21 -49 -33 -82l-147 -89h-49l113 126c60 66 93 72 116 45zM459 273c0 -22 0 -19 -1 -30h-311v-2c0 -114 9 -209 115 -209c76 0 104 45 113 113c1 10 4 12 12 12h43c21 0 24 -6 22 -16c-13 -68 -52 -149 -208 -149c-22 0 -56 4 -93 16
c-115 38 -117 179 -117 233c0 50 3 160 79 216c32 23 78 33 134 33c175 0 212 -85 212 -217zM350 280c6 85 -10 174 -100 174c-88 0 -101 -77 -103 -174h203z" />
    <glyph glyph-name="ecircumflex" unicode="&#xea;" horiz-adv-x="492" 
d="M423 556h-47l-119 103l-120 -103h-47l128 178h77zM459 273c0 -22 0 -19 -1 -30h-311v-2c0 -114 9 -209 115 -209c76 0 104 45 113 113c1 10 4 12 12 12h43c21 0 24 -6 22 -16c-13 -68 -52 -149 -208 -149c-22 0 -56 4 -93 16c-115 38 -117 179 -117 233
c0 50 3 160 79 216c32 23 78 33 134 33c175 0 212 -85 212 -217zM350 280c6 85 -10 174 -100 174c-88 0 -101 -77 -103 -174h203z" />
    <glyph glyph-name="edieresis" unicode="&#xeb;" horiz-adv-x="492" 
d="M431 623c0 -37 -31 -67 -68 -67c-36 0 -68 30 -68 67s32 68 68 68c37 0 68 -31 68 -68zM205 623c0 -37 -31 -67 -68 -67c-36 0 -68 30 -68 67s32 68 68 68c37 0 68 -31 68 -68zM459 273c0 -22 0 -19 -1 -30h-311v-2c0 -114 9 -209 115 -209c76 0 104 45 113 113
c1 10 4 12 12 12h43c21 0 24 -6 22 -16c-13 -68 -52 -149 -208 -149c-22 0 -56 4 -93 16c-115 38 -117 179 -117 233c0 50 3 160 79 216c32 23 78 33 134 33c175 0 212 -85 212 -217zM350 280c6 85 -10 174 -100 174c-88 0 -101 -77 -103 -174h203z" />
    <glyph glyph-name="egrave" unicode="&#xe8;" horiz-adv-x="492" 
d="M289 556h-52l-153 94c-34 21 -55 47 -24 78c36 37 85 -14 122 -55zM459 273c0 -22 0 -19 -1 -30h-311v-2c0 -114 9 -209 115 -209c76 0 104 45 113 113c1 10 4 12 12 12h43c21 0 24 -6 22 -16c-13 -68 -52 -149 -208 -149c-22 0 -56 4 -93 16c-115 38 -117 179 -117 233
c0 50 3 160 79 216c32 23 78 33 134 33c175 0 212 -85 212 -217zM350 280c6 85 -10 174 -100 174c-88 0 -101 -77 -103 -174h203z" />
    <glyph glyph-name="iacute" unicode="&#xed;" horiz-adv-x="348" 
d="M354 727c16 -19 20 -49 -34 -82l-146 -89h-49l113 126c59 66 93 72 116 45zM314 0c-47 0 -82 3 -140 3c-59 0 -93 -3 -140 -3v34c84 0 89 4 89 62v291c0 59 -5 63 -89 63v34h25c67 0 148 2 155 3c12 1 14 -1 13 -15c-2 -25 -2 -66 -2 -92v-284c0 -58 4 -62 89 -62v-34z
" />
    <glyph glyph-name="icircumflex" unicode="&#xee;" horiz-adv-x="348" 
d="M317 556h-47l-119 103l-120 -103h-47l128 178h78zM314 0c-47 0 -82 3 -140 3c-59 0 -93 -3 -140 -3v34c84 0 89 4 89 62v291c0 59 -5 63 -89 63v34h25c67 0 148 2 155 3c12 1 14 -1 13 -15c-2 -25 -2 -66 -2 -92v-284c0 -58 4 -62 89 -62v-34z" />
    <glyph glyph-name="idieresis" unicode="&#xef;" horiz-adv-x="348" 
d="M328 623c0 -37 -32 -67 -68 -67c-37 0 -68 30 -68 67s31 68 68 68c36 0 68 -31 68 -68zM102 623c0 -37 -32 -67 -68 -67c-37 0 -69 30 -69 67s32 68 69 68c36 0 68 -31 68 -68zM314 0c-47 0 -82 3 -140 3c-59 0 -93 -3 -140 -3v34c84 0 89 4 89 62v291c0 59 -5 63 -89 63
v34h25c67 0 148 2 155 3c12 1 14 -1 13 -15c-2 -25 -2 -66 -2 -92v-284c0 -58 4 -62 89 -62v-34z" />
    <glyph glyph-name="igrave" unicode="&#xec;" horiz-adv-x="348" 
d="M166 556h-52l-153 94c-33 20 -54 47 -24 78c37 37 85 -14 123 -55zM314 0c-47 0 -82 3 -140 3c-59 0 -93 -3 -140 -3v34c84 0 89 4 89 62v291c0 59 -5 63 -89 63v34h25c67 0 148 2 155 3c12 1 14 -1 13 -15c-2 -25 -2 -66 -2 -92v-284c0 -58 4 -62 89 -62v-34z" />
    <glyph glyph-name="ntilde" unicode="&#xf1;" horiz-adv-x="662" 
d="M508 680c-17 -83 -66 -124 -118 -124c-53 0 -106 51 -151 51c-33 0 -44 -22 -57 -49h-36c15 88 67 123 119 123s96 -51 150 -51c32 0 45 19 56 50h37zM628 0c-47 0 -81 3 -140 3s-93 -3 -140 -3v34c84 0 89 4 89 62v218c0 59 -16 121 -94 121c-63 0 -118 -33 -118 -105
v-234c0 -58 6 -61 81 -62v-34c-47 0 -74 3 -132 3c-59 0 -93 -3 -140 -3v34c84 0 89 4 89 62v291c0 59 -5 63 -89 63v34h25c67 0 148 2 155 3c12 1 14 -1 13 -15c-1 -11 -1 -26 -2 -42c45 39 104 60 166 60c130 0 148 -75 148 -141v-253c0 -58 4 -62 89 -62v-34z" />
    <glyph glyph-name="oacute" unicode="&#xf3;" horiz-adv-x="545" 
d="M459 727c15 -19 20 -49 -34 -82l-146 -89h-50l113 126c60 66 94 72 117 45zM511 241c0 -54 -2 -195 -117 -233c-38 -12 -79 -16 -122 -16s-84 4 -121 16c-115 38 -117 179 -117 233c0 53 2 194 117 232c37 12 78 17 121 17s84 -5 122 -17c115 -38 117 -179 117 -232z
M397 241c0 114 -12 213 -125 213s-124 -99 -124 -213s11 -214 124 -214s125 100 125 214z" />
    <glyph glyph-name="ocircumflex" unicode="&#xf4;" horiz-adv-x="545" 
d="M438 556h-47l-120 103l-119 -103h-47l127 178h78zM511 241c0 -54 -2 -195 -117 -233c-38 -12 -79 -16 -122 -16s-84 4 -121 16c-115 38 -117 179 -117 233c0 53 2 194 117 232c37 12 78 17 121 17s84 -5 122 -17c115 -38 117 -179 117 -232zM397 241
c0 114 -12 213 -125 213s-124 -99 -124 -213s11 -214 124 -214s125 100 125 214z" />
    <glyph glyph-name="odieresis" unicode="&#xf6;" horiz-adv-x="545" 
d="M458 623c0 -37 -32 -67 -68 -67c-37 0 -69 30 -69 67s32 68 69 68c36 0 68 -31 68 -68zM231 623c0 -37 -31 -67 -68 -67c-36 0 -68 30 -68 67s32 68 68 68c37 0 68 -31 68 -68zM511 241c0 -54 -2 -195 -117 -233c-38 -12 -79 -16 -122 -16s-84 4 -121 16
c-115 38 -117 179 -117 233c0 53 2 194 117 232c37 12 78 17 121 17s84 -5 122 -17c115 -38 117 -179 117 -232zM397 241c0 114 -12 213 -125 213s-124 -99 -124 -213s11 -214 124 -214s125 100 125 214z" />
    <glyph glyph-name="ograve" unicode="&#xf2;" horiz-adv-x="545" 
d="M289 556h-52l-153 94c-34 21 -55 47 -24 78c36 37 85 -14 122 -55zM511 241c0 -54 -2 -195 -117 -233c-38 -12 -79 -16 -122 -16s-84 4 -121 16c-115 38 -117 179 -117 233c0 53 2 194 117 232c37 12 78 17 121 17s84 -5 122 -17c115 -38 117 -179 117 -232zM397 241
c0 114 -12 213 -125 213s-124 -99 -124 -213s11 -214 124 -214s125 100 125 214z" />
    <glyph glyph-name="otilde" unicode="&#xf5;" horiz-adv-x="545" 
d="M452 680c-16 -83 -66 -124 -118 -124s-106 51 -151 51c-32 0 -44 -22 -56 -49h-37c16 88 67 123 119 123c53 0 97 -51 150 -51c33 0 45 19 57 50h36zM511 241c0 -54 -2 -195 -117 -233c-38 -12 -79 -16 -122 -16s-84 4 -121 16c-115 38 -117 179 -117 233
c0 53 2 194 117 232c37 12 78 17 121 17s84 -5 122 -17c115 -38 117 -179 117 -232zM397 241c0 114 -12 213 -125 213s-124 -99 -124 -213s11 -214 124 -214s125 100 125 214z" />
    <glyph glyph-name="uacute" unicode="&#xfa;" horiz-adv-x="658" 
d="M490 727c16 -19 21 -49 -33 -82l-147 -89h-49l113 126c60 66 93 72 116 45zM624 0c-47 0 -64 3 -97 3c-44 0 -76 -3 -95 -3v58c-26 -23 -91 -66 -166 -66c-117 0 -143 73 -143 142v252c0 59 -5 63 -89 63v34h25c67 0 148 2 155 3c12 1 14 -1 13 -15c-2 -25 -2 -66 -2 -92
v-195c0 -109 36 -134 94 -134c69 0 113 40 113 108v228c0 59 -4 63 -89 63v34h26c67 0 148 2 155 3c12 1 14 -1 13 -15c-2 -25 -2 -66 -2 -92v-283c0 -58 4 -62 89 -62v-34z" />
    <glyph glyph-name="ucircumflex" unicode="&#xfb;" horiz-adv-x="658" 
d="M485 556h-47l-120 103l-119 -103h-47l128 178h77zM624 0c-47 0 -64 3 -97 3c-44 0 -76 -3 -95 -3v58c-26 -23 -91 -66 -166 -66c-117 0 -143 73 -143 142v252c0 59 -5 63 -89 63v34h25c67 0 148 2 155 3c12 1 14 -1 13 -15c-2 -25 -2 -66 -2 -92v-195
c0 -109 36 -134 94 -134c69 0 113 40 113 108v228c0 59 -4 63 -89 63v34h26c67 0 148 2 155 3c12 1 14 -1 13 -15c-2 -25 -2 -66 -2 -92v-283c0 -58 4 -62 89 -62v-34z" />
    <glyph glyph-name="udieresis" unicode="&#xfc;" horiz-adv-x="658" 
d="M501 623c0 -37 -32 -67 -69 -67c-36 0 -68 30 -68 67s32 68 68 68c37 0 69 -31 69 -68zM274 623c0 -37 -31 -67 -68 -67c-36 0 -68 30 -68 67s32 68 68 68c37 0 68 -31 68 -68zM624 0c-47 0 -64 3 -97 3c-44 0 -76 -3 -95 -3v58c-26 -23 -91 -66 -166 -66
c-117 0 -143 73 -143 142v252c0 59 -5 63 -89 63v34h25c67 0 148 2 155 3c12 1 14 -1 13 -15c-2 -25 -2 -66 -2 -92v-195c0 -109 36 -134 94 -134c69 0 113 40 113 108v228c0 59 -4 63 -89 63v34h26c67 0 148 2 155 3c12 1 14 -1 13 -15c-2 -25 -2 -66 -2 -92v-283
c0 -58 4 -62 89 -62v-34z" />
    <glyph glyph-name="ugrave" unicode="&#xf9;" horiz-adv-x="658" 
d="M341 556h-52l-153 94c-33 20 -54 47 -24 78c37 37 85 -14 123 -55zM624 0c-47 0 -64 3 -97 3c-44 0 -76 -3 -95 -3v58c-26 -23 -91 -66 -166 -66c-117 0 -143 73 -143 142v252c0 59 -5 63 -89 63v34h25c67 0 148 2 155 3c12 1 14 -1 13 -15c-2 -25 -2 -66 -2 -92v-195
c0 -109 36 -134 94 -134c69 0 113 40 113 108v228c0 59 -4 63 -89 63v34h26c67 0 148 2 155 3c12 1 14 -1 13 -15c-2 -25 -2 -66 -2 -92v-283c0 -58 4 -62 89 -62v-34z" />
    <glyph glyph-name="ydieresis" unicode="&#xff;" horiz-adv-x="547" 
d="M489 623c0 -37 -31 -67 -68 -67s-68 30 -68 67s31 68 68 68s68 -31 68 -68zM263 623c0 -37 -32 -67 -68 -67c-37 0 -68 30 -68 67s31 68 68 68c36 0 68 -31 68 -68zM545 449c-46 -3 -67 -13 -88 -70l-133 -358c-74 -199 -150 -235 -216 -235c-58 0 -83 27 -83 54
c0 23 15 51 43 51c42 0 44 -44 85 -44c17 0 74 14 112 134l6 19h-37l-143 384c-20 54 -55 65 -89 65v34c47 0 69 -3 128 -3c58 0 84 3 131 3v-34c-63 0 -84 -14 -60 -75l111 -284l91 282c24 74 -2 77 -56 77v34c47 0 21 -3 79 -3c59 0 71 3 119 3v-34z" />
    <glyph glyph-name="infinity" unicode="&#x221e;" horiz-adv-x="547" 
d="M480 727c15 -19 20 -49 -34 -82l-147 -89h-49l113 126c60 66 94 72 117 45zM545 449c-46 -3 -67 -13 -88 -70l-133 -358c-74 -199 -150 -235 -216 -235c-58 0 -83 27 -83 54c0 23 15 51 43 51c42 0 44 -44 85 -44c17 0 74 14 112 134l6 19h-37l-143 384
c-20 54 -55 65 -89 65v34c47 0 69 -3 128 -3c58 0 84 3 131 3v-34c-63 0 -84 -14 -60 -75l111 -284l91 282c24 74 -2 77 -56 77v34c47 0 21 -3 79 -3c59 0 71 3 119 3v-34z" />
    <glyph glyph-name="lessequal" unicode="&#x2264;" horiz-adv-x="324" 
d="M290 465c0 -58 -32 -108 -144 -108c-79 0 -112 41 -112 83c0 20 4 25 15 25h30c10 0 16 -7 16 -24c0 -36 15 -64 57 -64s67 30 67 86c0 57 -22 82 -73 82c-15 0 -30 -3 -35 -3v28c5 -1 16 -2 24 -2c50 0 77 17 77 73c0 34 -13 68 -60 68c-34 0 -53 -19 -53 -66
c0 -11 -10 -16 -20 -16h-17c-11 0 -20 9 -20 25c0 20 8 76 120 76c69 0 119 -24 119 -89c0 -43 -29 -73 -69 -79c52 -13 78 -36 78 -95z" />
    <glyph glyph-name="partialdiff" unicode="&#x2202;" horiz-adv-x="970" 
d="M319 325c-28 0 -88 2 -122 2c-36 0 -98 -2 -126 -2v23h20c54 0 70 10 70 37v284c-30 -23 -73 -46 -120 -64c-5 -2 -7 0 -7 4v32c43 10 107 40 136 73h67c-1 -23 -2 -41 -2 -60v-269c0 -27 16 -37 70 -37h14v-23zM732 749l-451 -786h-66l451 786h66zM936 0
c-28 0 -90 2 -126 2c-34 0 -85 -2 -114 -2v23c62 0 82 7 82 38v48h-202v40c43 49 153 183 195 241h86c-3 -24 -3 -42 -3 -61v-174h65v-46h-65v-48c0 -31 20 -38 82 -38v-23zM778 155v193l-155 -193h155z" />
    <glyph glyph-name="summation" unicode="&#x2211;" horiz-adv-x="938" 
d="M319 325c-28 0 -88 2 -122 2c-36 0 -98 -2 -126 -2v23h20c54 0 70 10 70 37v284c-30 -23 -73 -46 -120 -64c-5 -2 -7 0 -7 4v32c43 10 107 40 136 73h67c-1 -23 -2 -41 -2 -60v-269c0 -27 16 -37 70 -37h14v-23zM732 749l-451 -786h-66l451 786h66zM905 0
c-57 0 -128 1 -184 1c-47 0 -74 -1 -119 -1v51l104 90c85 73 110 117 110 156c0 35 -19 76 -60 76c-48 0 -73 -27 -73 -55c0 -33 -3 -43 -22 -43h-33c-12 0 -16 9 -16 28c0 62 62 91 146 91c100 0 143 -37 143 -97c0 -42 -43 -86 -94 -125l-148 -112h162c47 0 55 4 58 57h26
c0 -20 -1 -34 -1 -55c0 -24 1 -41 1 -62z" />
    <glyph glyph-name="integral" unicode="&#x222b;" horiz-adv-x="978" 
d="M334 430c0 -58 -22 -115 -174 -115c-94 0 -126 49 -126 91c0 11 5 23 16 23h35c16 0 19 -3 19 -23c0 -46 16 -69 60 -69c70 0 87 31 87 99c0 56 -29 80 -93 80c-16 0 -25 -1 -34 -1v27c3 0 18 -1 26 -1c84 0 91 33 91 80c0 48 -24 72 -65 72c-42 0 -64 -28 -65 -59
c-1 -19 -5 -29 -18 -29h-31c-11 0 -18 13 -18 24c0 59 55 85 138 85c99 0 143 -35 143 -95s-43 -81 -83 -87c59 -12 92 -41 92 -102zM740 749l-451 -786h-66l451 786h66zM945 0c-29 0 -91 2 -126 2s-86 -2 -114 -2v23c61 0 81 7 81 38v48h-202v40c43 49 153 183 195 241h86
c-2 -24 -2 -42 -2 -61v-174h65v-46h-65v-48c0 -31 20 -38 82 -38v-23zM786 155v193l-155 -193h155z" />
    <glyph glyph-name="radical" unicode="&#x221a;" horiz-adv-x="400" 
d="M366 734l-127 -178h-78l-127 178h47l119 -103l119 103h47z" />
  </font>
</defs>
</svg>
