<svg xmlns="http://www.w3.org/2000/svg">
<defs>
<font horiz-adv-x="500" ><font-face
    font-family="Typo-Longest Demo"
    units-per-em="2048"
    panose-1="2 0 5 0 0 0 0 0 0 0"
    ascent="1723"
    descent="-441"
    alphabetic="0" />
<missing-glyph horiz-adv-x="1547" d="M100 -282V1428H1435V-282H100ZM135 -242H1399V1398H135V-242ZM725 471H728L739 470V452Q741 382 741 326L734 324H728Q725 395 725 462V465V471ZM1224 471H1225L1239 470Q1238 461 1238 457Q1238 402 1241 326L1230 324H1226Q1224
382 1223 453Q1224 465 1224 471ZM790 466H794Q794 464 801 454Q797 436 797 424V406Q797 362 812 348H813Q834 348 848 465H850Q862 461 863 461Q857 403 857 375Q857 344 869 344Q871 328 871 324H863Q850 324 843 356H842Q831 328 815 328H810Q790 328 783 389Q782
393 782 411V422Q782 447 790 466ZM1094 466H1100Q1112 466 1128 438Q1140 416 1140 394V385Q1140 348 1100 327Q1093 324 1086 324H1079Q1049 324 1044 367V376Q1044 426 1084 464Q1092 466 1094 466ZM249 462H258Q286 457 286 422Q286 388 253 373Q241 368 226
366V329H225Q220 329 211 332V366H206L201 367Q201 378 206 386H211V386Q211 427 205 427Q199 434 199 438Q217 462 249 462ZM1059 376V368Q1059 347 1084 344Q1106 344 1121 371Q1126 379 1126 389V392Q1126 419 1100 445Q1097 445 1097 447Q1080 447 1062 397Q1059
386 1059 376ZM224 435Q225 400 225 388Q226 388 226 386Q255 392 263 403Q271 413 271 421Q271 439 256 442H250Q224 439 224 435ZM404 438Q423 438 432 389Q431 389 417 385Q411 418 404 418Q387 409 384 343Q385 329 385 328Q375 326 370 326Q357 395 357 413Q369
415 372 415V414Q372 410 375 395H376Q386 438 404 438ZM537 432Q557 432 570 400Q572 391 572 383V380Q572 344 537 327Q532 326 528 326Q501 330 501 364Q501 414 526 429Q528 430 537 432ZM614 432Q633 432 650 343Q651 343 651 336Q643 329 639 329Q624 391
616 409Q607 396 598 339Q597 339 593 329H586Q579 329 577 386Q575 400 575 409Q582 411 589 411Q592 394 592 391H593Q600 432 614 432ZM1185 432Q1201 432 1220 336Q1211 329 1207 329Q1192 395 1183 409Q1177 397 1164 335Q1161 329 1160 329H1154Q1147 329

<glyph unicode=" " glyph-name="space" horiz-adv-x="191" />
<glyph unicode="!" glyph-name="exclam" horiz-adv-x="195" d="M30 1402H165V641L135 320H60L30 641V1402ZM30 135H165V0H30V135Z" />
<glyph unicode="&quot;" glyph-name="quotedbl" horiz-adv-x="422" d="M40 970L30 1402H165L155 970H40ZM267 969L257 1402H392L382 969H267Z" />
<glyph unicode="#" glyph-name="numbersign" horiz-adv-x="787" d="M30 858V993H257L310 1344L320 1411L454 1391Q427 1217 394 993H481L534 1344L544 1411L678 1391Q653 1225 618 993H757V858H597L550 543H757V408H530Q493 162 467 -10L333 10L393 408H306Q269
162 243 -10L109 10L169 408H30V543H189L237 858H30ZM373 858L326 543H413L461 858H373Z" />
<glyph unicode="$" glyph-name="dollar" horiz-adv-x="407" d="M271 -106H136V11Q105 25 81 48Q30 99 30 171V450H165V171Q165 155 177 144Q188 133 203 133Q219 133 230 144Q242 155 242 171V593Q242 620 188 633Q109 652 79 676Q30 716 30 805V1227Q30 1298
81 1349Q105 1373 136 1386V1504H271V1386Q302 1373 326 1349Q377 1298 377 1227V948H242V1227Q242 1242 230 1253Q219 1265 203 1265Q188 1265 177 1253Q165 1242 165 1227V805Q165 777 219 764Q298 745 328 721Q377 682 377 593V171Q377 99 326 48Q302 25 271
11V-106Z" />
<glyph unicode="%" glyph-name="percent" horiz-adv-x="960" d="M772 546T756 546Q741 546 729 534Q718 523 718 507V173Q718 157 729 146Q741 135 756 135Q772 135 783 146Q795 157 795 173V507Q795 523 783 534Q772 546 756 546ZM828 681T879 630Q930 579 930
507V173Q930 101 879 50Q828 0 756 0Q685 0 634 50Q583 101 583 173V507Q583 579 634 630Q685 681 756 681Q828 681 879 630ZM219 1267T203 1267Q188 1267 177 1255Q165 1244 165 1229V894Q165 879 177 867Q188 856 203 856Q219 856 230 867Q242 879 242 894V1229Q242
1244 230 1255Q219 1267 203 1267ZM275 1402T326 1351Q377 1300 377 1229V894Q377 823 326 772Q275 721 203 721Q132 721 81 772Q30 823 30 894V1229Q30 1300 81 1351Q132 1402 203 1402Q275 1402 326 1351ZM517 1402L306 0H443Q476 220 548 700Q621 1185 654 1402H517Z"
/>
<glyph unicode="&amp;" glyph-name="ampersand" horiz-adv-x="457" d="M242 783V870H377V783H455V669H377V131Q377 50 323 2Q274 -40 203 -40Q133 -40 84 2Q30 50 30 131V609Q30 674 77 715Q30 756 30 821V1299Q30 1380 84 1427Q133 1470 203 1470Q274 1470 323
1427Q377 1380 377 1299V1116H242V1299Q242 1337 203 1337Q165 1337 165 1299V821Q165 783 203 783H242ZM242 669H203Q165 669 165 631V131Q165 93 203 93Q242 93 242 131V669Z" />
<glyph unicode="&apos;" glyph-name="quotesingle" horiz-adv-x="195" d="M40 970L30 1402H165L155 970H40Z" />
<glyph unicode="(" glyph-name="parenleft" horiz-adv-x="301" d="M271 135V0H203Q132 0 81 50Q30 101 30 173V1229Q30 1300 81 1351Q132 1402 203 1402H271V1267H203Q188 1267 177 1255Q165 1244 165 1229V173Q165 157 177 146Q188 135 203 135H271Z" />
<glyph unicode=")" glyph-name="parenright" horiz-adv-x="301" d="M30 0V135H98Q113 135 125 146Q136 157 136 173V1229Q136 1244 125 1255Q113 1267 98 1267H30V1402H98Q169 1402 220 1351Q271 1300 271 1229V173Q271 101 220 50Q169 0 98 0H30Z" />
<glyph unicode="*" glyph-name="asterisk" horiz-adv-x="695" d="M280 1402H415V1184L623 1251L665 1123L457 1055L585 878L476 799L347 976L219 799L109 878L238 1055L30 1123L72 1251L280 1184V1402Z" />
<glyph unicode="+" glyph-name="plus" horiz-adv-x="407" d="M30 613V748H136V962H271V748H377V613H271V400H136V613H30Z" />
<glyph unicode="," glyph-name="comma" horiz-adv-x="195" d="M80 0H30V135H165V0L85 -185H10L80 0Z" />
<glyph unicode="-" glyph-name="hyphen" horiz-adv-x="387" d="M50 463V598H337V463H50Z" />
<glyph unicode="." glyph-name="period" horiz-adv-x="1547" d="M100 -282V1428H1435V-282H100ZM135 -242H1399V1398H135V-242ZM725 471H728L739 470V452Q741 382 741 326L734 324H728Q725 395 725 462V465V471ZM1224 471H1225L1239 470Q1238 461 1238 457Q1238
402 1241 326L1230 324H1226Q1224 382 1223 453Q1224 465 1224 471ZM790 466H794Q794 464 801 454Q797 436 797 424V406Q797 362 812 348H813Q834 348 848 465H850Q862 461 863 461Q857 403 857 375Q857 344 869 344Q871 328 871 324H863Q850 324 843 356H842Q831
328 815 328H810Q790 328 783 389Q782 393 782 411V422Q782 447 790 466ZM1094 466H1100Q1112 466 1128 438Q1140 416 1140 394V385Q1140 348 1100 327Q1093 324 1086 324H1079Q1049 324 1044 367V376Q1044 426 1084 464Q1092 466 1094 466ZM249 462H258Q286 457
286 422Q286 388 253 373Q241 368 226 366V329H225Q220 329 211 332V366H206L201 367Q201 378 206 386H211V386Q211 427 205 427Q199 434 199 438Q217 462 249 462ZM1059 376V368Q1059 347 1084 344Q1106 344 1121 371Q1126 379 1126 389V392Q1126 419 1100 445Q1097
445 1097 447Q1080 447 1062 397Q1059 386 1059 376ZM224 435Q225 400 225 388Q226 388 226 386Q255 392 263 403Q271 413 271 421Q271 439 256 442H250Q224 439 224 435ZM404 438Q423 438 432 389Q431 389 417 385Q411 418 404 418Q387 409 384 343Q385 329 385
328Q375 326 370 326Q357 395 357 413Q369 415 372 415V414Q372 410 375 395H376Q386 438 404 438ZM537 432Q557 432 570 400Q572 391 572 383V380Q572 344 537 327Q532 326 528 326Q501 330 501 364Q501 414 526 429Q528 430 537 432ZM614 432Q633 432 650 343Q651
343 651 336Q643 329 639 329Q624 391 616 409Q607 396 598 339Q597 339 593 329H586Q579 329 577 386Q575 400 575 409Q582 411 589 411Q592 394 592 391H593Q600 432 614 432ZM1185 432Q1201 432 1220 336Q1211 329 1207 329Q1192 395 1183 409Q1177 397 1164
335Q1161 329 1160 329H1154Q1147 329 1144 409Q1150 411 1159 411Q1160 392 1160 389H1161Q1168 432 1185 432ZM472 430Q490 425 490 413V412Q490 410 480 404H479Q475 411 466 411Q453 411 450 400Q450 395 479 394Q499 383 499 360Q499 335 479 326L471 324H466Q442
324 432 347V348Q433 351 441 359H442Q454 344 470 344Q484 348 484 360Q480 375 463 375Q435 375 435 397V400Q435 430 472 430ZM912 430Q925 430 932 412V411Q921 404 918 404Q918 410 907 411Q895 411 890 401V400Q890 395 919 394Q938 385 938 358Q938 332
914 324H906Q883 324 871 347V348Q879 359 881 359H882Q894 344 909 344Q923 348 923 360Q923 372 907 375Q882 375 877 386Q875 397 875 400Q875 430 912 430ZM1249 429V429Q1262 427 1263 427Q1262 409 1262 401V392Q1264 357 1275 357H1276Q1294 370 1294 424V424H1309V421Q1316
343 1316 333Q1316 287 1286 277Q1284 277 1281 277H1276Q1258 277 1253 296Q1252 301 1252 306V306Q1252 321 1255 321H1256Q1265 315 1268 315L1267 306Q1267 298 1276 297H1278Q1301 297 1301 339Q1301 344 1300 360H1299Q1291 336 1273 336H1272Q1253 336 1247
383V400Q1247 410 1249 429ZM331 428Q354 424 354 406V400Q354 380 315 364H305Q305 353 322 348Q333 348 343 366H347Q355 354 355 351Q338 329 325 329H318Q292 329 288 374Q288 414 320 427L331 428ZM681 428H692Q719 419 719 383Q718 362 718 348Q718 348 720
332Q711 324 707 324H706L704 335Q692 327 681 327H674Q652 330 652 348V356Q652 386 684 391Q695 390 704 385V386Q700 411 687 411Q678 411 669 401H666Q664 402 658 412V414Q670 428 681 428ZM983 428Q1007 424 1007 405Q1007 376 965 364H958V362Q965 348 974
348Q984 348 997 366H998Q999 366 1007 354Q1007 345 986 332Q982 329 977 329H970Q946 329 941 373Q941 413 971 427L983 428ZM516 365Q518 347 528 347H531Q555 354 557 382V385Q551 411 537 411H535Q522 411 517 379Q516 372 516 365ZM305 385Q324 385 338 403V405Q331
407 329 407Q313 407 305 388V385ZM958 385H961Q978 385 992 404Q986 407 983 407H980Q964 407 958 386V385ZM667 354V351Q667 348 677 345Q694 345 702 362Q694 369 683 369Q667 366 667 354ZM618 254Q631 254 633 220V217L627 216H625Q622 237 617 237Q611 237
609 218Q610 216 610 214Q610 204 612 175Q617 178 621 178H624V163L613 160Q618 103 618 91H607Q603 145 603 156H602Q597 154 592 154V171Q598 171 602 173Q599 194 599 225Q602 254 616 254H618ZM816 254Q828 254 832 217L824 216H822V217Q822 232 815 237Q807
232 807 222Q807 214 810 176Q810 176 810 175Q815 178 820 178H821L822 170V163Q821 163 810 160L812 157Q812 145 816 91H805Q805 97 801 156Q792 154 789 154V171L800 172Q797 218 797 224Q797 254 816 254ZM709 237H713H719V228Q719 167 722 96H711Q709 161
709 198V237ZM735 237H736H744V207Q744 175 747 96H736Q733 162 733 232V235Q733 237 735 237ZM529 234Q537 232 539 232Q537 203 537 190H539L551 192V175Q550 175 537 173L541 99L539 97H531Q528 126 526 172H513V188L524 189H526V207Q526 234 529 234ZM994 234Q997
234 1006 232Q1003 219 1003 203V190H1006L1018 192V175H1015L1003 173L1008 99L1003 97H997Q994 159 994 172H979L980 180V188L991 189H992V190Q992 211 994 234ZM1140 234Q1143 234 1152 232Q1150 214 1150 198V190H1152L1164 192V184V175Q1163 175 1150 173V167Q1150
152 1154 99L1152 97H1143L1139 172H1126V188L1137 189H1138L1140 234ZM404 231H414Q428 231 437 208Q431 202 431 199H428Q419 214 407 214Q390 214 372 188Q363 169 363 154V149Q363 120 387 114Q389 113 395 113Q426 116 426 133V143Q422 146 414 146H404V163Q432
163 437 154Q439 147 439 145Q437 120 437 116Q437 105 441 90Q440 90 433 85H432Q428 85 426 107Q420 99 397 95H395Q357 95 352 146V150Q352 208 397 229L404 231ZM866 199Q889 199 900 161V147Q900 113 866 97L859 96Q843 96 835 116Q833 127 833 133V137Q833
178 852 194Q860 199 866 199ZM943 199Q958 199 977 105H976Q971 101 967 101Q952 168 943 180Q936 173 920 101L918 100H914Q908 100 905 176L913 178H915Q918 162 918 145H919Q928 199 943 199ZM487 195Q507 191 507 175Q508 175 508 173Q508 150 473 137Q468
134 458 134V133Q458 122 475 116H476Q486 116 499 132H502Q502 130 508 123V122Q494 100 479 100H473Q454 100 446 132V147Q446 180 472 193Q477 195 487 195ZM1083 195H1094Q1110 195 1118 167Q1120 151 1121 149Q1120 143 1118 123Q1120 119 1120 100L1114 96H1111L1108
108Q1098 97 1083 97H1079Q1058 100 1058 117V125Q1061 157 1088 157Q1100 157 1109 149V152Q1109 177 1091 181H1088Q1082 181 1071 173H1070Q1069 173 1064 180V182Q1074 195 1083 195ZM634 193Q636 193 645 190Q645 116 659 116Q678 128 687 182Q688 187 688
193H689Q692 193 699 190Q696 166 696 145V133Q696 124 701 114Q696 107 696 103H694Q687 107 686 129H684Q680 114 665 100H656Q636 100 636 175V185L634 193ZM843 137Q845 114 858 114H859Q875 114 886 139Q889 147 889 150Q883 181 867 181H863Q848 181 843
137ZM457 150Q480 150 496 172Q494 178 485 178H482Q463 178 457 150ZM1068 122Q1071 114 1079 114H1085Q1099 114 1107 132Q1098 140 1090 140H1088Q1068 137 1068 122ZM507 45Q508 45 524 41Q520 3 519 -51Q519 -85 529 -120Q518 -130 517 -130H516Q513 -130
510 -117H508Q508 -125 487 -133Q454 -133 440 -91Q437 -79 437 -63Q437 -15 471 -5H475Q489 -5 504 -21V-20Q504 -12 507 45ZM316 39L331 34Q329 11 329 -2V-16Q342 -13 344 -13Q346 -33 346 -37H344Q335 -38 329 -38Q332 -101 334 -129Q322 -131 317 -131V-130Q312
-69 312 -42L310 -40H296V-16H311V-7Q311 39 316 39ZM674 39H675L690 34Q688 6 688 -11V-16Q702 -13 704 -13L705 -27V-37Q689 -38 689 -39Q689 -62 694 -129Q681 -131 677 -131V-130Q672 -55 672 -40H654V-16H671Q671 18 674 39ZM546 36Q555 36 557 22V21Q557
10 549 5H542Q534 10 534 22Q536 36 546 36ZM607 -5Q632 -5 648 -43Q650 -54 650 -60V-69Q650 -109 611 -129Q607 -131 598 -131Q571 -131 566 -90V-76Q566 -25 596 -7Q606 -5 607 -5ZM800 -5H805Q816 -5 816 -8V-10Q825 -5 835 -5Q860 -5 868 -49Q868 -60 869
-63Q866 -115 838 -127L830 -128H820L821 -136Q821 -142 822 -176H805Q800 -44 800 -5ZM915 -5Q938 -5 954 -40Q958 -53 958 -64Q958 -107 920 -129Q912 -131 906 -131Q884 -131 875 -104Q873 -92 873 -81Q873 -27 903 -7Q914 -5 915 -5ZM1117 -5Q1141 -5 1156
-40Q1160 -48 1160 -59V-67Q1160 -110 1121 -129Q1117 -131 1108 -131Q1080 -131 1076 -90V-76Q1076 -25 1106 -7Q1116 -5 1117 -5ZM1211 -5Q1228 -5 1238 -63H1239Q1247 -5 1266 -5H1267Q1291 -5 1307 -123H1305Q1294 -128 1292 -128H1291Q1272 -30 1266 -30Q1256
-52 1249 -112Q1246 -122 1239 -122Q1231 -122 1228 -107Q1215 -31 1209 -31Q1193 -89 1193 -124Q1183 -128 1176 -128V-127L1164 -23Q1177 -17 1181 -17Q1183 -25 1185 -48H1187Q1196 -5 1211 -5ZM258 -6Q282 -11 282 -27V-28Q281 -30 270 -37H267Q267 -30 254
-29H253Q240 -29 233 -39V-43Q233 -49 264 -49Q291 -61 291 -87V-92Q291 -120 269 -130Q264 -133 259 -133H250Q227 -133 211 -108Q211 -103 222 -92H225Q233 -110 255 -110Q273 -110 273 -90Q273 -75 252 -72Q225 -72 220 -60Q216 -52 216 -48V-40Q216 -6 258
-6ZM713 -7Q725 -11 728 -11Q727 -34 727 -45V-51Q727 -84 739 -95H744Q766 -77 766 -23V-13H783V-14Q791 -103 791 -117V-127Q791 -171 763 -187Q753 -191 747 -191Q725 -191 718 -171Q716 -167 716 -162V-153Q716 -138 720 -138L734 -145L733 -153V-157Q733 -165
744 -167H748Q768 -167 773 -134Q774 -130 774 -122V-102L773 -89H772Q762 -119 743 -119H741Q718 -119 711 -69Q710 -61 710 -49V-40Q710 -7 713 -7ZM1033 -8H1041Q1047 -8 1056 -17Q1067 -29 1067 -35Q1056 -48 1055 -48V-48Q1044 -33 1037 -33H1035Q1023 -38
1017 -61L1013 -82Q1013 -104 1027 -106H1030Q1041 -106 1064 -90H1065Q1071 -110 1071 -112Q1046 -130 1024 -130Q1001 -130 996 -84Q996 -50 1015 -20Q1027 -8 1033 -8ZM537 -10H549L555 -11Q555 -14 554 -19Q555 -86 558 -128H540L539 -120Q537 -52 537 -10ZM350
-11Q367 -16 367 -17V-37Q367 -104 379 -104H384Q401 -85 408 -49Q413 -39 414 -11H416Q431 -13 431 -17Q428 -59 428 -76V-86Q428 -96 433 -106Q433 -112 423 -124V-124Q411 -112 411 -99H410Q399 -128 382 -128H379Q350 -128 350 -35V-11ZM454 -67Q454 -101 484
-107H487Q499 -107 502 -81V-78Q502 -42 481 -30L475 -29H473Q456 -29 454 -64V-67ZM583 -82Q583 -104 598 -107H602Q617 -107 631 -78Q633 -74 633 -69V-60Q626 -29 609 -29H607Q586 -29 583 -82ZM816 -37Q816 -40 819 -104L826 -105Q848 -105 852 -63Q849 -29
835 -29H834Q824 -29 816 -37ZM890 -82V-87Q890 -104 905 -107H907Q923 -107 937 -81Q941 -73 941 -63Q935 -29 913 -29Q894 -29 890 -82ZM1092 -82Q1092 -107 1109 -107H1112Q1126 -107 1141 -77Q1143 -71 1143 -67V-60Q1135 -29 1118 -29H1117Q1097 -29 1092
-82ZM977 -96Q986 -96 989 -110V-115Q986 -128 977 -128Q968 -128 966 -113Q967 -96 977 -96ZM717 1368V1126H456Q402 1126 353 1088V1098Q500 1368 717 1368ZM800 1368H810Q942 1368 1089 1219Q1145 1151 1145 1126H800V1368ZM428 1042H717V948Q682 967 642 967H428Q409
967 409 986V1023Q412 1042 428 1042ZM800 1042H1183L1192 948V930Q1192 745 1061 632H894Q800 644 800 725V1042ZM325 967H334Q334 895 474 883H651Q717 883 717 818V715Q717 632 614 632H456Q325 752 325 911V967ZM754 604H763Q824 548 950 548V538Q842 501 763
501H754Q674 501 567 538V548Q699 548 754 604Z" />
<glyph unicode="/" glyph-name="slash" horiz-adv-x="337" d="M342 1402Q310 1190 237 700Q164 216 132 0H-5L205 1402H342Z" />
<glyph unicode="0" glyph-name="zero" horiz-adv-x="407" d="M377 161Q377 80 323 32Q274 -10 203 -10Q133 -10 84 32Q30 80 30 161V1239Q30 1320 84 1367Q133 1410 203 1410Q274 1410 323 1367Q377 1320 377 1239V161ZM165 161Q165 123 203 123Q242 123 242 161V1239Q242
1276 203 1276Q165 1276 165 1239V161Z" />
<glyph unicode="1" glyph-name="one" horiz-adv-x="352" d="M282 0H147V1086H-10V1222H147V1402H282V0Z" />
<glyph unicode="2" glyph-name="two" horiz-adv-x="407" d="M165 950H30V1240Q30 1321 84 1368Q133 1411 203 1411Q274 1411 323 1368Q377 1321 377 1240V897Q377 797 260 619Q165 475 165 415V135H377V0H30V415Q30 515 147 693Q242 836 242 897V1240Q242 1277
203 1277Q165 1277 165 1240V950Z" />
<glyph unicode="3" glyph-name="three" horiz-adv-x="407" d="M123 632V767H203Q219 767 230 779Q242 790 242 806V1239Q242 1276 203 1276Q165 1276 165 1239V909H30V1239Q30 1320 84 1367Q133 1410 203 1410Q274 1410 323 1367Q377 1320 377 1239V806Q377 747
341 700Q377 653 377 594V161Q377 80 323 32Q274 -10 203 -10Q133 -10 84 32Q30 80 30 161V529H165V161Q165 123 203 123Q242 123 242 161V594Q242 610 230 621Q219 632 203 632H123Z" />
<glyph unicode="4" glyph-name="four" horiz-adv-x="453" d="M458 450V315H348V0H213V315H-5L226 1402H348V450H458ZM213 450V876L119 450H213Z" />
<glyph unicode="5" glyph-name="five" horiz-adv-x="407" d="M30 572H165V163Q165 147 177 136Q188 125 203 125Q219 125 230 136Q242 147 242 163V745Q242 761 230 772Q219 783 203 783H30V1402H377V1267H165V919H203Q275 919 326 868Q377 817 377 745V163Q377
91 326 40Q275 -10 203 -10Q132 -10 81 40Q30 91 30 163V572Z" />
<glyph unicode="6" glyph-name="six" horiz-adv-x="407" d="M30 1239Q30 1320 84 1367Q133 1410 203 1410Q274 1410 323 1367Q377 1320 377 1239V918H242V1239Q242 1276 203 1276Q165 1276 165 1239V790Q187 832 223 848Q258 862 293 849Q377 817 377 684V161Q377
80 323 32Q274 -10 203 -10Q133 -10 84 32Q30 80 30 161V1239ZM242 684Q242 721 203 721Q165 721 165 684V161Q165 123 203 123Q242 123 242 161V684Z" />
<glyph unicode="7" glyph-name="seven" horiz-adv-x="442" d="M372 0H237V1267H-10V1402H372V0Z" />
<glyph unicode="8" glyph-name="eight" horiz-adv-x="407" d="M377 806Q377 740 330 700Q377 659 377 594V161Q377 80 323 32Q274 -10 203 -10Q133 -10 84 32Q30 80 30 161V594Q30 659 77 700Q30 741 30 806V1239Q30 1320 84 1367Q133 1410 203 1410Q274 1410
323 1367Q377 1320 377 1239V806ZM165 806Q165 768 203 768Q242 768 242 806V1239Q242 1276 203 1276Q165 1276 165 1239V806ZM165 161Q165 123 203 123Q242 123 242 161V594Q242 632 203 632Q165 632 165 594V161Z" />
<glyph unicode="9" glyph-name="nine" horiz-adv-x="407" d="M377 161Q377 80 323 32Q274 -10 203 -10Q133 -10 84 32Q30 80 30 161V481H165V161Q165 123 203 123Q242 123 242 161V609Q220 568 184 552Q149 537 114 550Q30 583 30 715V1239Q30 1320 84 1367Q133
1410 203 1410Q274 1410 323 1367Q377 1320 377 1239V161ZM165 715Q165 678 203 678Q242 678 242 715V1239Q242 1276 203 1276Q165 1276 165 1239V715Z" />
<glyph unicode=":" glyph-name="colon" horiz-adv-x="195" d="M30 135H165V0H30V135ZM30 982H165V847H30V982Z" />
<glyph unicode=";" glyph-name="semicolon" horiz-adv-x="195" d="M80 0H30V135H165V0L85 -185H10L80 0ZM30 982H165V847H30V982Z" />
<glyph unicode="&lt;" glyph-name="less" horiz-adv-x="359" d="M30 746L329 1043V861L169 707L329 553V371L30 668V746Z" />
<glyph unicode="=" glyph-name="equal" horiz-adv-x="457" d="M30 793V928H427V793H30ZM30 463V598H427V463H30Z" />
<glyph unicode="&gt;" glyph-name="greater" horiz-adv-x="359" d="M329 668L30 371V553L190 707L30 861V1043L329 746V668Z" />
<glyph unicode="?" glyph-name="question" horiz-adv-x="407" d="M130 271V415Q130 515 186 675T242 897V1240Q242 1277 203 1277Q165 1277 165 1240V950H30V1240Q30 1321 84 1368Q133 1411 203 1411Q274 1411 323 1368Q377 1321 377 1240V897Q377 797 321 636T265
415V271H130ZM130 135H265V0H130V135Z" />
<glyph unicode="@" glyph-name="at" horiz-adv-x="794" d="M495 433Q496 334 510 330T535 378V925Q525 1172 408 1251Q376 1272 343 1272Q310 1272 279 1251Q162 1172 152 925L151 363Q163 190 239 90Q302 8 387 8H389Q486 9 559 77Q636 148 662 268L675 333L804
306L790 242Q756 80 649 -20Q538 -122 390 -124H387Q236 -124 135 10Q32 145 30 362V925Q30 1242 205 1360Q270 1404 343 1404Q417 1404 481 1360Q560 1307 606 1201Q656 1084 656 925V378Q656 314 629 263Q603 215 563 194Q523 173 484 188Q442 205 417 260Q391
210 352 194Q314 180 277 203Q191 258 191 441V872Q191 1027 265 1091Q300 1122 343 1122Q386 1122 421 1091Q495 1027 495 872V433ZM371 360T371 441V872Q371 981 344 981T316 872V441Q316 362 322 343T343 324Q358 324 364 342Z" />
<glyph unicode="A" glyph-name="A" horiz-adv-x="407" d="M165 768H242V1240Q242 1277 203 1277Q165 1277 165 1240V768ZM242 633H165V0H30V1240Q30 1321 84 1368Q133 1411 203 1411Q274 1411 323 1368Q377 1321 377 1240V0H242V633Z" />
<glyph unicode="B" glyph-name="B" horiz-adv-x="407" d="M377 640T377 543V202Q377 119 317 59Q258 0 174 0H30V1402H174Q258 1402 317 1342Q377 1283 377 1199V859Q377 762 301 701Q377 640 377 543ZM165 633V135H174Q202 135 222 155Q242 175 242 202V566Q242
593 222 613Q202 633 174 633H165ZM165 1267V768H174Q202 768 222 788Q242 808 242 836V1199Q242 1227 222 1247Q202 1267 174 1267H165Z" />
<glyph unicode="C" glyph-name="C" horiz-adv-x="407" d="M377 469V161Q377 80 323 32Q274 -10 203 -10Q133 -10 84 32Q30 80 30 161V1239Q30 1320 84 1367Q133 1410 203 1410Q274 1410 323 1367Q377 1320 377 1239V931H242V1239Q242 1276 203 1276Q165 1276 165
1239V161Q165 123 203 123Q242 123 242 161V469H377Z" />
<glyph unicode="D" glyph-name="D" horiz-adv-x="407" d="M174 1402Q258 1402 317 1342Q377 1283 377 1199V202Q377 119 317 59Q258 0 174 0H30V1402H174ZM165 1267V135H174Q202 135 222 155Q242 175 242 202V1199Q242 1227 222 1247Q202 1267 174 1267H165Z" />
<glyph unicode="E" glyph-name="E" horiz-adv-x="304" d="M299 0H30V1402H299V1267H165V768H289V633H165V135H299V0Z" />
<glyph unicode="F" glyph-name="F" horiz-adv-x="294" d="M30 0V1402H299V1267H165V768H289V633H165V0H30Z" />
<glyph unicode="G" glyph-name="G" horiz-adv-x="407" d="M242 931V1239Q242 1276 203 1276Q165 1276 165 1239V161Q165 123 203 123Q242 123 242 161V632H203V767H377V161Q377 80 323 32Q274 -10 203 -10Q133 -10 84 32Q30 80 30 161V1239Q30 1320 84 1367Q133
1410 203 1410Q274 1410 323 1367Q377 1320 377 1239V931H242Z" />
<glyph unicode="H" glyph-name="H" horiz-adv-x="407" d="M30 0V1402H165V768H242V1402H377V0H242V633H165V0H30Z" />
<glyph unicode="I" glyph-name="I" horiz-adv-x="195" d="M30 0V1402H165V0H30Z" />
<glyph unicode="J" glyph-name="J" horiz-adv-x="407" d="M165 570V162Q165 124 203 124Q242 124 242 162V1402H377V162Q377 81 323 33Q274 -9 203 -9Q133 -9 84 33Q30 81 30 162V570H165Z" />
<glyph unicode="K" glyph-name="K" horiz-adv-x="407" d="M165 1402V768H174Q202 768 222 788Q242 808 242 836V1402H377V859Q377 762 301 701Q377 640 377 543V0H242V566Q242 593 222 613Q202 633 174 633H165V0H30V1402H165Z" />
<glyph unicode="L" glyph-name="L" horiz-adv-x="382" d="M30 1402H165V135H377V0H30V1402Z" />
<glyph unicode="M" glyph-name="M" horiz-adv-x="619" d="M30 0V1240Q30 1377 143 1406Q191 1419 236 1400Q284 1381 309 1335Q335 1381 382 1400Q428 1419 475 1406Q589 1377 589 1240V0H453V1240Q453 1277 415 1277Q377 1277 377 1240V0H242V1240Q242 1277 203
1277Q165 1277 165 1240V0H30Z" />
<glyph unicode="N" glyph-name="N" horiz-adv-x="407" d="M30 0V1240Q30 1321 84 1368Q133 1411 203 1411Q274 1411 323 1368Q377 1321 377 1240V0H242V1240Q242 1277 203 1277Q165 1277 165 1240V0H30Z" />
<glyph unicode="O" glyph-name="O" horiz-adv-x="407" d="M377 161Q377 80 323 32Q274 -10 203 -10Q133 -10 84 32Q30 80 30 161V1239Q30 1320 84 1367Q133 1410 203 1410Q274 1410 323 1367Q377 1320 377 1239V161ZM165 161Q165 123 203 123Q242 123 242 161V1239Q242
1276 203 1276Q165 1276 165 1239V161Z" />
<glyph unicode="P" glyph-name="P" horiz-adv-x="392" d="M174 1402Q258 1402 317 1342Q377 1283 377 1199V701Q377 617 317 557Q258 498 174 498H165V0H30V1402H174ZM165 1267V633H174Q202 633 222 653Q242 673 242 701V1199Q242 1227 222 1247Q202 1267 174 1267H165Z" />
<glyph unicode="Q" glyph-name="Q" horiz-adv-x="407" d="M377 174Q377 102 326 51Q302 28 271 14V-40Q271 -56 282 -67Q294 -78 309 -78V-214Q238 -214 187 -163Q136 -112 136 -40V14Q105 28 81 51Q30 102 30 174V1241Q30 1322 84 1369Q133 1412 203 1412Q274
1412 323 1369Q377 1322 377 1241V174ZM165 174Q165 136 203 136Q242 136 242 174V1241Q242 1278 203 1278Q165 1278 165 1241V174Z" />
<glyph unicode="R" glyph-name="R" horiz-adv-x="407" d="M174 1402Q258 1402 317 1342Q377 1283 377 1199V859Q377 762 301 701Q377 640 377 543V0H242V566Q242 593 222 613Q202 633 174 633H165V0H30V1402H174ZM165 768Q198 768 219 785Q242 804 242 836V1199Q242
1231 219 1250Q198 1267 165 1267V768Z" />
<glyph unicode="S" glyph-name="S" horiz-adv-x="407" d="M242 972V1239Q242 1276 203 1276Q165 1276 165 1239V873Q165 830 271 729Q377 628 377 549V161Q377 80 323 32Q274 -10 203 -10Q133 -10 84 32Q30 80 30 161V428H165V161Q165 123 203 123Q242 123 242
161V549Q242 589 136 685Q30 780 30 873V1239Q30 1320 84 1367Q133 1410 203 1410Q274 1410 323 1367Q377 1320 377 1239V972H242Z" />
<glyph unicode="T" glyph-name="T" horiz-adv-x="337" d="M236 0H101V1267H-5V1402H342V1267H236V0Z" />
<glyph unicode="U" glyph-name="U" horiz-adv-x="407" d="M242 1402H377V162Q377 81 323 33Q274 -9 203 -9Q133 -9 84 33Q30 81 30 162V1402H165V162Q165 124 203 124Q242 124 242 162V1402Z" />
<glyph unicode="V" glyph-name="V" horiz-adv-x="348" d="M129 1402L173 721L218 1402H353L236 0H111L-5 1402H129Z" />
<glyph unicode="W" glyph-name="W" horiz-adv-x="619" d="M30 1402H165V162Q165 124 203 124Q242 124 242 162V1402H377V162Q377 124 415 124Q453 124 453 162V1402H589V162Q589 37 482 0Q381 -35 309 39Q238 -35 136 0Q30 37 30 162V1402Z" />
<glyph unicode="X" glyph-name="X" horiz-adv-x="407" d="M30 1402H165V807Q165 769 203 769Q242 769 242 807V1402H377V818Q377 742 315 701Q377 659 377 584V0H242V595Q242 633 203 633Q165 633 165 595V0H30V584Q30 659 92 701Q30 742 30 818V1402Z" />
<glyph unicode="Y" glyph-name="Y" horiz-adv-x="407" d="M30 1402H165V671Q165 634 203 634Q242 634 242 671V1402H377V671Q377 552 271 512V0H136V512Q30 552 30 671V1402Z" />
<glyph unicode="Z" glyph-name="Z" horiz-adv-x="381" d="M17 1267V1402H376L164 135H364V0H5L217 1267H17Z" />
<glyph unicode="[" glyph-name="bracketleft" horiz-adv-x="329" d="M299 1402V1267H165V135H299V0H30V1402H299Z" />
<glyph unicode="\" glyph-name="backslash" horiz-adv-x="337" d="M132 1402L342 0H205Q172 216 100 700Q27 1190 -5 1402H132Z" />
<glyph unicode="]" glyph-name="bracketright" horiz-adv-x="329" d="M299 1402V0H30V135H164V1267H30V1402H299Z" />
<glyph unicode="^" glyph-name="asciicircum" horiz-adv-x="409" d="M265 866L204 1172L144 866H30L148 1402H261L379 866H265Z" />
<glyph unicode="_" glyph-name="underscore" horiz-adv-x="691" d="M-24 -135V0H713V-135H-24Z" />
<glyph unicode="`" glyph-name="grave" horiz-adv-x="246" d="M125 1076L5 1293H150L241 1076H125Z" />
<glyph unicode="a" glyph-name="a" horiz-adv-x="374" d="M344 0H209V44Q190 8 159 -4Q129 -16 100 -3Q30 28 30 145V426Q30 539 120 582Q124 583 181 604Q209 615 209 627V836Q209 857 187 857Q165 857 165 836V682H30V836Q30 909 79 952Q123 991 187 991Q251
991 295 952Q344 909 344 836V0ZM209 472Q194 470 181 458Q165 443 165 426V145Q165 124 187 124Q209 124 209 145V472Z" />
<glyph unicode="b" glyph-name="b" horiz-adv-x="374" d="M165 0H30V1402H165V937Q185 972 215 984Q245 996 274 983Q344 952 344 836V145Q344 27 274 -3Q245 -15 215 -3Q185 10 165 45V0ZM165 145Q166 124 187 124Q209 124 209 145V836Q209 857 187 857Q166 858
165 836V145Z" />
<glyph unicode="c" glyph-name="c" horiz-adv-x="374" d="M209 388H344V145Q344 71 295 28Q251 -10 187 -9Q123 -8 79 31Q30 74 30 145V836Q30 908 79 951Q123 990 187 990Q251 990 295 951Q344 909 344 836V593H209V836Q209 857 187 857Q165 857 165 836V145Q165
124 187 124Q209 124 209 145V388Z" />
<glyph unicode="d" glyph-name="d" horiz-adv-x="374" d="M209 0H344V1402H209V937Q190 972 159 984Q129 996 100 983Q30 952 30 836V145Q30 27 100 -3Q129 -15 159 -3Q190 10 209 45V0ZM209 145Q209 124 187 124Q165 124 165 145V836Q165 857 187 857Q209 858
209 836V145Z" />
<glyph unicode="e" glyph-name="e" horiz-adv-x="374" d="M209 388H344V145Q344 71 295 28Q251 -10 187 -9Q123 -8 79 31Q30 74 30 145V836Q30 907 79 951Q123 989 187 990Q251 991 295 953Q344 910 344 836V423H165V145Q165 124 187 124Q209 124 209 145V388ZM165
558H209V836Q209 857 187 857Q165 857 165 836V558Z" />
<glyph unicode="f" glyph-name="f" horiz-adv-x="341" d="M344 1036H209V1256Q209 1278 187 1278Q165 1278 165 1256V973H338V838H165V0H30V1256Q30 1329 79 1372Q123 1410 187 1410Q251 1410 295 1372Q344 1329 344 1256V1036Z" />
<glyph unicode="g" glyph-name="g" horiz-adv-x="374" d="M30 -68H165V-264Q165 -285 187 -285Q209 -285 209 -264V54Q190 19 159 7Q129 -4 100 9Q30 42 30 157V842Q30 959 100 986Q129 997 159 984Q190 970 209 934V982H344V-264Q344 -337 295 -379Q251 -418
187 -418Q123 -418 79 -379Q30 -337 30 -264V-68ZM165 157Q165 135 187 135Q209 135 209 157V831Q209 852 187 852Q165 853 165 831V157Z" />
<glyph unicode="h" glyph-name="h" horiz-adv-x="374" d="M165 0H30V1402H165V936Q185 971 215 984Q245 997 274 984Q344 954 344 836V0H209V836Q209 857 187 857Q166 857 165 836V0Z" />
<glyph unicode="i" glyph-name="i" horiz-adv-x="195" d="M165 0H30V982H165V0ZM165 1167H30V1302H165V1167Z" />
<glyph unicode="j" glyph-name="j" horiz-adv-x="219" d="M-125 -47H10V-264Q10 -285 32 -285Q54 -285 54 -264V982H189V-264Q189 -337 140 -379Q96 -418 32 -418Q-32 -418 -76 -379Q-125 -337 -125 -264V-47ZM189 1167H54V1302H189V1167Z" />
<glyph unicode="k" glyph-name="k" horiz-adv-x="374" d="M165 0H30V1402H165V558Q192 558 197 560Q209 563 209 580V982H344V603Q344 563 329 532Q310 495 274 491Q310 486 329 449Q344 418 344 379V0H209V401Q209 418 197 421Q192 423 165 423V0Z" />
<glyph unicode="l" glyph-name="l" horiz-adv-x="195" d="M165 0H30V1402H165V0Z" />
<glyph unicode="m" glyph-name="m" horiz-adv-x="553" d="M370 1013T444 979Q523 942 523 836V0H388V836Q388 857 366 857Q344 857 344 836V0H209V836Q209 857 187 857Q166 857 165 836V0H30V982H165V936Q191 983 233 989Q275 996 307 960Q370 1013 444 979Z" />
<glyph unicode="n" glyph-name="n" horiz-adv-x="374" d="M165 0H30V982H165V936Q185 971 215 984Q245 997 274 984Q344 954 344 836V0H209V836Q209 857 187 857Q166 857 165 836V0Z" />
<glyph unicode="o" glyph-name="o" horiz-adv-x="374" d="M165 152Q165 130 187 130Q209 130 209 152V831Q209 852 187 852Q165 852 165 831V152ZM344 152Q344 77 295 33Q251 -7 187 -8Q123 -10 79 27Q30 69 30 140V831Q30 903 79 946Q123 985 187 985Q251 985
295 946Q344 904 344 831V152Z" />
<glyph unicode="p" glyph-name="p" horiz-adv-x="374" d="M165 -421H30V982H165V937Q185 972 215 984Q245 996 274 983Q344 952 344 836V145Q344 27 274 -3Q245 -15 215 -3Q185 10 165 45V-421ZM165 145Q166 124 187 124Q209 124 209 145V836Q209 857 187 857Q166
858 165 836V145Z" />
<glyph unicode="q" glyph-name="q" horiz-adv-x="374" d="M209 -421H344V982H209V937Q190 972 159 984Q129 996 100 983Q30 952 30 836V145Q30 27 100 -3Q129 -15 159 -3Q190 10 209 45V-421ZM209 145Q209 124 187 124Q165 124 165 145V836Q165 857 187 857Q209
858 209 836V145Z" />
<glyph unicode="r" glyph-name="r" horiz-adv-x="357" d="M165 937Q185 972 215 984Q245 996 274 983Q344 952 344 836V378H209V825Q209 846 187 846Q166 846 165 825V0H30V982H165V937Z" />
<glyph unicode="s" glyph-name="s" horiz-adv-x="374" d="M344 625H209V836Q209 857 187 857Q165 857 165 836V625Q165 591 227 545Q286 501 308 472Q344 424 344 356V145Q344 72 295 29Q251 -10 187 -10Q123 -10 79 29Q30 72 30 145V356H165V145Q165 124 187
124Q209 124 209 145V356Q209 390 147 436Q88 480 67 509Q30 557 30 625V836Q30 909 79 951Q123 990 187 990Q251 990 295 951Q344 909 344 836V625Z" />
<glyph unicode="t" glyph-name="t" horiz-adv-x="357" d="M209 457H344V145Q344 71 295 28Q251 -10 187 -9Q123 -8 79 31Q30 74 30 145V1402H165V982H338V846H165V145Q165 124 187 124Q209 124 209 145V457Z" />
<glyph unicode="u" glyph-name="u" horiz-adv-x="374" d="M209 43Q190 8 159 -4Q129 -16 100 -3Q30 28 30 145V982H165V145Q165 124 187 124Q209 124 209 145V982H344V0H209V43Z" />
<glyph unicode="v" glyph-name="v" horiz-adv-x="316" d="M130 982L158 495L186 982H321L217 0H99L-5 982H130Z" />
<glyph unicode="w" glyph-name="w" horiz-adv-x="553" d="M30 982H165V145Q165 124 187 124Q209 124 209 145V982H344V145Q344 124 366 124Q388 124 388 145V982H523V145Q523 23 424 -5Q383 -16 342 -1Q300 15 277 55Q253 15 211 -1Q170 -16 129 -5Q30 23 30 145V982Z" />
<glyph unicode="x" glyph-name="x" horiz-adv-x="374" d="M30 982H165V580Q165 559 187 559Q209 558 209 580V982H344V603Q344 532 300 490Q344 448 344 379V0H209V401Q209 423 187 423Q165 423 165 401V0H30V379Q30 448 76 491Q30 534 30 603V982Z" />
<glyph unicode="y" glyph-name="y" horiz-adv-x="374" d="M209 981H344V-264Q344 -329 298 -375Q252 -421 187 -421Q122 -421 76 -375Q30 -329 30 -264V-92H165V-264Q165 -273 172 -279Q178 -286 187 -286Q196 -286 202 -279Q209 -273 209 -264V55Q190 20 159
7Q129 -5 100 8Q30 39 30 157V982H165V157Q165 135 187 135Q209 135 209 157V981Z" />
<glyph unicode="z" glyph-name="z" horiz-adv-x="335" d="M11 846V982H340L161 135H325V0H-5L174 846H11Z" />
<glyph unicode="{" glyph-name="braceleft" horiz-adv-x="332" d="M-5 760L10 773Q46 803 55 828Q60 846 60 894V1229Q60 1300 111 1351Q162 1402 234 1402H302V1267H234Q218 1267 207 1255Q196 1244 196 1229V894Q196 824 182 785Q169 745 138 710Q196 606 196
481V173Q196 157 207 146Q218 135 234 135H302V0H234Q162 0 111 50Q60 101 60 173V481Q60 581 -4 685L-5 687V760Z" />
<glyph unicode="|" glyph-name="bar" horiz-adv-x="195" d="M30 1402H165V0H30V1402Z" />
<glyph unicode="}" glyph-name="braceright" horiz-adv-x="332" d="M337 687L336 685Q272 581 272 481V173Q272 101 221 50Q170 0 98 0H30V135H98Q114 135 125 146Q136 157 136 173V481Q136 606 194 710Q163 745 150 785Q136 824 136 894V1229Q136 1244 125 1255Q114
1267 98 1267H30V1402H98Q170 1402 221 1351Q272 1300 272 1229V894Q272 846 277 828Q286 803 322 773L337 760V687Z" />
<glyph unicode="~" glyph-name="asciitilde" horiz-adv-x="479" d="M434 600Q389 576 344 572Q308 569 274 578Q254 583 218 599Q194 609 181 613Q161 619 144 617Q94 613 45 573V716Q95 750 135 753Q170 756 204 747Q224 742 261 726Q285 716 297 712Q317 706
334 708Q391 712 434 747V600Z" />
</font>
</defs>
</svg>
