<?xml version="1.0" standalone="no"?>
<!DOCTYPE svg PUBLIC "-//W3C//DTD SVG 1.1//EN" "http://www.w3.org/Graphics/SVG/1.1/DTD/svg11.dtd" >
<svg xmlns="http://www.w3.org/2000/svg" xmlns:xlink="http://www.w3.org/1999/xlink" version="1.1">
<metadata>
Created by FontForge 20190801 at Tue Aug  9 15:27:01 2005
 By Jimmy Wärting
\251 Rian Hughes 1993. A Device font. All rights reserved. Device: 6 Salem Road, London W2 4BU. 0171 221 9580 Fax 0171 221 9589 Answerphone 0181 579 6669. e-mail: rianhughes@aol.com or 74774.1365@compuserve.com All rights reserved.
</metadata>
<defs>
<font id="Ainsdale-Bold" horiz-adv-x="260" >
  <font-face 
    font-family="Ainsdale"
    font-weight="700"
    font-stretch="normal"
    units-per-em="1000"
    panose-1="2 0 8 8 5 0 0 2 0 4"
    ascent="800"
    descent="-200"
    x-height="702"
    cap-height="802"
    bbox="-36 -143 995.2 1023"
    underline-thickness="20"
    underline-position="-133"
    unicode-range="U+0020-2212"
  />
<missing-glyph horiz-adv-x="500" 
 />
    <glyph glyph-name=".notdef" horiz-adv-x="500" 
 />
    <glyph glyph-name=".null" horiz-adv-x="0" 
 />
    <glyph glyph-name="nonmarkingreturn" horiz-adv-x="115" 
 />
    <glyph glyph-name="space" unicode=" " horiz-adv-x="115" 
 />
    <glyph glyph-name="exclam" unicode="!" horiz-adv-x="178" 
d="M173 50q0 -24 -19.5 -40t-49.5 -16q-29 0 -49 16t-20 40t20 40t49 16q30 0 49.5 -16t19.5 -40zM146 156h-79l-15 645h109z" />
    <glyph glyph-name="quotedbl" unicode="&#x22;" horiz-adv-x="184" 
d="M89 546h-52l-9 254h70zM170 546h-52l-8 254h69z" />
    <glyph glyph-name="numbersign" unicode="#" horiz-adv-x="384" 
d="M180 298l-14 -79h25l14 79h-25zM309 377h44v-79h-58l-15 -79h73v-79h-88l-26 -142h-90l27 142h-25l-27 -142h-90l27 142h-41v79h56l15 79h-71v79h86l80 423h88l-79 -423h25l81 423h88z" />
    <glyph glyph-name="dollar" unicode="$" horiz-adv-x="252" 
d="M243 365h-95v251q0 12 -10 12t-10 -12v-303q0 -14 9 -18.5t21 -8.5l30 -9q29 -8 41.5 -24.5t12.5 -38.5l1 -122q0 -42 -17.5 -64t-48.5 -30v-66h-76v67q-32 8 -50.5 30.5t-18.5 58.5v68h96v-77q0 -10 9 -10q11 0 11 10v107q0 9 -8 17t-22 12l-38 11q-48 14 -48 72v311
q0 43 18.5 64.5t50.5 28.5v99h76v-101q31 -8 49 -30.5t18 -58.5z" />
    <glyph glyph-name="percent" unicode="%" horiz-adv-x="608" 
d="M140 718q0 12 -10 12t-10 -12v-411q0 -10 9 -10q11 0 11 10v411zM502 491q0 12 -10 12t-10 -12v-411q0 -10 9 -10q11 0 11 10v411zM235 318q0 -55 -28.5 -76t-76.5 -21t-76.5 23.5t-28.5 70.5v393q0 54 28.5 75.5t76.5 21.5t77 -23.5t29 -70.5zM276 -2h-80l152 802h78z
M597 90q0 -54 -28.5 -75.5t-76.5 -21.5t-76.5 23.5t-28.5 70.5v394q0 54 28.5 75.5t76.5 21.5t77 -23.5t29 -70.5z" />
    <glyph glyph-name="ampersand" unicode="&#x26;" horiz-adv-x="273" 
d="M152 221h-5q-6 0 -11.5 -5t-5.5 -14v-122q0 -14 11 -14t11 15v140zM250 221v-123q0 -31 -9 -51t-24 -32t-35 -16.5t-41 -4.5q-20 0 -39.5 5t-35 17t-25 32t-9.5 50v132q0 24 12.5 39.5t24.5 23.5q-12 7 -24.5 19t-12.5 34v355q0 30 9.5 50t25.5 32t35.5 17t39.5 5
q21 0 40.5 -4.5t34.5 -16.5t24 -32t9 -50v-247h-99v267q0 4 -2 7.5t-8 3.5t-8.5 -3.5t-2.5 -7.5v-401q0 -23 17 -23h5v79h98v-79h28v-77h-28z" />
    <glyph glyph-name="quotesingle" unicode="'" horiz-adv-x="104" 
d="M89 546h-52l-9 254h71z" />
    <glyph glyph-name="parenleft" unicode="(" horiz-adv-x="168" 
d="M138 -69q-60 0 -82.5 20t-22.5 58v787q0 36 22.5 56t82.5 20h40v-67h-27q-20 0 -20 -21v-765q0 -21 20 -21h27v-67h-40z" />
    <glyph glyph-name="parenright" unicode=")" horiz-adv-x="176" 
d="M166 9q0 -38 -23 -58t-83 -20h-40v67h27q20 0 20 21v767q0 21 -20 21h-27v67h40q60 0 83 -20t23 -56v-789z" />
    <glyph glyph-name="asterisk" unicode="*" horiz-adv-x="317" 
d="M281 542l-80 54l6 -96h-71l6 101l-84 -56l-36 61l87 43l-86 43l35 62l85 -57l-6 103h71l-7 -98l81 53l35 -61l-91 -45l91 -46z" />
    <glyph glyph-name="plus" unicode="+" horiz-adv-x="190" 
d="M152 223v-69h-95v69h-37v72h37v67h95v-67h36v-72h-36z" />
    <glyph glyph-name="comma" unicode="," horiz-adv-x="100" 
d="M80 -67h-52v254h70z" />
    <glyph glyph-name="hyphen" unicode="-" horiz-adv-x="247" 
d="M20 219v79h218v-79h-218z" />
    <glyph glyph-name="hyphen" unicode="&#xad;" horiz-adv-x="247" 
d="M20 219v79h218v-79h-218z" />
    <glyph glyph-name="period" unicode="." horiz-adv-x="158" 
d="M158 50q0 -24 -19.5 -40t-49.5 -16q-29 0 -49 16t-20 40t20 40t49 16q30 0 49.5 -16t19.5 -40z" />
    <glyph glyph-name="slash" unicode="/" horiz-adv-x="247" 
d="M102 -2h-80l152 802h78z" />
    <glyph glyph-name="zero" unicode="0" 
d="M151 722q0 4 -2 7.5t-8 3.5t-8 -3.5t-2 -7.5v-645q0 -4 1.5 -7.5t7.5 -3.5t8.5 3.5t2.5 7.5v645zM250 98q0 -30 -9.5 -50t-25.5 -32t-35.5 -17t-39.5 -5q-21 0 -40.5 4.5t-34.5 16.5t-24 32t-9 51v603q0 31 9 51t24 32t34.5 16.5t40.5 4.5q20 0 39.5 -5t35.5 -17
t25.5 -32t9.5 -49v-604z" />
    <glyph glyph-name="one" unicode="1" horiz-adv-x="139" 
d="M33 0v727h-23v74h119v-801h-96z" />
    <glyph glyph-name="two" unicode="2" 
d="M32 0v224q0 51 48 68l45 16q15 5 20.5 13t5.5 23v378q0 4 -2 7.5t-8 3.5t-8 -3.5t-2 -8.5v-343h-99v323q0 31 9 51t24 32t34.5 16.5t40.5 4.5q20 0 39.5 -5t35.5 -17t25.5 -32t9.5 -49v-386q0 -47 -47 -67l-54 -23q-14 -6 -16 -13.5t-2 -20.5v-117h119v-75h-218z" />
    <glyph glyph-name="three" unicode="3" 
d="M250 98q0 -30 -9.5 -50t-25.5 -32t-35.5 -17t-38.5 -5q-21 0 -41 4.5t-35 16.5t-24 32t-9 51v46h98v-63q0 -15 11 -15t11 14v122q0 9 -5.5 14t-11.5 5h-44v77h44q17 0 17 23v401q0 4 -2.5 7.5t-8.5 3.5t-8 -3.5t-2 -7.5v-345h-99v324q0 31 9 51t24 32t34.5 16.5t40.5 4.5
q20 0 39.5 -5t35.5 -17t25.5 -31.5t9.5 -49.5v-356q0 -22 -12.5 -34t-24.5 -19q12 -8 24.5 -23.5t12.5 -39.5v-132z" />
    <glyph glyph-name="four" unicode="4" horiz-adv-x="272" 
d="M151 730q-7 0 -13.5 -2t-6.5 -16v-413h20v431zM250 222v-224h-99v224h-119v457q0 43 9.5 67.5t24.5 36.5t32.5 14.5t32.5 2.5h119v-501h27v-77h-27z" />
    <glyph glyph-name="five" unicode="5" horiz-adv-x="252" 
d="M250 98q0 -30 -9.5 -50t-25.5 -32t-35.5 -17t-39.5 -5q-21 0 -40.5 4.5t-34.5 16.5t-24 32t-9 51v49h99v-66q0 -13 11 -13q5 0 7 4t2 8v117q0 25 -29 25h-79v580h197v-77h-98v-425h12q21 0 38.5 -5t30 -16.5t20 -31.5t7.5 -50v-99z" />
    <glyph glyph-name="six" unicode="6" horiz-adv-x="258" 
d="M151 207q0 5 -2 10t-8 5h-10v-140q0 -14 10 -14t10 14v125zM250 87q0 -44 -30 -68.5t-81 -24.5t-79 24.5t-28 69.5v615q0 47 25 75t82 28t84 -27.5t27 -72.5v-328h-99v335q0 5 -1 10.5t-9 5.5t-9 -5t-1 -11v-414h21q20 0 37.5 -4.5t31 -16t21.5 -32.5t8 -54v-105z" />
    <glyph glyph-name="seven" unicode="7" horiz-adv-x="211" 
d="M206 349q0 -39 -11 -56.5t-25 -27.5l-31 -22q-18 -13 -18 -41v-202h-97v211q0 20 4 33.5t10.5 22t14.5 14t15 10.5l24 17q14 8 14 41v372h-82v77h182v-449z" />
    <glyph glyph-name="eight" unicode="8" 
d="M151 201q0 16 -11 16q-9 0 -9 -16v-116q0 -15 9 -15q11 0 11 15v116zM151 716q0 14 -11 14q-9 0 -9 -14v-403q0 -14 11 -14q9 0 9 15v402zM250 98q0 -30 -9.5 -50t-25.5 -32t-35.5 -17t-39.5 -5q-21 0 -40.5 4.5t-34.5 16.5t-24 32t-9 51v129q0 23 11.5 41t31.5 25
q-23 6 -33 22t-10 38v348q0 31 9 51t24 32t34.5 16.5t40.5 4.5q20 0 39.5 -4.5t35.5 -16t25.5 -31t9.5 -49.5v-351q0 -22 -10 -38t-33 -22q20 -7 31.5 -25t11.5 -41v-129z" />
    <glyph glyph-name="nine" unicode="9" horiz-adv-x="261" 
d="M152 716q0 14 -10 14t-10 -14v-403q0 -5 2 -10t8 -5h10v418zM251 95q0 -47 -25 -74.5t-82 -27.5t-84 27t-27 73v52h99v-60q0 -5 1 -10t9 -5t9 5t1 11v135h-21q-20 0 -37.5 4.5t-31 16.5t-21.5 33t-8 54v382q0 44 30 68.5t81 24.5t79 -24.5t28 -69.5v-615z" />
    <glyph glyph-name="colon" unicode=":" horiz-adv-x="158" 
d="M158 50q0 -24 -19.5 -40t-49.5 -16q-29 0 -49 16t-20 40t20 40t49 16q30 0 49.5 -16t19.5 -40zM158 652q0 -24 -19.5 -40t-49.5 -16q-29 0 -49 16t-20 40t20 40t49 16q30 0 49.5 -16t19.5 -40z" />
    <glyph glyph-name="semicolon" unicode=";" horiz-adv-x="153" 
d="M85 -67h-52v254h70zM153 652q0 -24 -19.5 -40t-49.5 -16q-29 0 -49 16t-20 40t20 40t49 16q30 0 49.5 -16t19.5 -40z" />
    <glyph glyph-name="semicolon" unicode="&#x37e;" horiz-adv-x="153" 
d="M85 -67h-52v254h70zM153 652q0 -24 -19.5 -40t-49.5 -16q-29 0 -49 16t-20 40t20 40t49 16q30 0 49.5 -16t19.5 -40z" />
    <glyph glyph-name="less" unicode="&#x3c;" horiz-adv-x="192" 
d="M106 110l-96 153l96 154h96l-96 -154l96 -153h-96z" />
    <glyph glyph-name="equal" unicode="=" horiz-adv-x="247" 
d="M20 140v79h218v-79h-218zM20 298v79h218v-79h-218z" />
    <glyph glyph-name="greater" unicode="&#x3e;" horiz-adv-x="190" 
d="M102 108h-92l95 153l-95 154h92l98 -154z" />
    <glyph glyph-name="question" unicode="?" 
d="M196 50q0 -24 -20 -40t-49 -16t-49 16t-20 40t20 40t49 16t49 -16t20 -40zM248 329q0 -19 -4.5 -32.5t-11.5 -24.5l-38 -47q-5 -5 -9 -14q-3 -8 -5.5 -21t-0.5 -34h-100v11q0 22 2 36t5.5 24t9 17.5t11.5 15.5l33 41q8 10 10 22.5t2 23.5v364q0 8 -1.5 13.5t-8.5 5.5
q-8 0 -9.5 -5.5t-1.5 -13.5v-333h-99v322q0 31 9 51t24 32t34.5 17t40.5 5q20 0 39.5 -5t35.5 -17t25.5 -32t9.5 -49z" />
    <glyph glyph-name="at" unicode="@" horiz-adv-x="495" 
d="M267 298h-11q-7 0 -8 -5t-1 -10v-102q0 -11 10 -11t10 12v116zM271 95v20q-7 -10 -19.5 -16.5t-25.5 -6.5q-41 0 -57.5 23t-16.5 65v107q0 44 19 65t64 21h32v247q0 10 -10 10t-10 -12v-180h-95v172q0 54 28.5 75.5t76.5 21.5t76.5 -23.5t28.5 -70.5v-518h-91zM386 709
q0 7 -4.5 10.5t-9.5 3.5h-226q-6 0 -10.5 -4t-4.5 -10v-619q0 -7 4.5 -10.5t9.5 -3.5h226q6 0 10.5 4t4.5 10v619zM485 104q0 -50 -25 -77.5t-81 -27.5h-241q-106 0 -106 106v590q0 50 25 77.5t81 27.5h241q106 0 106 -106v-590z" />
    <glyph glyph-name="A" unicode="A" 
d="M151 722q0 4 -2 7.5t-8 3.5t-8 -3.5t-2 -7.5v-424h20v424zM151 0v221h-20v-221h-99v702q0 30 9 50t24 32t34.5 16.5t40.5 4.5q20 0 39.5 -5t35.5 -17t25.5 -32t9.5 -49v-702h-99z" />
    <glyph glyph-name="B" unicode="B" 
d="M151 201q0 17 -14 17h-6v-143h5q15 0 15 14v112zM151 716q0 14 -15 14h-5v-432h6q14 0 14 16v402zM250 107q0 -62 -28 -84.5t-88 -22.5h-102v802h102q25 0 46.5 -4t37 -15.5t24 -32t8.5 -53.5v-344q0 -22 -10 -38t-33 -22q20 -7 31.5 -25t11.5 -41v-120z" />
    <glyph glyph-name="C" unicode="C" 
d="M250 98q0 -30 -9.5 -50t-25.5 -32t-35.5 -17t-39.5 -5q-21 0 -40.5 4.5t-34.5 16t-24 31.5t-9 51v604q0 31 9 51t24 32t34.5 16.5t40.5 4.5q20 0 39.5 -5t35.5 -17t25.5 -31.5t9.5 -49.5v-324h-99v344q0 4 -2 7.5t-8 3.5t-8 -3.5t-2 -7.5v-645q0 -4 1.5 -7.5t7.5 -3.5
t8.5 3.5t2.5 7.5v142h99v-121z" />
    <glyph glyph-name="D" unicode="D" 
d="M151 716q0 14 -15 14h-5v-655h5q15 0 15 14v627zM250 105q0 -62 -31 -83.5t-85 -21.5h-102v802h102q51 0 83.5 -21.5t32.5 -77.5v-598z" />
    <glyph glyph-name="E" unicode="E" horiz-adv-x="177" 
d="M32 -2v802h140v-77h-41v-427h41v-77h-41v-144h41v-77h-140z" />
    <glyph glyph-name="F" unicode="F" horiz-adv-x="172" 
d="M131 219v-219h-99v802h140v-77h-41v-429h41v-77h-41z" />
    <glyph glyph-name="G" unicode="G" horiz-adv-x="255" 
d="M250 98q0 -30 -9.5 -50t-25.5 -32t-35.5 -17t-39.5 -5q-21 0 -40.5 4.5t-34.5 16t-24 31.5t-9 51v604q0 31 9 51t24 32t34.5 16.5t40.5 4.5q20 0 39.5 -5t35.5 -17t25.5 -31.5t9.5 -49.5v-325l-99 1v344q0 4 -2 7.5t-8 3.5t-8 -3.5t-2 -7.5v-645q0 -4 1.5 -7.5t7.5 -3.5
t8.5 3.5t2.5 7.5v142h-11v78h110v-199z" />
    <glyph glyph-name="H" unicode="H" 
d="M151 0v221h-20v-221h-99v802h99v-504h20v504h99v-802h-99z" />
    <glyph glyph-name="I" unicode="I" horiz-adv-x="141" 
d="M33 0v802h98v-802h-98z" />
    <glyph glyph-name="J" unicode="J" horiz-adv-x="246" 
d="M236 98q0 -30 -9.5 -50t-24.5 -32t-34.5 -17t-39.5 -5q-21 0 -40.5 4.5t-34.5 16t-24 31.5t-9 51v201h99v-221q0 -4 2 -7.5t8 -3.5t8 3.5t2 7.5v724h97v-703z" />
    <glyph glyph-name="K" unicode="K" horiz-adv-x="257" 
d="M151 0v204q0 6 -2.5 10.5t-9.5 4.5h-8v-219h-99v802h99v-506h11q9 0 9 11v495h99v-450q0 -22 -10 -38t-33 -22q20 -7 31.5 -25.5t11.5 -41.5v-225h-99z" />
    <glyph glyph-name="L" unicode="L" horiz-adv-x="162" 
d="M32 0v802h99v-727h31v-75h-130z" />
    <glyph glyph-name="M" unicode="M" horiz-adv-x="378" 
d="M269 -2v713q0 14 -10 14h-9v-727h-99v727h-11q-9 0 -9 -14v-713h-99v701q0 102 106 102h124q56 0 81 -26t25 -75v-702h-99z" />
    <glyph glyph-name="N" unicode="N" 
d="M151 -6v728q0 4 -2 7.5t-8 3.5t-8 -3.5t-2 -7.5v-728h-99v707q0 31 9 51t24 32t34.5 16.5t40.5 4.5q20 0 39.5 -5t35.5 -17t25.5 -32t9.5 -49v-708h-99z" />
    <glyph glyph-name="O" unicode="O" 
d="M151 722q0 4 -2 7.5t-8 3.5t-8 -3.5t-2 -7.5v-645q0 -4 1.5 -7.5t7.5 -3.5t8.5 3.5t2.5 7.5v645zM250 98q0 -30 -9.5 -50t-25.5 -32t-35.5 -17t-39.5 -5q-21 0 -40.5 4.5t-34.5 16.5t-24 32t-9 51v603q0 31 9 51t24 32t34.5 16.5t40.5 4.5q20 0 39.5 -5t35.5 -17
t25.5 -32t9.5 -49v-604z" />
    <glyph glyph-name="P" unicode="P" horiz-adv-x="255" 
d="M151 716q0 14 -15 14h-5v-432h1q19 0 19 16v402zM250 329q0 -60 -27 -84t-75 -24h-17v-221h-99v802h102q28 0 49.5 -4.5t36.5 -16.5t22.5 -32t7.5 -51v-369z" />
    <glyph glyph-name="Q" unicode="Q" 
d="M151 722q0 4 -2 7.5t-8 3.5t-8 -3.5t-2 -7.5v-645q0 -4 1.5 -7.5t7.5 -3.5t8.5 3.5t2.5 7.5v645zM250 98q0 -36 -14.5 -61t-40.5 -33l48 -109h-102l-19 100q-18 1 -34.5 7.5t-29 18.5t-19.5 31t-7 46v603q0 31 9 51t24 32t34.5 16.5t40.5 4.5q20 0 39.5 -5t35.5 -17
t25.5 -32t9.5 -49v-604z" />
    <glyph glyph-name="R" unicode="R" horiz-adv-x="259" 
d="M151 709q0 16 -12 16h-8v-429h11q9 0 9 11v402zM151 0v204q0 6 -2.5 10.5t-9.5 4.5h-8v-219h-99v802h113q55 0 80 -28t25 -88v-332q0 -22 -10 -38.5t-33 -22.5q20 -7 31.5 -25t11.5 -41v-227h-99z" />
    <glyph glyph-name="S" unicode="S" horiz-adv-x="248" 
d="M243 99q0 -30 -9.5 -50t-25.5 -32t-35.5 -17.5t-39.5 -5.5q-21 0 -40.5 4.5t-34.5 16.5t-24 32t-9 51v65h99v-81q0 -16 10 -16q6 0 8 5t2 11v110q0 13 -2 21t-16 13l-54 20q-25 9 -36 26.5t-11 40.5v388q0 31 9 51t24 32t34.5 16.5t40.5 4.5q20 0 39.5 -5t35.5 -17
t25.5 -32t9.5 -49v-324h-99v343q0 5 -2 8.5t-8 3.5t-8 -3.5t-2 -7.5v-373q0 -15 5.5 -23t20.5 -13l45 -16q48 -17 48 -68v-130z" />
    <glyph glyph-name="T" unicode="T" horiz-adv-x="172" 
d="M147 725v-725h-99v725h-30v77h159v-77h-30z" />
    <glyph glyph-name="U" unicode="U" 
d="M250 98q0 -30 -9.5 -50t-25.5 -32t-35.5 -17t-39.5 -5q-21 0 -40.5 4.5t-34.5 16.5t-24 32t-9 51v704h99v-725q0 -4 1.5 -7.5t7.5 -3.5t8.5 3.5t2.5 7.5v725h99v-704z" />
    <glyph glyph-name="V" unicode="V" horiz-adv-x="264" 
d="M241 84q-1 -24 -10 -41t-23.5 -28t-32 -16t-35.5 -5q-37 0 -65.5 20.5t-30.5 69.5l-26 718h103l10 -725q0 -4 1.5 -7.5t7.5 -3.5t8.5 3.5t2.5 7.5l10 725h103z" />
    <glyph glyph-name="W" unicode="W" horiz-adv-x="378" 
d="M368 104q0 -50 -25 -77.5t-81 -27.5h-124q-106 0 -106 106v696h99v-711q0 -14 9 -14h11v725h99v-725h9q10 0 10 14v711h99v-697z" />
    <glyph glyph-name="X" unicode="X" 
d="M151 0v207q0 6 -2.5 10.5t-7.5 4.5t-7.5 -4.5t-2.5 -10.5v-206h-99v227q0 23 11 40.5t31 24.5q-22 6 -32 22t-10 38v449h99v-493q0 -5 2.5 -9t7.5 -4t7.5 4t2.5 9v493h99v-448q0 -22 -10 -38.5t-33 -22.5q20 -7 31.5 -25t11.5 -41v-227h-99z" />
    <glyph glyph-name="Y" unicode="Y" 
d="M250 301q0 -26 -15 -49.5t-45 -28.5v-223h-98v224q-27 8 -43.5 29.5t-16.5 48.5v500h99v-493q0 -13 10 -13t10 13v493h99v-501z" />
    <glyph glyph-name="Z" unicode="Z" horiz-adv-x="224" 
d="M25 0v234q0 49 47 68l29 11q11 4 14.5 12.5t3.5 23.5v376h-94v77h194v-490q0 -23 -9 -39t-33 -26l-44 -18q-9 -4 -12 -14t-3 -22v-117h101v-76h-194z" />
    <glyph glyph-name="bracketleft" unicode="[" horiz-adv-x="156" 
d="M33 -69v941h133v-58h-35v-825h35v-58h-133z" />
    <glyph glyph-name="backslash" unicode="\" horiz-adv-x="262" 
d="M172 -2l-150 802h78l152 -802h-80z" />
    <glyph glyph-name="bracketright" unicode="]" horiz-adv-x="153" 
d="M10 -69v58h35v825h-35v58h133v-941h-133z" />
    <glyph glyph-name="asciicircum" unicode="^" horiz-adv-x="261" 
d="M141 242l-113 -40v76l113 40l110 -40v-76z" />
    <glyph glyph-name="underscore" unicode="_" horiz-adv-x="178" 
d="M-11 -124v79h215v-79h-215z" />
    <glyph glyph-name="grave" unicode="`" 
d="M33 886v76l215 -40v-77z" />
    <glyph glyph-name="a" unicode="a" horiz-adv-x="256" 
d="M151 222h-11q-7 0 -8 -5t-1 -10v-122q0 -10 10 -10t10 11v136zM155 0v19q-7 -10 -19 -16t-25 -6q-41 0 -58 23t-17 65v127q0 44 19 65t64 21h32v325q0 10 -10 10t-10 -12v-258h-95v250q0 54 28.5 75.5t76.5 21.5t76.5 -23.5t28.5 -70.5v-616h-91z" />
    <glyph glyph-name="b" unicode="b" horiz-adv-x="256" 
d="M151 617q0 5 -2 9.5t-9 4.5q-5 0 -7.5 -4.5t-2.5 -10.5v-527q0 -5 1.5 -9.5t9.5 -4.5q6 0 8 4.5t2 9.5v528zM246 82q0 -42 -15 -63.5t-56 -21.5q-13 0 -25.5 6t-19.5 16l1 -19h-95v802h95l-1 -115q7 10 19.5 16t25.5 6q41 0 56 -22t15 -64v-541z" />
    <glyph glyph-name="c" unicode="c" horiz-adv-x="257" 
d="M246 91q-1 -54 -29 -75.5t-76 -21.5t-76.5 23.5t-28.5 70.5v525q0 54 28.5 75.5t76.5 21.5t77 -23.5t29 -70.5v-253h-96v260q0 12 -10 12t-10 -12v-542q0 -10 9 -10q11 0 11 10v137h96z" />
    <glyph glyph-name="d" unicode="d" horiz-adv-x="256" 
d="M152 616q0 6 -2.5 10.5t-7.5 4.5q-7 0 -9 -4.5t-2 -9.5v-528q0 -5 2 -9.5t8 -4.5q8 0 9.5 4.5t1.5 9.5v527zM151 0l1 19q-7 -10 -19.5 -16t-25.5 -6q-41 0 -56 21.5t-15 63.5v541q0 42 15 64t56 22q13 0 25.5 -6t19.5 -16l-1 115h95v-802h-95z" />
    <glyph glyph-name="e" unicode="e" horiz-adv-x="257" 
d="M151 623q0 12 -10 12t-10 -12v-324h20v324zM247 90q0 -54 -29 -75t-77 -21t-76.5 23.5t-28.5 70.5v525q0 54 28.5 75.5t76.5 21.5t77 -25t29 -72v-391h-116v-141q0 -10 9 -10q11 0 11 10v75h96v-66z" />
    <glyph glyph-name="f" unicode="f" horiz-adv-x="248" 
d="M152 364v355q0 3 -2.5 7.5t-7.5 4.5q-11 0 -11 -12v-420h95v-77h-95v-222h-95v222h-26v76h26v411q0 54 28.5 75.5t76.5 21.5t77.5 -24t29.5 -70v-348h-96z" />
    <glyph glyph-name="g" unicode="g" horiz-adv-x="257" 
d="M151 623q0 12 -10 12t-10 -12v-217v-112h9q11 0 11 10v319zM246 314q0 -54 -28.5 -75.5t-76.5 -21.5h-10v-31q0 -14 9 -18.5t21 -8.5l35 -11q29 -9 39 -28t10 -41l1 -124q1 -54 -28 -76t-77 -22t-77 23.5t-29 70.5v88h96v-97q0 -10 9 -10q11 0 11 10v117q0 19 -25 27
l-42 14q-23 8 -36 24.5t-12 46.5v442q0 51 25.5 73t67.5 24l15 90h100l-41 -104q44 -24 44 -80z" />
    <glyph glyph-name="h" unicode="h" horiz-adv-x="256" 
d="M151 0v608q0 6 -1 11.5t-9 5.5t-9 -5.5t-1 -11.5v-608h-96v802h96l-1 -115q7 10 19.5 16t25.5 6q41 0 56 -19t15 -61v-629h-95z" />
    <glyph glyph-name="i" unicode="i" horiz-adv-x="136" 
d="M32 0v704h96v-704h-96zM134 792q0 -17 -16.5 -30t-37.5 -13q-22 0 -37.5 13t-15.5 30t15.5 30.5t37.5 13.5q21 0 37.5 -13.5t16.5 -30.5z" />
    <glyph glyph-name="j" unicode="j" horiz-adv-x="136" 
d="M33 -133v836h95v-836h-95zM136 792q0 -18 -16.5 -30.5t-37.5 -12.5q-22 0 -37.5 12.5t-15.5 30.5q0 17 15.5 30.5t37.5 13.5q21 0 37.5 -13.5t16.5 -30.5z" />
    <glyph glyph-name="k" unicode="k" horiz-adv-x="255" 
d="M150 -1v208q0 5 -1.5 9.5t-6.5 4.5h-11v-222h-96v802h96v-504h11q8 0 8 15v392h96v-351q0 -22 -10 -38t-33 -22q20 -7 31.5 -25t11.5 -41v-228h-96z" />
    <glyph glyph-name="l" unicode="l" horiz-adv-x="141" 
d="M35 0v802h96v-802h-96z" />
    <glyph glyph-name="m" unicode="m" horiz-adv-x="373" 
d="M269 -2v612q0 6 -2 10.5t-9 4.5q-8 0 -9.5 -4.5t-1.5 -10.5v-612h-95v612q0 6 -2 10.5t-9 4.5t-8.5 -4.5t-1.5 -10.5v-612h-95v706h95v-18q7 10 22 18t28 8q24 0 37 -7.5t19 -23.5q9 18 27.5 24.5t30.5 6.5q41 0 54.5 -23.5t13.5 -65.5v-625h-94z" />
    <glyph glyph-name="n" unicode="n" horiz-adv-x="256" 
d="M152 0v610q0 6 -2 11t-9 5t-8.5 -4.5t-1.5 -10.5v-611h-96v704h96v-18q7 10 19 16t25 6q41 0 56 -21.5t15 -63.5v-623h-94z" />
    <glyph glyph-name="o" unicode="o" horiz-adv-x="257" 
d="M151 623q0 12 -10 12t-10 -12v-542q0 -10 9 -10q11 0 11 10v542zM246 91q0 -54 -28.5 -75.5t-76.5 -21.5t-76.5 23.5t-28.5 70.5v525q0 54 28.5 75.5t76.5 21.5t77 -23.5t29 -70.5z" />
    <glyph glyph-name="p" unicode="p" horiz-adv-x="257" 
d="M151 610q0 5 -2 9.5t-9 4.5q-5 0 -7.5 -4.5t-2.5 -10.5v-520q0 -5 1.5 -9.5t9.5 -4.5q6 0 8 4.5t2 9.5v521zM246 82q0 -42 -15 -63.5t-56 -21.5q-13 0 -25.5 6t-19.5 16l1 -152h-95v837h95l-1 -19q7 10 19.5 16t25.5 6q41 0 56 -21.5t15 -63.5v-540z" />
    <glyph glyph-name="q" unicode="q" horiz-adv-x="256" 
d="M152 609q0 6 -2.5 10.5t-7.5 4.5q-7 0 -9 -4.5t-2 -9.5v-521q0 -5 2 -9.5t8 -4.5q8 0 9.5 4.5t1.5 9.5v520zM151 -133l1 152q-7 -10 -19.5 -16t-25.5 -6q-41 0 -56 21.5t-15 63.5v540q0 42 15 63.5t56 21.5q13 0 25.5 -6t19.5 -16l-1 19h95v-837h-95z" />
    <glyph glyph-name="r" unicode="r" horiz-adv-x="241" 
d="M151 364v243q0 5 -2 9.5t-9 4.5q-5 0 -7.5 -4.5t-2.5 -10.5v-264v-104.5v-99t0.5 -83t0.5 -55.5h-95v704h95l-1 -19q7 10 19.5 16t25.5 6q41 0 56 -21.5t15 -63.5v-258h-95z" />
    <glyph glyph-name="s" unicode="s" horiz-adv-x="252" 
d="M243 365h-95v256q0 12 -10 12t-10 -12v-308q0 -14 9 -18.5t21 -8.5l35 -11q29 -9 39 -28t10 -41l1 -114q1 -54 -28 -76t-77 -22t-77 23.5t-29 70.5v68h96v-77q0 -10 9 -10q11 0 11 10v107q0 19 -25 27l-43 14q-23 8 -35.5 24.5t-12.5 46.5v316q0 55 29 75.5t77 20.5
t77 -23.5t29 -70.5z" />
    <glyph glyph-name="t" unicode="t" horiz-adv-x="247" 
d="M254 91q0 -54 -28.5 -75.5t-76.5 -21.5t-77.5 24t-29.5 71v133h-32v76h32v501h95v-501h100v-76h-100v-143q0 -10 11 -10q10 0 10 10v78h96v-66z" />
    <glyph glyph-name="u" unicode="u" horiz-adv-x="256" 
d="M151 0l1 19q-7 -10 -19.5 -16t-25.5 -6q-41 0 -56 22.5t-15 64.5v620h95v-615q0 -5 2 -9.5t8 -4.5q8 0 9.5 4.5t1.5 9.5l-1 615h96v-704h-96z" />
    <glyph glyph-name="v" unicode="v" horiz-adv-x="262" 
d="M242 86q-1 -30 -10 -47.5t-22.5 -27.5t-31 -13t-35.5 -3q-17 0 -33.5 4t-29.5 14t-21.5 28t-9.5 45l-23 618h100l8 -635q0 -3 2 -6.5t7 -3.5t7 3.5t2 6.5l9 635h101z" />
    <glyph glyph-name="w" unicode="w" horiz-adv-x="373" 
d="M363 110q0 -61 -25 -85t-70 -24h-125q-107 0 -107 103v598h95v-613q0 -5 2 -9.5t10 -4.5h8v627h96v-627h8q13 0 13 14v613h95v-592z" />
    <glyph glyph-name="x" unicode="x" horiz-adv-x="255" 
d="M151 1v207q0 5 -3 8.5t-6 3.5q-4 0 -7.5 -2.5t-3.5 -9.5v-207h-95v220q0 23 11.5 41t31.5 25q-23 6 -33 22t-10 38v357h95v-392q0 -9 3 -12t7 -3q3 0 6.5 3t3.5 12v392h94v-357q0 -22 -10 -38t-33 -22q20 -7 31.5 -25t11.5 -41v-220h-94z" />
    <glyph glyph-name="y" unicode="y" horiz-adv-x="256" 
d="M246 -45q0 -54 -28.5 -75.5t-76.5 -21.5t-76.5 22t-28.5 69v26h95v-26q0 -13 10 -13t10 13l1 70q-7 -10 -19.5 -16t-25.5 -6q-41 0 -56 21.5t-15 63.5v622h95v-615q0 -4 2 -7q2 -7 8 -7q8 0 8 4.5t3 9.5l-1 615h95v-749z" />
    <glyph glyph-name="z" unicode="z" horiz-adv-x="209" 
d="M23 0v204q0 20 3.5 33t10.5 21.5t17 15t23 13.5l15 8q6 3 11.5 9t5.5 17v306h-86v77h181v-379q0 -24 -3 -38.5t-8.5 -23.5t-14 -14.5t-19.5 -11.5l-23 -12q-10 -5 -14 -12.5t-4 -21.5v-116h86v-75h-181z" />
    <glyph glyph-name="braceleft" unicode="{" horiz-adv-x="204" 
d="M164 -69q-60 0 -82.5 20t-22.5 58v172q0 20 -8 33.5t-31 17.5v50q23 4 31 17t8 33v464q0 36 22.5 56t82.5 20h40v-67h-27q-20 0 -20 -21v-474q0 -23 -11 -35t-25 -19q14 -8 25 -19t11 -34v-184q0 -21 20 -21h27v-67h-40z" />
    <glyph glyph-name="bar" unicode="|" horiz-adv-x="119" 
d="M33 -68v941h76v-941h-76z" />
    <glyph glyph-name="braceright" unicode="}" horiz-adv-x="209" 
d="M204 233q-23 -4 -30.5 -17.5t-7.5 -33.5v-173q0 -38 -23 -58t-83 -20h-40v67h27q20 0 20 21v185q0 23 11 34t25 19q-14 7 -25 19t-11 35v475q0 21 -20 21h-27v67h40q60 0 83 -20t23 -56v-465q0 -20 7.5 -33t30.5 -17v-50z" />
    <glyph glyph-name="asciitilde" unicode="~" horiz-adv-x="257" 
d="M247 266q0 -32 -16 -45t-48 -13q-20 0 -34.5 6.5t-14.5 25.5q0 6 -7 6t-7 -6v-29h-87v37q0 32 16.5 45t47.5 13q19 0 34.5 -8.5t15.5 -26.5q0 -6 6 -6q7 0 7 6v32h87v-37z" />
    <glyph glyph-name="Adieresis" unicode="&#xc4;" 
d="M151 722q0 4 -2 7.5t-8 3.5t-8 -3.5t-2 -7.5v-424h20v424zM151 0v221h-20v-221h-99v702q0 30 9 50t24 32t34.5 16.5t40.5 4.5q20 0 39.5 -5t35.5 -17t25.5 -32t9.5 -49v-702h-99zM134 888q0 -17 -16.5 -30t-37.5 -13q-22 0 -37.5 13t-15.5 30t15.5 30.5t37.5 13.5
q21 0 37.5 -13.5t16.5 -30.5zM261 888q0 -17 -16.5 -30t-37.5 -13q-22 0 -37.5 13t-15.5 30t15.5 30.5t37.5 13.5q21 0 37.5 -13.5t16.5 -30.5z" />
    <glyph glyph-name="Aring" unicode="&#xc5;" 
d="M151 722q0 4 -2 7.5t-8 3.5t-8 -3.5t-2 -7.5v-424h20v424zM151 0v221h-20v-221h-99v702q0 30 9 50t24 32t34.5 16.5t40.5 4.5q20 0 39.5 -5t35.5 -17t25.5 -32t9.5 -49v-702h-99zM152 949q0 10 -10 10t-10 -10v-23q0 -10 10 -10t10 10v23zM247 935q0 -47 -28.5 -65
t-76.5 -18t-77 20.5t-29 59.5v8q0 47 28.5 65t76.5 18t77 -20t29 -60v-8z" />
    <glyph glyph-name="Ccedilla" unicode="&#xc7;" 
d="M250 98q0 -30 -9.5 -50t-25.5 -32t-35.5 -17t-39.5 -5q-21 0 -40.5 4.5t-34.5 16t-24 31.5t-9 51v604q0 31 9 51t24 32t34.5 16.5t40.5 4.5q20 0 39.5 -5t35.5 -17t25.5 -31.5t9.5 -49.5v-324h-99v344q0 4 -2 7.5t-8 3.5t-8 -3.5t-2 -7.5v-645q0 -4 1.5 -7.5t7.5 -3.5
t8.5 3.5t2.5 7.5v142h99v-121zM28 -140v76l220 40v-76z" />
    <glyph glyph-name="Eacute" unicode="&#xc9;" horiz-adv-x="177" 
d="M32 -2v802h140v-77h-41v-427h41v-77h-41v-144h41v-77h-140zM33 845v80l137 37v-81z" />
    <glyph glyph-name="Ntilde" unicode="&#xd1;" 
d="M151 -6v728q0 4 -2 7.5t-8 3.5t-8 -3.5t-2 -7.5v-728h-99v707q0 31 9 51t24 32t34.5 16.5t40.5 4.5q20 0 39.5 -5t35.5 -17t25.5 -32t9.5 -49v-708h-99zM247 904q0 -32 -16 -45t-48 -13q-20 0 -34.5 6.5t-14.5 25.5q0 6 -7 6t-7 -6v-30h-87v38q0 32 16.5 45t47.5 13
q19 0 34.5 -9t15.5 -27q0 -6 6 -6q7 0 7 6v33h87v-37z" />
    <glyph glyph-name="Odieresis" unicode="&#xd6;" 
d="M151 722q0 4 -2 7.5t-8 3.5t-8 -3.5t-2 -7.5v-645q0 -4 1.5 -7.5t7.5 -3.5t8.5 3.5t2.5 7.5v645zM250 98q0 -30 -9.5 -50t-25.5 -32t-35.5 -17t-39.5 -5q-21 0 -40.5 4.5t-34.5 16.5t-24 32t-9 51v603q0 31 9 51t24 32t34.5 16.5t40.5 4.5q20 0 39.5 -5t35.5 -17
t25.5 -32t9.5 -49v-604zM134 888q0 -17 -16.5 -30t-37.5 -13q-22 0 -37.5 13t-15.5 30t15.5 30.5t37.5 13.5q21 0 37.5 -13.5t16.5 -30.5zM261 888q0 -17 -16.5 -30t-37.5 -13q-22 0 -37.5 13t-15.5 30t15.5 30.5t37.5 13.5q21 0 37.5 -13.5t16.5 -30.5z" />
    <glyph glyph-name="Udieresis" unicode="&#xdc;" 
d="M250 98q0 -30 -9.5 -50t-25.5 -32t-35.5 -17t-39.5 -5q-21 0 -40.5 4.5t-34.5 16.5t-24 32t-9 51v704h99v-725q0 -4 1.5 -7.5t7.5 -3.5t8.5 3.5t2.5 7.5v725h99v-704zM134 888q0 -17 -16.5 -30t-37.5 -13q-22 0 -37.5 13t-15.5 30t15.5 30.5t37.5 13.5q21 0 37.5 -13.5
t16.5 -30.5zM261 888q0 -17 -16.5 -30t-37.5 -13q-22 0 -37.5 13t-15.5 30t15.5 30.5t37.5 13.5q21 0 37.5 -13.5t16.5 -30.5z" />
    <glyph glyph-name="aacute" unicode="&#xe1;" horiz-adv-x="256" 
d="M151 222h-11q-7 0 -8 -5t-1 -10v-122q0 -10 10 -10t10 11v136zM155 0v19q-7 -10 -19 -16t-25 -6q-41 0 -58 23t-17 65v127q0 44 19 65t64 21h32v325q0 10 -10 10t-10 -12v-258h-95v250q0 54 28.5 75.5t76.5 21.5t76.5 -23.5t28.5 -70.5v-616h-91zM33 741v76l215 41v-77z
" />
    <glyph glyph-name="agrave" unicode="&#xe0;" horiz-adv-x="256" 
d="M151 222h-11q-7 0 -8 -5t-1 -10v-122q0 -10 10 -10t10 11v136zM155 0v19q-7 -10 -19 -16t-25 -6q-41 0 -58 23t-17 65v127q0 44 19 65t64 21h32v325q0 10 -10 10t-10 -12v-258h-95v250q0 54 28.5 75.5t76.5 21.5t76.5 -23.5t28.5 -70.5v-616h-91zM33 783v76l215 -40v-77z
" />
    <glyph glyph-name="acircumflex" unicode="&#xe2;" horiz-adv-x="256" 
d="M151 222h-11q-7 0 -8 -5t-1 -10v-122q0 -10 10 -10t10 11v136zM155 0v19q-7 -10 -19 -16t-25 -6q-41 0 -58 23t-17 65v127q0 44 19 65t64 21h32v325q0 10 -10 10t-10 -12v-258h-95v250q0 54 28.5 75.5t76.5 21.5t76.5 -23.5t28.5 -70.5v-616h-91zM141 783l-113 -41v76
l113 41l110 -40v-77z" />
    <glyph glyph-name="adieresis" unicode="&#xe4;" horiz-adv-x="256" 
d="M151 222h-11q-7 0 -8 -5t-1 -10v-122q0 -10 10 -10t10 11v136zM155 0v19q-7 -10 -19 -16t-25 -6q-41 0 -58 23t-17 65v127q0 44 19 65t64 21h32v325q0 10 -10 10t-10 -12v-258h-95v250q0 54 28.5 75.5t76.5 21.5t76.5 -23.5t28.5 -70.5v-616h-91zM134 794
q0 -17 -16.5 -30t-37.5 -13q-22 0 -37.5 13t-15.5 30t15.5 30.5t37.5 13.5q21 0 37.5 -13.5t16.5 -30.5zM261 794q0 -17 -16.5 -30t-37.5 -13q-22 0 -37.5 13t-15.5 30t15.5 30.5t37.5 13.5q21 0 37.5 -13.5t16.5 -30.5z" />
    <glyph glyph-name="atilde" unicode="&#xe3;" horiz-adv-x="256" 
d="M151 222h-11q-7 0 -8 -5t-1 -10v-122q0 -10 10 -10t10 11v136zM155 0v19q-7 -10 -19 -16t-25 -6q-41 0 -58 23t-17 65v127q0 44 19 65t64 21h32v325q0 10 -10 10t-10 -12v-258h-95v250q0 54 28.5 75.5t76.5 21.5t76.5 -23.5t28.5 -70.5v-616h-91zM247 812q0 -32 -16 -45
t-48 -13q-20 0 -34.5 6.5t-14.5 25.5q0 6 -7 6t-7 -6v-30h-87v38q0 32 16.5 45t47.5 13q19 0 34.5 -9t15.5 -27q0 -6 6 -6q7 0 7 6v33h87v-37z" />
    <glyph glyph-name="aring" unicode="&#xe5;" horiz-adv-x="256" 
d="M151 222h-11q-7 0 -8 -5t-1 -10v-122q0 -10 10 -10t10 11v136zM155 0v19q-7 -10 -19 -16t-25 -6q-41 0 -58 23t-17 65v127q0 44 19 65t64 21h32v325q0 10 -10 10t-10 -12v-258h-95v250q0 54 28.5 75.5t76.5 21.5t76.5 -23.5t28.5 -70.5v-616h-91zM152 846q0 10 -10 10
t-10 -10v-23q0 -10 10 -10t10 10v23zM247 832q0 -47 -28.5 -65t-76.5 -18t-77 20.5t-29 59.5v8q0 47 28.5 65t76.5 18t77 -20t29 -60v-8z" />
    <glyph glyph-name="ccedilla" unicode="&#xe7;" horiz-adv-x="257" 
d="M246 91q-1 -54 -29 -75.5t-76 -21.5t-76.5 23.5t-28.5 70.5v525q0 54 28.5 75.5t76.5 21.5t77 -23.5t29 -70.5v-253h-96v260q0 12 -10 12t-10 -12v-542q0 -10 9 -10q11 0 11 10v137h96zM28 -140v76l220 40v-76z" />
    <glyph glyph-name="eacute" unicode="&#xe9;" horiz-adv-x="257" 
d="M151 623q0 12 -10 12t-10 -12v-324h20v324zM247 90q0 -54 -29 -75t-77 -21t-76.5 23.5t-28.5 70.5v525q0 54 28.5 75.5t76.5 21.5t77 -25t29 -72v-391h-116v-141q0 -10 9 -10q11 0 11 10v75h96v-66zM33 741v76l215 41v-77z" />
    <glyph glyph-name="egrave" unicode="&#xe8;" horiz-adv-x="257" 
d="M151 623q0 12 -10 12t-10 -12v-324h20v324zM247 90q0 -54 -29 -75t-77 -21t-76.5 23.5t-28.5 70.5v525q0 54 28.5 75.5t76.5 21.5t77 -25t29 -72v-391h-116v-141q0 -10 9 -10q11 0 11 10v75h96v-66zM33 783v76l215 -40v-77z" />
    <glyph glyph-name="ecircumflex" unicode="&#xea;" horiz-adv-x="257" 
d="M151 623q0 12 -10 12t-10 -12v-324h20v324zM247 90q0 -54 -29 -75t-77 -21t-76.5 23.5t-28.5 70.5v525q0 54 28.5 75.5t76.5 21.5t77 -25t29 -72v-391h-116v-141q0 -10 9 -10q11 0 11 10v75h96v-66zM141 783l-113 -41v76l113 41l110 -40v-77z" />
    <glyph glyph-name="edieresis" unicode="&#xeb;" horiz-adv-x="257" 
d="M151 623q0 12 -10 12t-10 -12v-324h20v324zM247 90q0 -54 -29 -75t-77 -21t-76.5 23.5t-28.5 70.5v525q0 54 28.5 75.5t76.5 21.5t77 -25t29 -72v-391h-116v-141q0 -10 9 -10q11 0 11 10v75h96v-66zM134 794q0 -17 -16.5 -30t-37.5 -13q-22 0 -37.5 13t-15.5 30
t15.5 30.5t37.5 13.5q21 0 37.5 -13.5t16.5 -30.5zM261 794q0 -17 -16.5 -30t-37.5 -13q-22 0 -37.5 13t-15.5 30t15.5 30.5t37.5 13.5q21 0 37.5 -13.5t16.5 -30.5z" />
    <glyph glyph-name="iacute" unicode="&#xed;" horiz-adv-x="136" 
d="M34 0v704h96v-704h-96zM33 744v81l98 36v-83z" />
    <glyph glyph-name="igrave" unicode="&#xec;" horiz-adv-x="136" 
d="M34 0v704h96v-704h-96zM33 773v86l95 -30v-87z" />
    <glyph glyph-name="icircumflex" unicode="&#xee;" horiz-adv-x="136" 
d="M34 0v704h96v-704h-96zM81 768l-48 -25v81l48 25l50 -25v-81z" />
    <glyph glyph-name="idieresis" unicode="&#xef;" horiz-adv-x="136" 
d="M34 0v704h96v-704h-96zM71 794q0 -17 -16.5 -30t-37.5 -13q-22 0 -37.5 13t-15.5 30t15.5 30.5t37.5 13.5q21 0 37.5 -13.5t16.5 -30.5zM198 794q0 -17 -16.5 -30t-37.5 -13q-22 0 -37.5 13t-15.5 30t15.5 30.5t37.5 13.5q21 0 37.5 -13.5t16.5 -30.5z" />
    <glyph glyph-name="ntilde" unicode="&#xf1;" horiz-adv-x="256" 
d="M152 0v610q0 6 -2 11t-9 5t-8.5 -4.5t-1.5 -10.5v-611h-96v704h96v-18q7 10 19 16t25 6q41 0 56 -21.5t15 -63.5v-623h-94zM247 812q0 -32 -16 -45t-48 -13q-20 0 -34.5 6.5t-14.5 25.5q0 6 -7 6t-7 -6v-30h-87v38q0 32 16.5 45t47.5 13q19 0 34.5 -9t15.5 -27q0 -6 6 -6
q7 0 7 6v33h87v-37z" />
    <glyph glyph-name="oacute" unicode="&#xf3;" horiz-adv-x="257" 
d="M151 623q0 12 -10 12t-10 -12v-542q0 -10 9 -10q11 0 11 10v542zM246 91q0 -54 -28.5 -75.5t-76.5 -21.5t-76.5 23.5t-28.5 70.5v525q0 54 28.5 75.5t76.5 21.5t77 -23.5t29 -70.5zM33 741v76l215 41v-77z" />
    <glyph glyph-name="ograve" unicode="&#xf2;" horiz-adv-x="257" 
d="M151 623q0 12 -10 12t-10 -12v-542q0 -10 9 -10q11 0 11 10v542zM246 91q0 -54 -28.5 -75.5t-76.5 -21.5t-76.5 23.5t-28.5 70.5v525q0 54 28.5 75.5t76.5 21.5t77 -23.5t29 -70.5zM33 783v76l215 -40v-77z" />
    <glyph glyph-name="ocircumflex" unicode="&#xf4;" horiz-adv-x="257" 
d="M151 623q0 12 -10 12t-10 -12v-542q0 -10 9 -10q11 0 11 10v542zM246 91q0 -54 -28.5 -75.5t-76.5 -21.5t-76.5 23.5t-28.5 70.5v525q0 54 28.5 75.5t76.5 21.5t77 -23.5t29 -70.5zM141 783l-113 -41v76l113 41l110 -40v-77z" />
    <glyph glyph-name="odieresis" unicode="&#xf6;" horiz-adv-x="257" 
d="M151 623q0 12 -10 12t-10 -12v-542q0 -10 9 -10q11 0 11 10v542zM246 91q0 -54 -28.5 -75.5t-76.5 -21.5t-76.5 23.5t-28.5 70.5v525q0 54 28.5 75.5t76.5 21.5t77 -23.5t29 -70.5zM134 794q0 -17 -16.5 -30t-37.5 -13q-22 0 -37.5 13t-15.5 30t15.5 30.5t37.5 13.5
q21 0 37.5 -13.5t16.5 -30.5zM261 794q0 -17 -16.5 -30t-37.5 -13q-22 0 -37.5 13t-15.5 30t15.5 30.5t37.5 13.5q21 0 37.5 -13.5t16.5 -30.5z" />
    <glyph glyph-name="otilde" unicode="&#xf5;" horiz-adv-x="257" 
d="M151 623q0 12 -10 12t-10 -12v-542q0 -10 9 -10q11 0 11 10v542zM246 91q0 -54 -28.5 -75.5t-76.5 -21.5t-76.5 23.5t-28.5 70.5v525q0 54 28.5 75.5t76.5 21.5t77 -23.5t29 -70.5zM247 812q0 -32 -16 -45t-48 -13q-20 0 -34.5 6.5t-14.5 25.5q0 6 -7 6t-7 -6v-30h-87v38
q0 32 16.5 45t47.5 13q19 0 34.5 -9t15.5 -27q0 -6 6 -6q7 0 7 6v33h87v-37z" />
    <glyph glyph-name="uacute" unicode="&#xfa;" horiz-adv-x="256" 
d="M151 0l1 19q-7 -10 -19.5 -16t-25.5 -6q-41 0 -56 22.5t-15 64.5v620h95v-615q0 -5 2 -9.5t8 -4.5q8 0 9.5 4.5t1.5 9.5l-1 615h96v-704h-96zM33 741v76l215 41v-77z" />
    <glyph glyph-name="ugrave" unicode="&#xf9;" horiz-adv-x="256" 
d="M151 0l1 19q-7 -10 -19.5 -16t-25.5 -6q-41 0 -56 22.5t-15 64.5v620h95v-615q0 -5 2 -9.5t8 -4.5q8 0 9.5 4.5t1.5 9.5l-1 615h96v-704h-96zM33 783v76l215 -40v-77z" />
    <glyph glyph-name="ucircumflex" unicode="&#xfb;" horiz-adv-x="256" 
d="M151 0l1 19q-7 -10 -19.5 -16t-25.5 -6q-41 0 -56 22.5t-15 64.5v620h95v-615q0 -5 2 -9.5t8 -4.5q8 0 9.5 4.5t1.5 9.5l-1 615h96v-704h-96zM141 783l-113 -41v76l113 41l110 -40v-77z" />
    <glyph glyph-name="udieresis" unicode="&#xfc;" horiz-adv-x="256" 
d="M151 0l1 19q-7 -10 -19.5 -16t-25.5 -6q-41 0 -56 22.5t-15 64.5v620h95v-615q0 -5 2 -9.5t8 -4.5q8 0 9.5 4.5t1.5 9.5l-1 615h96v-704h-96zM134 794q0 -17 -16.5 -30t-37.5 -13q-22 0 -37.5 13t-15.5 30t15.5 30.5t37.5 13.5q21 0 37.5 -13.5t16.5 -30.5zM261 794
q0 -17 -16.5 -30t-37.5 -13q-22 0 -37.5 13t-15.5 30t15.5 30.5t37.5 13.5q21 0 37.5 -13.5t16.5 -30.5z" />
    <glyph glyph-name="dagger" unicode="&#x2020;" horiz-adv-x="247" 
d="M166 721v-789h-76v789h-71v79h71v73h76v-73h72v-79h-72z" />
    <glyph glyph-name="degree" unicode="&#xb0;" horiz-adv-x="246" 
d="M140 718q0 12 -10 12t-10 -12v-411q0 -10 9 -10q11 0 11 10v411zM235 318q0 -55 -28.5 -76t-76.5 -21t-76.5 23.5t-28.5 70.5v393q0 54 28.5 75.5t76.5 21.5t77 -23.5t29 -70.5z" />
    <glyph glyph-name="cent" unicode="&#xa2;" horiz-adv-x="257" 
d="M246 91q0 -43 -18 -64.5t-50 -28.5v-66h-76v67q-31 8 -48.5 30.5t-17.5 58.5v520q0 42 17.5 64t48.5 29v100h76v-100q32 -8 50.5 -30.5t18.5 -59.5v-248h-96v255q0 12 -10 12t-10 -12v-537q0 -10 9 -10q11 0 11 10v137h96z" />
    <glyph glyph-name="sterling" unicode="&#xa3;" 
d="M32 0v701q0 30 9.5 50t25.5 32t35.5 17t39.5 5q21 0 40.5 -4.5t34.5 -16.5t24 -32t9 -50v-325h-99v345q0 4 -2 7.5t-8 3.5t-8.5 -3.5t-2.5 -7.5v-424h95v-77h-95v-146h120v-75h-218z" />
    <glyph glyph-name="bullet" unicode="&#x2022;" 
d="M250 98q0 -30 -9.5 -50t-25.5 -32t-35.5 -17t-39.5 -5q-21 0 -40.5 4.5t-34.5 16.5t-24 32t-9 51v603q0 31 9 51t24 32t34.5 16.5t40.5 4.5q20 0 39.5 -5t35.5 -17t25.5 -32t9.5 -49v-604z" />
    <glyph glyph-name="paragraph" unicode="&#xb6;" horiz-adv-x="233" 
d="M147 -68v536h-9q-48 0 -75 24t-27 84v120q0 61 30 82.5t86 21.5h71v-868h-76z" />
    <glyph glyph-name="germandbls" unicode="&#xdf;" horiz-adv-x="363" 
d="M363 92q0 -54 -28.5 -76t-76.5 -22t-76 23.5t-29 70.5l-1 68h96v-77q0 -10 9 -10q11 0 11 10q0 29 -0.5 53t-0.5 41v35q0 9 -5 14.5t-19 10.5l-43 15q-23 8 -35.5 25t-12.5 47v399q0 3 -2.5 7.5t-7.5 4.5q-11 0 -11 -12v-719h-95v222h-26v77h26v410q0 54 28.5 75.5
t76.5 21.5t77.5 -24t29.5 -70v-376q0 -11 9 -17t21 -10l30 -10q55 -19 55 -62v-145z" />
    <glyph glyph-name="registered" unicode="&#xae;" horiz-adv-x="495" 
d="M266 613q0 6 -2.5 10.5t-9.5 4.5h-8v-268h11q9 0 9 11v242zM266 95v175q0 6 -2.5 10.5t-9.5 4.5h-8v-190h-97v609h111q54 0 78.5 -27t24.5 -86v-174q0 -21 -10 -37.5t-32 -22.5q20 -6 31 -24t11 -40v-198h-97zM386 709q0 7 -4.5 10.5t-9.5 3.5h-226q-6 0 -10.5 -4
t-4.5 -10v-619q0 -7 4.5 -10.5t9.5 -3.5h226q6 0 10.5 4t4.5 10v619zM485 104q0 -50 -25 -77.5t-81 -27.5h-241q-106 0 -106 106v590q0 50 25 77.5t81 27.5h241q106 0 106 -106v-590z" />
    <glyph glyph-name="copyright" unicode="&#xa9;" horiz-adv-x="495" 
d="M361 188q-1 -54 -29 -75.5t-76 -21.5t-76.5 23.5t-28.5 70.5v424q0 55 28.5 76.5t76.5 21.5t77 -24t29 -70v-250h-96v256q0 13 -10 13t-10 -12v-442q0 -10 9 -10q11 0 11 10v95h96zM386 709q0 7 -4.5 10.5t-9.5 3.5h-226q-6 0 -10.5 -4t-4.5 -10v-619q0 -7 4.5 -10.5
t9.5 -3.5h226q6 0 10.5 4t4.5 10v619zM485 104q0 -50 -25 -77.5t-81 -27.5h-241q-106 0 -106 106v590q0 50 25 77.5t81 27.5h241q106 0 106 -106v-590z" />
    <glyph glyph-name="trademark" unicode="&#x2122;" horiz-adv-x="537" 
d="M18 1v79h509v-79h-509zM147 725v-599h-99v599h-30v77h159v-77h-30zM428 124v587q0 14 -10 14h-9v-601h-99v601h-11q-9 0 -9 -14v-587h-99v575q0 102 106 102h124q56 0 81 -26t25 -75v-576h-99z" />
    <glyph glyph-name="acute" unicode="&#xb4;" 
d="M33 845v77l215 40v-76z" />
    <glyph glyph-name="dieresis" unicode="&#xa8;" horiz-adv-x="263" 
d="M136 792q0 -17 -16.5 -30t-37.5 -13q-22 0 -37.5 13t-15.5 30t15.5 30.5t37.5 13.5q21 0 37.5 -13.5t16.5 -30.5zM263 792q0 -17 -16.5 -30t-37.5 -13q-22 0 -37.5 13t-15.5 30t15.5 30.5t37.5 13.5q21 0 37.5 -13.5t16.5 -30.5z" />
    <glyph glyph-name="AE" unicode="&#xc6;" horiz-adv-x="296" 
d="M151 728h-10q-6 0 -8 -3.5t-2 -7.5v-421h20v432zM151 -2v2v219h-20v-219h-99v697q0 30 9 50t24 32t34.5 16.5t40.5 4.5h151v-77h-41v-21v-406h41v-77h-41v-144h41v-77h-140z" />
    <glyph glyph-name="Oslash" unicode="&#xd8;" 
d="M151 722q0 4 -2 7.5t-8 3.5t-8 -3.5t-2 -7.5v-645q0 -4 1.5 -7.5t7.5 -3.5t8.5 3.5t2.5 7.5v645zM250 98q0 -27 -8 -46t-21.5 -31t-31 -18.5t-35.5 -7.5l-14 -99h-93l36 111q-21 8 -36 30.5t-15 60.5v603q0 28 7.5 47t20 31t29.5 18t36 7l15 97h94l-32 -110
q21 -11 34.5 -32.5t13.5 -56.5v-604z" />
    <glyph glyph-name="yen" unicode="&#xa5;" 
d="M190 219v-219h-98v219h-60v79h60v75q-27 8 -43.5 29.5t-16.5 48.5v351h99v-344q0 -13 10 -13t10 13v344h99v-352q0 -26 -15 -49.5t-45 -28.5v-74h60v-79h-60z" />
    <glyph glyph-name="pi" unicode="&#x3c0;" horiz-adv-x="495" 
d="M270 617q0 14 -15 14h-5v-273h1q19 0 19 16v243zM369 389q0 -60 -27 -84t-75 -24h-17v-186h-99v608h102q28 0 49.5 -4.5t36.5 -16.5t22.5 -32t7.5 -51v-210zM386 709q0 7 -4.5 10.5t-9.5 3.5h-226q-6 0 -10.5 -4t-4.5 -10v-619q0 -7 4.5 -10.5t9.5 -3.5h226q6 0 10.5 4
t4.5 10v619zM485 104q0 -50 -25 -77.5t-81 -27.5h-241q-106 0 -106 106v590q0 50 25 77.5t81 27.5h241q106 0 106 -106v-590z" />
    <glyph glyph-name="ordfeminine" unicode="&#xaa;" horiz-adv-x="256" 
d="M151 347h-11q-7 0 -8 -5t-1 -10v-123q0 -10 10 -10t10 11v137zM36 1v79h210v-79h-210zM155 124v19q-7 -10 -19 -16t-25 -6q-41 0 -58 23t-17 65v128q0 44 19 65t64 21h32v294q0 10 -10 10t-10 -12v-227h-95v219q0 55 28.5 76t76.5 21t76.5 -23.5t28.5 -70.5v-586h-91z
" />
    <glyph glyph-name="ordmasculine" unicode="&#xba;" horiz-adv-x="257" 
d="M151 717q0 12 -10 12t-10 -12v-509q0 -10 9 -10q11 0 11 10v509zM36 1v79h210v-79h-210zM246 218q0 -55 -28.5 -76t-76.5 -21t-76.5 23.5t-28.5 70.5v492q0 55 28.5 76t76.5 21t77 -23.5t29 -70.5z" />
    <glyph glyph-name="ae" unicode="&#xe6;" horiz-adv-x="372" 
d="M151 88v134h-11q-7 0 -8 -5t-1 -10v-122q0 -10 10 -10q6 0 8 5t2 6v2zM266 618q0 12 -10 12t-10 -12v-7v-312h20v319zM362 90q0 -54 -29 -75t-77 -21q-22 0 -39.5 8.5t-22.5 19.5q-7 -11 -19 -18t-34 -7q-50 0 -77.5 23t-27.5 65v127q0 44 19 65t64 21h32v310v10
q0 10 -10 10t-10 -12v-253h-95v245q0 55 28.5 76t76.5 21q16 0 33 -5.5t23 -16.5q5 11 23.5 16.5t35.5 5.5q48 0 77 -25t29 -72v-386h-116v-141q0 -10 9 -10q11 0 11 10v75h96v-66z" />
    <glyph glyph-name="oslash" unicode="&#xf8;" horiz-adv-x="257" 
d="M151 618q0 12 -10 12t-10 -12v-537q0 -10 9 -10q11 0 11 10v537zM246 92q0 -26 -8 -44t-20.5 -30t-29 -18.5t-33.5 -7.5l-15 -97h-95l36 109q-20 11 -32.5 31.5t-12.5 55.5v516q0 27 7 45.5t19.5 30t29 17t34.5 6.5l15 94h95l-36 -107q20 -11 33 -31.5t13 -54.5v-515z
" />
    <glyph glyph-name="questiondown" unicode="&#xbf;" horiz-adv-x="253" 
d="M243 99q0 -31 -9 -51t-24 -32t-34.5 -17t-40.5 -5q-20 0 -39.5 5t-35.5 17t-25.5 32t-9.5 49l2 373q0 19 4.5 32.5t11.5 24.5l38 47q5 4 9 13q3 8 5 21.5t1 34.5h100v-11q0 -22 -2 -36t-5.5 -24t-9 -17.5t-11.5 -15.5l-33 -41q-8 -10 -10 -22.5t-2 -23.5v-364
q0 -8 1.5 -13.5t8.5 -5.5q8 0 9.5 5.5t1.5 13.5v333h99v-323v1zM217 749q0 -24 -20 -40t-49 -16t-49 16t-20 40t20 40t49 16t49 -16t20 -40z" />
    <glyph glyph-name="exclamdown" unicode="&#xa1;" horiz-adv-x="178" 
d="M47 -3l15 645h79l15 -645h-109zM173 748q0 -24 -20 -40t-49 -16q-30 0 -49.5 16t-19.5 40t19.5 40t49.5 16q29 0 49 -16t20 -40z" />
    <glyph glyph-name="florin" unicode="&#x192;" horiz-adv-x="248" 
d="M152 364v355q0 3 -2.5 7.5t-7.5 4.5q-11 0 -11 -12v-420h95v-77h-95v-354h-95v354h-26v77h26v410q0 54 28.5 75.5t76.5 21.5t77.5 -24t29.5 -70v-348h-96z" />
    <glyph glyph-name="guillemotleft" unicode="&#xab;" horiz-adv-x="314" 
d="M106 110l-96 153l96 154h96l-96 -154l96 -153h-96zM228 110l-96 153l96 154h96l-96 -154l96 -153h-96z" />
    <glyph glyph-name="guillemotright" unicode="&#xbb;" horiz-adv-x="314" 
d="M106 110h-96l96 153l-96 154h96l96 -154zM228 110h-96l96 153l-96 154h96l96 -154z" />
    <glyph glyph-name="ellipsis" unicode="&#x2026;" horiz-adv-x="472" 
d="M158 50q0 -24 -19.5 -40t-49.5 -16q-29 0 -49 16t-20 40t20 40t49 16q30 0 49.5 -16t19.5 -40zM315 50q0 -24 -19.5 -40t-49.5 -16q-29 0 -49 16t-20 40t20 40t49 16q30 0 49.5 -16t19.5 -40zM472 50q0 -24 -19.5 -40t-49.5 -16q-29 0 -49 16t-20 40t20 40t49 16
q30 0 49.5 -16t19.5 -40z" />
    <glyph glyph-name="nonbreakingspace" unicode="&#xa0;" horiz-adv-x="178" 
 />
    <glyph glyph-name="Agrave" unicode="&#xc0;" 
d="M151 722q0 4 -2 7.5t-8 3.5t-8 -3.5t-2 -7.5v-424h20v424zM151 0v221h-20v-221h-99v702q0 30 9 50t24 32t34.5 16.5t40.5 4.5q20 0 39.5 -5t35.5 -17t25.5 -32t9.5 -49v-702h-99zM33 886v76l215 -40v-77z" />
    <glyph glyph-name="Atilde" unicode="&#xc3;" 
d="M151 722q0 4 -2 7.5t-8 3.5t-8 -3.5t-2 -7.5v-424h20v424zM151 0v221h-20v-221h-99v702q0 30 9 50t24 32t34.5 16.5t40.5 4.5q20 0 39.5 -5t35.5 -17t25.5 -32t9.5 -49v-702h-99zM247 904q0 -32 -16 -45t-48 -13q-20 0 -34.5 6.5t-14.5 25.5q0 6 -7 6t-7 -6v-30h-87v38
q0 32 16.5 45t47.5 13q19 0 34.5 -9t15.5 -27q0 -6 6 -6q7 0 7 6v33h87v-37z" />
    <glyph glyph-name="Otilde" unicode="&#xd5;" 
d="M151 722q0 4 -2 7.5t-8 3.5t-8 -3.5t-2 -7.5v-645q0 -4 1.5 -7.5t7.5 -3.5t8.5 3.5t2.5 7.5v645zM250 98q0 -30 -9.5 -50t-25.5 -32t-35.5 -17t-39.5 -5q-21 0 -40.5 4.5t-34.5 16.5t-24 32t-9 51v603q0 31 9 51t24 32t34.5 16.5t40.5 4.5q20 0 39.5 -5t35.5 -17
t25.5 -32t9.5 -49v-604zM247 904q0 -32 -16 -45t-48 -13q-20 0 -34.5 6.5t-14.5 25.5q0 6 -7 6t-7 -6v-30h-87v38q0 32 16.5 45t47.5 13q19 0 34.5 -9t15.5 -27q0 -6 6 -6q7 0 7 6v33h87v-37z" />
    <glyph glyph-name="OE" unicode="&#x152;" horiz-adv-x="296" 
d="M151 728h-10q-6 0 -8 -3.5t-2 -7.5v-636q0 -4 1.5 -7.5t7.5 -3.5h11v658zM140 -2q-21 0 -40.5 4.5t-34.5 16.5t-24 32t-9 50v595q0 31 9 51t24 32t34.5 16.5t40.5 4.5h151v-77h-41v-21v-406h41v-77h-41v-121v-23h41v-77h-151z" />
    <glyph glyph-name="oe" unicode="&#x153;" horiz-adv-x="372" 
d="M151 618q0 12 -10 12t-10 -12v-537q0 -10 9 -10q11 0 11 10v537zM266 618q0 12 -10 12t-10 -12v-319h20v319zM362 90q0 -54 -29 -75t-77 -21q-38 0 -56 20q-20 -20 -59 -20q-48 0 -76.5 23.5t-28.5 70.5v520q0 54 28.5 75.5t76.5 21.5q37 0 57 -20q17 20 58 20
q48 0 77 -25t29 -72v-386h-116v-141q0 -10 9 -10q11 0 11 10v75h96v-66z" />
    <glyph glyph-name="endash" unicode="&#x2013;" horiz-adv-x="347" 
d="M20 219v79h318v-79h-318z" />
    <glyph glyph-name="emdash" unicode="&#x2014;" horiz-adv-x="447" 
d="M20 219v79h418v-79h-418z" />
    <glyph glyph-name="quotedblleft" unicode="&#x201c;" horiz-adv-x="184" 
d="M46 546l-18 254h70v-254h-52zM127 546l-17 254h69v-254h-52z" />
    <glyph glyph-name="quotedblright" unicode="&#x201d;" horiz-adv-x="184" 
d="M80 546h-52v254h70zM162 546h-52v254h69z" />
    <glyph glyph-name="quoteleft" unicode="&#x2018;" horiz-adv-x="104" 
d="M47 546l-19 254h71v-254h-52z" />
    <glyph glyph-name="quoteright" unicode="&#x2019;" horiz-adv-x="104" 
d="M80 546h-52v254h71z" />
    <glyph glyph-name="ydieresis" unicode="&#xff;" horiz-adv-x="256" 
d="M131 792q0 -17 -16.5 -30t-37.5 -13q-22 0 -37.5 13t-15.5 30t15.5 30.5t37.5 13.5q21 0 37.5 -13.5t16.5 -30.5zM258 792q0 -17 -16.5 -30t-37.5 -13q-22 0 -37.5 13t-15.5 30t15.5 30.5t37.5 13.5q21 0 37.5 -13.5t16.5 -30.5zM246 -45q0 -54 -28.5 -75.5t-76.5 -21.5
t-76.5 22t-28.5 69v26h95v-26q0 -13 10 -13t10 13l1 70q-7 -10 -19.5 -16t-25.5 -6q-41 0 -56 21.5t-15 63.5v622h95v-615q0 -4 2 -7q2 -7 8 -7q8 0 8 4.5t3 9.5l-1 615h95v-749z" />
    <glyph glyph-name="Ydieresis" unicode="&#x178;" 
d="M133 888q0 -17 -16.5 -30t-37.5 -13q-22 0 -37.5 13t-15.5 30t15.5 30.5t37.5 13.5q21 0 37.5 -13.5t16.5 -30.5zM260 888q0 -17 -16.5 -30t-37.5 -13q-22 0 -37.5 13t-15.5 30t15.5 30.5t37.5 13.5q21 0 37.5 -13.5t16.5 -30.5zM250 301q0 -26 -15 -49.5t-45 -28.5v-223
h-98v224q-27 8 -43.5 29.5t-16.5 48.5v500h99v-493q0 -13 10 -13t10 13v493h99v-501z" />
    <glyph glyph-name="fraction" unicode="&#x2044;" horiz-adv-x="247" 
d="M102 -2h-80l152 802h78z" />
    <glyph glyph-name="fraction" unicode="&#x2215;" horiz-adv-x="247" 
d="M102 -2h-80l152 802h78z" />
    <glyph glyph-name="currency" unicode="&#xa4;" horiz-adv-x="1005" 
d="M113 395q-3 -3 -5 -3q-4 0 -4 3q0 4 4 4q2 0 5 -3l4 4q-5 5 -9 5q-10 0 -10 -10q0 -9 10 -9q4 0 9 5zM122 273q0 -3 -3 -3t-3 3q0 2 3 2q1 0 3 -2zM146 273q0 -3 -3 -3t-3 3q0 2 3 2t3 -2zM103 358q0 -3 -3 -3h-2v5h2q3 0 3 -2zM145 349l4 6l3 -6h-7zM121 396
q0 -13 -13 -13q-14 0 -14 13q0 5 4 8.5t10 3.5q5 0 9 -3.5t4 -8.5zM520 539q0 -10 -7 -16.5t-17 -6.5t-17 7.5t-7 18.5q0 10 7.5 16.5t17.5 5.5q10 -2 16.5 -8.5t6.5 -15.5v-1zM662 537q-1 -10 -7.5 -16.5t-17.5 -6.5q-10 0 -16.5 7.5t-6.5 18.5q0 9 7.5 15.5t17.5 5.5
t16.5 -7.5t5.5 -16.5h1zM103 283l-16 -13l6 -5l3 3q-1 -1 -1 -2v-1v-12h8v30zM129 273q0 9 -10 9t-10 -9q0 -7 6 -9q1 0 2 -1l-1 -1l-6 -7l7 -3l9 13q3 4 3 8zM153 273q0 9 -10 9t-10 -9q0 -7 6 -9q1 0 2 -1l-1 -1l-6 -7l7 -3l9 13q3 4 3 8zM119 324h-8v-11h-13v11h-8v-28h8
v11h13v-11h8v28zM177 262q0 7 -7 9h-1l1 2l7 8h-20v-7h6h2l-1 -1l-6 -8h8q3 0 3 -3t-3 -3q-1 0 -4 4l-6 -4q5 -7 10 -7q11 0 11 10zM155 324h-7v-14q0 -8 -7 -8t-7 8v14h-8v-14q0 -15 15 -15q14 0 14 15v14zM108 351q3 3 3 7q0 9 -10 9h-11v-28h8v9h3l1 -1l8 -9l6 5z
M127 367h-7v-28h7v28zM456 52q-3 8 -11 11.5t-16 0.5q-7 -3 -11 -11t-1 -16t11.5 -11t15.5 0q8 3 11.5 10t0.5 16zM191 313h-18v-6h10v-4q-1 -1 -5 -1q-10 0 -10 8t9 8q3 0 8 -3l5 4q-7 6 -13 6q-7 0 -11.5 -4.5t-4.5 -10.5t4.5 -10.5t12.5 -4.5q7 0 13 5v13zM149 368
l-18 -27l8 -3l2 5h15l3 -5l7 3zM127 395q0 8 -5.5 13.5t-13.5 5.5t-13.5 -5.5t-5.5 -12.5q0 -8 5.5 -13.5t13.5 -5.5t13.5 5.5t5.5 12.5zM226 324h-7v-11h-14v11h-8v-28h8v11h13l1 -11h7v28zM199 367h-7v-14v-1l-22 17v-30h8v13v2l21 -17v30zM516 52q-3 8 -11.5 11.5
t-16.5 0.5q-7 -2 -10.5 -10.5t-1.5 -16.5q3 -8 11.5 -11t16.5 0q7 3 10.5 10t1.5 16zM252 303h-11v4h11v6h-11v4h11v7h-18v-28h18v7zM487 107q-2 8 -10.5 11.5t-16.5 1.5q-7 -2 -10.5 -10.5t-1.5 -16.5q3 -8 11.5 -11t16.5 0q7 2 11 9t1 16h-1zM278 305q0 6 -7 8h-3
q-2 2 -2 3q-2 2 2 2q2 0 5 -4l5 5q-3 5 -5.5 5.5t-4.5 0.5q-10 0 -10 -9q0 -7 7 -9h3q3 -2 3 -3q0 -2 -3 -2q-1 0 -5 3l-5 -4q5 -6 10 -6q10 0 10 10zM576 50q-2 8 -10.5 11.5t-16.5 0.5q-7 -2 -10.5 -10.5t-1.5 -16.5q3 -7 11.5 -10.5t15.5 0.5q8 2 11.5 9t0.5 16zM460 167
q-3 8 -11 11t-16 1q-7 -3 -11 -11.5t-1 -16.5q3 -7 11.5 -10.5t15.5 -0.5q8 3 11.5 10t0.5 16v1zM548 106q-2 8 -10.5 12t-16.5 1q-7 -2 -10.5 -10.5t-1.5 -16.5q3 -7 11.5 -10.5t15.5 -0.5q8 2 11.5 9t0.5 16zM637 50q-2 8 -10 11.5t-16 0.5q-8 -2 -11.5 -10.5t-0.5 -16.5
q2 -7 10.5 -10.5t16.5 0.5q8 2 11.5 9t0.5 16h-1zM608 106q-2 8 -10.5 12t-16.5 1q-7 -2 -10.5 -10.5t-1.5 -16.5q3 -7 11.5 -10.5t15.5 -0.5q8 2 11.5 9t0.5 16zM697 50q-2 8 -10 11.5t-16 0.5q-8 -2 -11.5 -10.5t-0.5 -16.5q2 -7 10.5 -10.5t16.5 0.5q8 2 11.5 9t0.5 16
h-1zM670 106q-2 8 -10.5 11.5t-15.5 1.5q-8 -2 -11.5 -10.5t-0.5 -16.5q2 -7 10.5 -10.5t16.5 -0.5q7 2 11 9t1 16h-1zM703 159q0 8 -6 14t-14 6h-181q-8 0 -13.5 -6t-5.5 -14t6 -14t14 -6h180q8 0 14 6t6 14zM759 50q-2 8 -10.5 11t-16.5 1q-8 -3 -11.5 -11.5t-0.5 -16.5
q2 -7 10.5 -10.5t16.5 0.5q8 2 11.5 9.5t0.5 16.5zM730 106q-2 8 -10.5 11.5t-15.5 0.5q-8 -2 -11.5 -10.5t-0.5 -16.5q2 -7 10.5 -10.5t16.5 -0.5q7 3 11 10t1 16h-1zM791 106q-2 8 -10.5 11.5t-16.5 0.5q-8 -2 -11.5 -10.5t-0.5 -16.5q2 -7 10.5 -10.5t16.5 -0.5
q7 3 11 10t1 16zM763 165q-2 8 -10.5 11.5t-16.5 0.5q-8 -2 -11.5 -11t-0.5 -16q2 -8 10.5 -11t16.5 0q7 2 11 9t1 16v1zM692 416q8 14 3 23t-22 9h-43v-42q0 -11 -6.5 -16.5t-15 -5.5t-15 6t-6.5 17v41h-114q-16 0 -22 -9t2 -23q20 -39 52 -58.5t66 -19.5t66.5 19.5
t54.5 58.5zM548 551q0 26 -17 44t-43 19t-45 -17.5t-20 -44.5t17 -44.5t44 -19.5q13 -1 24.5 4t20.5 13.5t14 20t5 24.5v1zM722 548q1 26 -17 44t-44 20q-26 1 -45.5 -17.5t-19.5 -44.5t18 -44t44 -19t44.5 17t19.5 44zM304 360q8 -30 0.5 -61t-28.5 -57q-18 -23 -42.5 -36
t-50.5 -16t-52.5 4.5t-48.5 25.5t-34.5 42.5t-15 51t5 53t25.5 48.5t42.5 35t51 16t53 -4t48.5 -25q8 -6 13.5 -12.5t10.5 -13.5h62zM816 33q0 -33 -31 -33h-360q-32 0 -32 32l1 142q0 33 31 33h358q34 0 34 -33zM782 561q14 -43 10 -86.5t-23.5 -81.5t-52.5 -67.5
t-76 -43.5t-86.5 -10t-81.5 23t-67.5 52t-43.5 77q-14 43 -10 86.5t23.5 81.5t52 67t76.5 43q38 12 77 10.5t74 -15.5q20 2 25 21q5 14 -0.5 26.5t-18.5 17.5q-9 3 -11.5 11t0 14.5t9 10.5t15.5 0q29 -12 42 -38.5t2 -54.5q-7 -18 -22 -29q29 -21 51.5 -49.5t34.5 -65.5h1z
M995 337q1 -11 -3 -22.5t-10.5 -21.5t-14 -18.5t-11.5 -13.5l-41 -30q-17 -12 -31.5 -2.5t-11.5 26.5q-9 -6 -18 -3.5t-14.5 10t-6 17.5t7.5 19l-62 -48q-11 -9 -21.5 -7.5t-17 8.5t-6.5 17t10 19l117 104q-27 17 -33.5 37t-1.5 49q2 12 10 17t17 4.5t16.5 -6t7.5 -15.5
q1 -18 2.5 -28t7.5 -16.5t18 -11.5t34 -13l11 -4q16 -5 28.5 -21.5t16.5 -44.5v-1z" />
    <glyph glyph-name="guilsinglleft" unicode="&#x2039;" horiz-adv-x="192" 
d="M106 110l-96 153l96 154h96l-96 -154l96 -153h-96z" />
    <glyph glyph-name="guilsinglright" unicode="&#x203a;" horiz-adv-x="190" 
d="M102 108h-92l95 153l-95 154h92l98 -154z" />
    <glyph glyph-name="daggerdbl" unicode="&#x2021;" horiz-adv-x="247" 
d="M166 220v-288h-76v288h-71v79h71v422h-71v79h71v73h76v-73h72v-79h-72v-422h72v-79h-72z" />
    <glyph glyph-name="periodcentered" unicode="&#xb7;" horiz-adv-x="158" 
d="M158 257q0 -24 -19.5 -40t-49.5 -16q-29 0 -49 16t-20 40t20 40t49 16q30 0 49.5 -16t19.5 -40z" />
    <glyph glyph-name="periodcentered" unicode="&#x2219;" horiz-adv-x="158" 
d="M158 257q0 -24 -19.5 -40t-49.5 -16q-29 0 -49 16t-20 40t20 40t49 16q30 0 49.5 -16t19.5 -40z" />
    <glyph glyph-name="quotesinglbase" unicode="&#x201a;" horiz-adv-x="100" 
d="M80 -67h-52v254h70z" />
    <glyph glyph-name="quotedblbase" unicode="&#x201e;" horiz-adv-x="181" 
d="M80 -67h-52v254h70zM162 -67h-52v254h69z" />
    <glyph glyph-name="perthousand" unicode="&#x2030;" horiz-adv-x="843" 
d="M140 718q0 12 -10 12t-10 -12v-411q0 -10 9 -10q11 0 11 10v411zM502 491q0 12 -10 12t-10 -12v-411q0 -10 9 -10q11 0 11 10v411zM737 491q0 12 -10 12t-10 -12v-411q0 -10 9 -10q11 0 11 10v411zM235 318q0 -55 -28.5 -76t-76.5 -21t-76.5 23.5t-28.5 70.5v393
q0 54 28.5 75.5t76.5 21.5t77 -23.5t29 -70.5zM276 -2h-80l152 802h78zM597 90q0 -54 -28.5 -75.5t-76.5 -21.5t-76.5 23.5t-28.5 70.5v394q0 54 28.5 75.5t76.5 21.5t77 -23.5t29 -70.5zM832 90q0 -54 -28.5 -75.5t-76.5 -21.5t-76.5 23.5t-28.5 70.5v394q0 54 28.5 75.5
t76.5 21.5t77 -23.5t29 -70.5z" />
    <glyph glyph-name="Acircumflex" unicode="&#xc2;" 
d="M151 722q0 4 -2 7.5t-8 3.5t-8 -3.5t-2 -7.5v-424h20v424zM151 0v221h-20v-221h-99v702q0 30 9 50t24 32t34.5 16.5t40.5 4.5q20 0 39.5 -5t35.5 -17t25.5 -32t9.5 -49v-702h-99zM141 880l-113 -41v76l113 41l110 -40v-77z" />
    <glyph glyph-name="Ecircumflex" unicode="&#xca;" horiz-adv-x="177" 
d="M32 -2v802h140v-77h-41v-427h41v-77h-41v-144h41v-77h-140zM99 870l-71 -30v76l71 30l72 -30v-76z" />
    <glyph glyph-name="Aacute" unicode="&#xc1;" 
d="M151 722q0 4 -2 7.5t-8 3.5t-8 -3.5t-2 -7.5v-424h20v424zM151 0v221h-20v-221h-99v702q0 30 9 50t24 32t34.5 16.5t40.5 4.5q20 0 39.5 -5t35.5 -17t25.5 -32t9.5 -49v-702h-99zM33 845v77l215 40v-76z" />
    <glyph glyph-name="Edieresis" unicode="&#xcb;" horiz-adv-x="177" 
d="M32 -2v802h140v-77h-41v-427h41v-77h-41v-144h41v-77h-140zM92 888q0 -17 -16.5 -30t-37.5 -13q-22 0 -37.5 13t-15.5 30t15.5 30.5t37.5 13.5q21 0 37.5 -13.5t16.5 -30.5zM219 888q0 -17 -16.5 -30t-37.5 -13q-22 0 -37.5 13t-15.5 30t15.5 30.5t37.5 13.5
q21 0 37.5 -13.5t16.5 -30.5z" />
    <glyph glyph-name="Egrave" unicode="&#xc8;" horiz-adv-x="177" 
d="M32 -2v802h140v-77h-41v-427h41v-77h-41v-144h41v-77h-140zM33 881v81l137 -35v-82z" />
    <glyph glyph-name="Iacute" unicode="&#xcd;" horiz-adv-x="141" 
d="M33 0v802h98v-802h-98zM33 845v82l98 35v-83z" />
    <glyph glyph-name="Icircumflex" unicode="&#xce;" horiz-adv-x="141" 
d="M33 0v802h98v-802h-98zM81 865l-48 -25v81l48 25l50 -25v-81z" />
    <glyph glyph-name="Idieresis" unicode="&#xcf;" horiz-adv-x="141" 
d="M33 0v802h98v-802h-98zM72 888q0 -17 -16.5 -30t-37.5 -13q-22 0 -37.5 13t-15.5 30t15.5 30.5t37.5 13.5q21 0 37.5 -13.5t16.5 -30.5zM199 888q0 -17 -16.5 -30t-37.5 -13q-22 0 -37.5 13t-15.5 30t15.5 30.5t37.5 13.5q21 0 37.5 -13.5t16.5 -30.5z" />
    <glyph glyph-name="Igrave" unicode="&#xcc;" horiz-adv-x="141" 
d="M33 0v802h98v-802h-98zM33 879v83l98 -35v-82z" />
    <glyph glyph-name="Oacute" unicode="&#xd3;" 
d="M151 722q0 4 -2 7.5t-8 3.5t-8 -3.5t-2 -7.5v-645q0 -4 1.5 -7.5t7.5 -3.5t8.5 3.5t2.5 7.5v645zM250 98q0 -30 -9.5 -50t-25.5 -32t-35.5 -17t-39.5 -5q-21 0 -40.5 4.5t-34.5 16.5t-24 32t-9 51v603q0 31 9 51t24 32t34.5 16.5t40.5 4.5q20 0 39.5 -5t35.5 -17
t25.5 -32t9.5 -49v-604zM33 845v77l215 40v-76z" />
    <glyph glyph-name="Ocircumflex" unicode="&#xd4;" 
d="M151 722q0 4 -2 7.5t-8 3.5t-8 -3.5t-2 -7.5v-645q0 -4 1.5 -7.5t7.5 -3.5t8.5 3.5t2.5 7.5v645zM250 98q0 -30 -9.5 -50t-25.5 -32t-35.5 -17t-39.5 -5q-21 0 -40.5 4.5t-34.5 16.5t-24 32t-9 51v603q0 31 9 51t24 32t34.5 16.5t40.5 4.5q20 0 39.5 -5t35.5 -17
t25.5 -32t9.5 -49v-604zM141 880l-113 -41v76l113 41l110 -40v-77z" />
    <glyph glyph-name="Ograve" unicode="&#xd2;" 
d="M151 722q0 4 -2 7.5t-8 3.5t-8 -3.5t-2 -7.5v-645q0 -4 1.5 -7.5t7.5 -3.5t8.5 3.5t2.5 7.5v645zM250 98q0 -30 -9.5 -50t-25.5 -32t-35.5 -17t-39.5 -5q-21 0 -40.5 4.5t-34.5 16.5t-24 32t-9 51v603q0 31 9 51t24 32t34.5 16.5t40.5 4.5q20 0 39.5 -5t35.5 -17
t25.5 -32t9.5 -49v-604zM33 886v76l215 -40v-77z" />
    <glyph glyph-name="Uacute" unicode="&#xda;" 
d="M250 98q0 -30 -9.5 -50t-25.5 -32t-35.5 -17t-39.5 -5q-21 0 -40.5 4.5t-34.5 16.5t-24 32t-9 51v704h99v-725q0 -4 1.5 -7.5t7.5 -3.5t8.5 3.5t2.5 7.5v725h99v-704zM33 845v77l215 40v-76z" />
    <glyph glyph-name="Ucircumflex" unicode="&#xdb;" 
d="M250 98q0 -30 -9.5 -50t-25.5 -32t-35.5 -17t-39.5 -5q-21 0 -40.5 4.5t-34.5 16.5t-24 32t-9 51v704h99v-725q0 -4 1.5 -7.5t7.5 -3.5t8.5 3.5t2.5 7.5v725h99v-704zM141 880l-113 -41v76l113 41l110 -40v-77z" />
    <glyph glyph-name="Ugrave" unicode="&#xd9;" 
d="M250 98q0 -30 -9.5 -50t-25.5 -32t-35.5 -17t-39.5 -5q-21 0 -40.5 4.5t-34.5 16.5t-24 32t-9 51v704h99v-725q0 -4 1.5 -7.5t7.5 -3.5t8.5 3.5t2.5 7.5v725h99v-704zM33 886v76l215 -40v-77z" />
    <glyph glyph-name="dotlessi" unicode="&#x131;" horiz-adv-x="136" 
d="M34 0v704h96v-704h-96z" />
    <glyph glyph-name="circumflex" unicode="&#x2c6;" horiz-adv-x="261" 
d="M141 783l-113 -41v76l113 41l110 -40v-77z" />
    <glyph glyph-name="tilde" unicode="&#x2dc;" horiz-adv-x="257" 
d="M247 807q0 -32 -16 -45t-48 -13q-20 0 -34.5 6.5t-14.5 25.5q0 6 -7 6t-7 -6v-30h-87v38q0 32 16.5 45t47.5 13q19 0 34.5 -9t15.5 -27q0 -6 6 -6q7 0 7 6v33h87v-37z" />
    <glyph glyph-name="macron" unicode="&#xaf;" horiz-adv-x="282" 
d="M28 752v77h244v-77h-244z" />
    <glyph glyph-name="macron" unicode="&#x2c9;" horiz-adv-x="282" 
d="M28 752v77h244v-77h-244z" />
    <glyph glyph-name="breve" unicode="&#x2d8;" horiz-adv-x="257" 
d="M247 844q0 -54 -28.5 -75.5t-76.5 -21.5q-47 0 -77.5 23.5t-28.5 70.5l1 27h96l-1 -34q0 -12 10 -12t10 12v34h95v-24z" />
    <glyph glyph-name="dotaccent" unicode="&#x2d9;" horiz-adv-x="136" 
d="M136 792q0 -17 -16.5 -30t-37.5 -13q-22 0 -37.5 13t-15.5 30t15.5 30.5t37.5 13.5q21 0 37.5 -13.5t16.5 -30.5z" />
    <glyph glyph-name="ring" unicode="&#x2da;" horiz-adv-x="257" 
d="M152 844q0 10 -10 10t-10 -10v-23q0 -10 10 -10t10 10v23zM247 830q0 -47 -28.5 -65t-76.5 -18t-77 20.5t-29 59.5v8q0 47 28.5 65t76.5 18t77 -20t29 -60v-8z" />
    <glyph glyph-name="cedilla" unicode="&#xb8;" horiz-adv-x="258" 
d="M28 -140v76l220 40v-76z" />
    <glyph glyph-name="hungarumlaut" unicode="&#x2dd;" horiz-adv-x="184" 
d="M80 749h-52v115h70zM162 749h-52v115h69z" />
    <glyph glyph-name="ogonek" unicode="&#x2db;" horiz-adv-x="257" 
d="M247 -132h-105q-48 0 -77.5 23.5t-28.5 70.5l1 98h96l-1 -105q0 -12 10 -12h105v-75z" />
    <glyph glyph-name="caron" unicode="&#x2c7;" horiz-adv-x="261" 
d="M141 742l-113 41v76l113 -41l110 41v-76z" />
    <glyph glyph-name="Scaron" unicode="&#x160;" horiz-adv-x="248" 
d="M243 99q0 -30 -9.5 -50t-25.5 -32t-35.5 -17.5t-39.5 -5.5q-21 0 -40.5 4.5t-34.5 16.5t-24 32t-9 51v65h99v-81q0 -16 10 -16q6 0 8 5t2 11v110q0 13 -2 21t-16 13l-54 20q-25 9 -36 26.5t-11 40.5v388q0 31 9 51t24 32t34.5 16.5t40.5 4.5q20 0 39.5 -5t35.5 -17
t25.5 -32t9.5 -49v-324h-99v343q0 5 -2 8.5t-8 3.5t-8 -3.5t-2 -7.5v-373q0 -15 5.5 -23t20.5 -13l45 -16q48 -17 48 -68v-130zM141 845l-113 41v76l113 -41l110 41v-76z" />
    <glyph glyph-name="scaron" unicode="&#x161;" horiz-adv-x="252" 
d="M243 365h-95v256q0 12 -10 12t-10 -12v-308q0 -14 9 -18.5t21 -8.5l35 -11q29 -9 39 -28t10 -41l1 -114q1 -54 -28 -76t-77 -22t-77 23.5t-29 70.5v68h96v-77q0 -10 9 -10q11 0 11 10v107q0 19 -25 27l-43 14q-23 8 -35.5 24.5t-12.5 46.5v316q0 55 29 75.5t77 20.5
t77 -23.5t29 -70.5zM140 742l-113 41v76l113 -41l110 41v-76z" />
    <glyph glyph-name="Yacute" unicode="&#xdd;" 
d="M250 301q0 -26 -15 -49.5t-45 -28.5v-223h-98v224q-27 8 -43.5 29.5t-16.5 48.5v500h99v-493q0 -13 10 -13t10 13v493h99v-501zM33 845v77l215 40v-76z" />
    <glyph glyph-name="yacute" unicode="&#xfd;" horiz-adv-x="256" 
d="M246 -45q0 -54 -28.5 -75.5t-76.5 -21.5t-76.5 22t-28.5 69v26h95v-26q0 -13 10 -13t10 13l1 70q-7 -10 -19.5 -16t-25.5 -6q-41 0 -56 21.5t-15 63.5v622h95v-615q0 -4 2 -7q2 -7 8 -7q8 0 8 4.5t3 9.5l-1 615h95v-749zM33 747v77l215 40v-76z" />
    <glyph glyph-name="Thorn" unicode="&#xde;" horiz-adv-x="255" 
d="M151 618q0 14 -15 14h-5v-334h1q19 0 19 16v304zM250 329q0 -60 -27 -84t-75 -24h-17v-221h-99v799h100v-95h2q28 0 49.5 -4.5t36.5 -16.5t22.5 -32t7.5 -51v-271z" />
    <glyph glyph-name="thorn" unicode="&#xfe;" horiz-adv-x="257" 
d="M151 610q0 5 -2 9.5t-9 4.5q-5 0 -7.5 -4.5t-2.5 -10.5v-520q0 -5 1.5 -9.5t9.5 -4.5q6 0 8 4.5t2 9.5v521zM246 82q0 -42 -15 -63.5t-56 -21.5q-13 0 -25.5 6t-19.5 16l1 -152h-95v933h95l-1 -115q7 10 19.5 16t25.5 6q41 0 56 -21.5t15 -63.5v-540z" />
    <glyph glyph-name="Zcaron" unicode="&#x17d;" horiz-adv-x="224" 
d="M25 0v234q0 49 47 68l29 11q11 4 14.5 12.5t3.5 23.5v376h-94v77h194v-490q0 -23 -9 -39t-33 -26l-44 -18q-9 -4 -12 -14t-3 -22v-117h101v-76h-194zM126 848l-98 40v76l98 -40l95 40v-76z" />
    <glyph glyph-name="zcaron" unicode="&#x17e;" horiz-adv-x="209" 
d="M23 0v204q0 20 3.5 33t10.5 21.5t17 15t23 13.5l15 8q6 3 11.5 9t5.5 17v306h-86v77h181v-379q0 -24 -3 -38.5t-8.5 -23.5t-14 -14.5t-19.5 -11.5l-23 -12q-10 -5 -14 -12.5t-4 -21.5v-116h86v-75h-181zM116 748l-93 40v76l93 -40l90 40v-76z" />
    <glyph glyph-name="minus" unicode="&#x2212;" horiz-adv-x="247" 
d="M20 219v79h218v-79h-218z" />
    <glyph glyph-name="multiply" unicode="&#xd7;" horiz-adv-x="255" 
d="M151 1v207q0 5 -3 8.5t-6 3.5q-4 0 -7.5 -2.5t-3.5 -9.5v-207h-95v220q0 23 11.5 41t31.5 25q-23 6 -33 22t-10 38v357h95v-392q0 -9 3 -12t7 -3q3 0 6.5 3t3.5 12v392h94v-357q0 -22 -10 -38t-33 -22q20 -7 31.5 -25t11.5 -41v-220h-94z" />
    <glyph glyph-name="lslash" unicode="&#x142;" horiz-adv-x="177" 
d="M147 220v-220h-96v220h-33v78h33v504h96v-504h33v-78h-33z" />
    <glyph glyph-name="apple" horiz-adv-x="635" 
d="M262 721q-1 -9 -8.5 -15t-18.5 -6h-6l5 42h6q11 0 17 -6t5 -15zM350 431q0 3 -3 6t-7 3q-11 0 -11 -9q0 -10 11 -10q10 0 10 10zM411 436q-1 2 -3.5 4t-7.5 2t-7 -2t-3 -4h21zM284 721q2 17 -9.5 29t-30.5 12h-30l-10 -83h30q19 0 33.5 12.5t16.5 29.5zM609 436
q0 2 -2.5 4t-7.5 2t-7.5 -2t-3.5 -4h21zM424 328q-36 -5 -54 -10t-26 -16.5t-10 -32t-8 -56.5q-7 -41 -13 -80q-5 -34 -11 -70.5t-10 -62.5q-46 -1 -81 20.5t-59 47.5q-28 31 -50 70q-21 42 -36 90t-23.5 90.5t-10 73t3.5 36.5q4 4 10 7q11 6 29 0q-6 -53 -8 -90.5t2 -73.5
l48 7q-2 11 -5 32.5t-5.5 47.5t-4 54t-1 52.5t3 43t8.5 25.5q4 3 10 6q5 2 12 2.5t17 -3.5q-5 -30 -9.5 -65t-7.5 -70t-4.5 -67t-0.5 -56l48 8q-1 7 -1 31t0.5 56.5t2.5 69.5t5.5 69.5t8 56.5t11.5 31q5 4 11 6q5 2 12 2t17 -4q-10 -40 -19.5 -88.5t-17 -94t-12 -82
t-4.5 -51.5l43 6q10 97 19 153.5t15 85.5q7 34 13 46q5 6 11 9q5 2 13 2t19 -7q-26 -64 -41 -119.5t-24 -97.5q-11 -49 -15 -91q-4 -46 -1.5 -72.5t9.5 -38.5t16.5 -12t18.5 8.5t16 22t9 29.5q5 36 -1.5 63.5t-11 46t-1 27.5t28.5 8q10 0 25 -2.5t29.5 -6.5t26.5 -9.5
t15 -12.5zM350 408v3q-4 -4 -12 -4q-11 0 -17.5 7t-6.5 17t6.5 16.5t17.5 6.5q8 0 12 -4v15h15v-57h-15zM426 425h-36q1 -2 3 -4t7 -2q4 0 5.5 1l4.5 3l11 -8q-8 -5 -12 -6.5t-9 -1.5q-11 0 -18.5 7t-7.5 17q0 9 7.5 16t18.5 7t18.5 -7t7.5 -22zM457 405l-27 42l13 7
q2 -5 4 -8t4 -5q2 -3 3 -5q0 -1 2 -3q1 -1 1 -2q1 1 1 2t1 2q0 1 1 1q1 2 3 5q2 2 3.5 5t4.5 7l12 -7zM491 408v45h15v-45h-15zM321 720q-1 -33 -24.5 -56.5t-56.5 -23.5q-34 0 -57 23.5t-22 56.5t24.5 56.5t56.5 23.5q34 0 57 -23.5t22 -56.5zM507 466q1 -3 -1.5 -5.5
t-5.5 -3.5q-9 0 -9 7q-2 8 7 8q7 2 9 -6zM566 420q-13 -13 -24 -13q-11 1 -18.5 7.5t-7.5 16.5q0 9 7.5 16t18.5 7q9 0 24 -12l-11 -10q-9 8 -13 8q-10 0 -10 -9q0 -10 10 -10q4 0 13 8zM625 425h-37q1 -2 3.5 -4t7.5 -2q3 0 5 1t4 3l11 -8q-8 -5 -11.5 -6.5t-8.5 -1.5
q-11 0 -18.5 7t-7.5 17q0 9 7.5 16t18.5 7t18.5 -7t7.5 -22z" />
    <glyph glyph-name="Eth" unicode="&#xd0;" horiz-adv-x="276" 
d="M167 716q0 14 -15 14h-5v-431h11v-77h-11v-147h5q15 0 15 14v627zM266 105q0 -62 -31 -83.5t-85 -21.5h-102v222h-30v77h30v503h102q51 0 83.5 -21.5t32.5 -77.5v-598z" />
    <glyph glyph-name="eth" unicode="&#xf0;" horiz-adv-x="277" 
d="M152 611q0 6 -2.5 10.5t-7.5 4.5q-7 0 -9 -4.5t-2 -9.5v-523q0 -5 2 -9.5t8 -4.5q8 0 9.5 4.5t1.5 9.5v522zM246 725v-725h-95l1 19q-7 -10 -19.5 -16t-25.5 -6q-41 0 -56 21.5t-15 63.5v536q0 42 15 64t56 22q13 0 25.5 -6t19.5 -16l-1 43h-33v77h159v-77h-31z" />
    <glyph glyph-name="Lslash" unicode="&#x141;" horiz-adv-x="177" 
d="M47 0v220h-29v78h29v504h99v-504h31v-78h-31v-145h31v-75h-130z" />
  </font>
</defs>
</svg>
